Junicode-Italic.glyphspackage
{
glyphname = uni0000;
layers = (
{
layerId = master01;
shapes = (
{
closed = 1;
nodes = (
(932,-132,l),
(932,1508,l),
(68,1508,l),
(68,-132,l)
);
},
{
closed = 1;
nodes = (
(374,-31,o),
(342,-14.667,o),
(318,18,cs),
(303.333,38.667,o),
(296,61.333,o),
(296,86,cs),
(296,132,o),
(312.667,167.333,o),
(346,192,cs),
(366,206,o),
(388.667,213,o),
(414,213,cs),
(456.667,213,o),
(490,194.333,o),
(514,157,cs),
(527.333,135.667,o),
(534,112,o),
(534,86,cs),
(534,41.333,o),
(516,8,o),
(480,-14,cs),
(460,-25.333,o),
(438,-31,o),
(414,-31,cs)
);
},
{
closed = 1;
nodes = (
(398.667,418.333,o),
(391.333,420.667,o),
(386,426,cs),
(335.333,516.667,o),
(310,587,o),
(310,637,cs),
(310,696.333,o),
(348,746.667,o),
(424,788,cs),
(530,844,ls),
(607.333,885.333,o),
(646,935.667,o),
(646,995,cs),
(646,1127.67,o),
(548.667,1194,o),
(354,1194,cs),
(308.667,1194,o),
(286,1222.67,o),
(286,1280,cs),
(286,1334.67,o),
(314,1362,o),
(370,1362,cs),
(456.667,1362,o),
(538,1318.33,o),
(614,1231,c),
(690,1137,o),
(729.333,1036.67,o),
(732,930,cs),
(732,832.667,o),
(704.667,769.667,o),
(650,741,cs),
(484,653,ls),
(434.667,625.667,o),
(410,595.667,o),
(410,563,cs),
(410,525.667,o),
(416.667,484,o),
(430,438,c),
(430,428,o),
(422.667,421.667,o),
(408,419,cs)
);
}
);
width = 1024;
},
{
layerId = "2438E31C-45B5-47A7-9B3D-1A0FEFB47671";
shapes = (
{
closed = 1;
nodes = (
(932,-131,l),
(932,1507,l),
(68,1507,l),
(68,-131,l)
);
},
{
closed = 1;
nodes = (
(374,-31,o),
(341.667,-14.667,o),
(317,18,cs),
(302.333,38.667,o),
(295,61.333,o),
(295,86,cs),
(295,132.667,o),
(312,168.333,o),
(346,193,cs),
(365.333,206.333,o),
(388,213,o),
(414,213,cs),
(457.333,213,o),
(490.667,194.667,o),
(514,158,cs),
(526,136,o),
(532,112,o),
(532,86,cs),
(532,40.667,o),
(514.333,7.333,o),
(479,-14,cs),
(459,-25.333,o),
(437.333,-31,o),
(414,-31,cs)
);
},
{
closed = 1;
nodes = (
(398,418.667,o),
(390.333,420.667,o),
(385,426,cs),
(335.667,516,o),
(311,586.333,o),
(311,637,cs),
(309.667,697,o),
(347.333,747.333,o),
(424,788,cs),
(530,844,ls),
(606.667,886,o),
(645,936.333,o),
(645,995,cs),
(646.333,1127.67,o),
(549.333,1194,o),
(354,1194,cs),
(308.667,1194,o),
(285.667,1222.67,o),
(285,1280,cs),
(285,1334.67,o),
(313,1362,o),
(369,1362,cs),
(455.667,1362,o),
(537.333,1318.33,o),
(614,1231,c),
(690.667,1137,o),
(729.667,1036.67,o),
(731,930,cs),
(731,832.667,o),
(703.667,769.667,o),
(649,741,cs),
(485,653,ls),
(435,625.667,o),
(410,595.667,o),
(410,563,cs),
(410,526.333,o),
(416.667,484.667,o),
(430,438,cs),
(430.667,428.667,o),
(423.333,422.667,o),
(408,420,cs)
);
}
);
width = 1024;
},
{
layerId = "7904EAEE-2B64-409E-B923-0048172372BE";
shapes = (
{
closed = 1;
nodes = (
(932,-132,l),
(932,1508,l),
(68,1508,l),
(68,-132,l)
);
},
{
closed = 1;
nodes = (
(374,-31,o),
(342,-15,o),
(318,18,cs),
(304,39,o),
(296,61,o),
(296,86,cs),
(296,132,o),
(313,167,o),
(346,192,cs),
(366,206,o),
(389,213,o),
(414,213,cs),
(456,213,o),
(490,194,o),
(514,157,cs),
(528,136,o),
(535,112,o),
(535,86,cs),
(535,42,o),
(517,8,o),
(480,-14,cs),
(460,-25,o),
(438,-31,o),
(414,-31,cs)
);
},
{
closed = 1;
nodes = (
(399,418,o),
(392,421,o),
(386,426,cs),
(335,517,o),
(310,587,o),
(310,637,cs),
(310,696,o),
(348,746,o),
(424,788,cs),
(530,844,ls),
(608,885,o),
(646,935,o),
(646,995,cs),
(646,1128,o),
(548,1194,o),
(354,1194,cs),
(309,1194,o),
(286,1223,o),
(286,1280,cs),
(286,1335,o),
(314,1362,o),
(370,1362,cs),
(457,1362,o),
(538,1318,o),
(614,1231,c),
(690,1137,o),
(729,1037,o),
(732,930,cs),
(732,833,o),
(705,770,o),
(650,741,cs),
(484,653,ls),
(435,626,o),
(410,596,o),
(410,563,cs),
(410,525,o),
(417,484,o),
(430,438,cs),
(430,428,o),
(422,421,o),
(408,419,cs)
);
}
);
width = 1024;
},
{
layerId = "E06D8587-1A71-4EC2-BD94-397D882F5FC1";
shapes = (
{
closed = 1;
nodes = (
(746,-132,l),
(746,1508,l),
(54,1508,l),
(54,-132,l)
);
},
{
closed = 1;
nodes = (
(299,-31,o),
(274,-15,o),
(254,18,cs),
(243,39,o),
(237,61,o),
(237,86,cs),
(237,132,o),
(250,167,o),
(277,192,cs),
(293,206,o),
(311,213,o),
(331,213,cs),
(365,213,o),
(392,194,o),
(411,157,cs),
(422,136,o),
(427,112,o),
(427,86,cs),
(427,41,o),
(413,8,o),
(384,-14,cs),
(368,-25,o),
(350,-31,o),
(331,-31,cs)
);
},
{
closed = 1;
nodes = (
(319,418,o),
(313,421,o),
(309,426,cs),
(268,517,o),
(248,587,o),
(248,637,cs),
(248,696,o),
(278,747,o),
(339,788,cs),
(424,844,ls),
(486,885,o),
(517,936,o),
(517,995,cs),
(517,1128,o),
(439,1194,o),
(283,1194,cs),
(247,1194,o),
(229,1223,o),
(229,1280,cs),
(229,1335,o),
(251,1362,o),
(296,1362,cs),
(365,1362,o),
(430,1318,o),
(491,1231,c),
(552,1137,o),
(583,1037,o),
(586,930,cs),
(586,833,o),
(564,770,o),
(520,741,cs),
(387,653,ls),
(348,626,o),
(328,596,o),
(328,563,cs),
(328,526,o),
(333,484,o),
(344,438,c),
(344,428,o),
(338,422,o),
(326,419,cs)
);
}
);
width = 819;
},
{
layerId = "8F7CDE40-C368-4484-AA71-76B7ABD5539F";
shapes = (
{
closed = 1;
nodes = (
(1118,-132,l),
(1118,1508,l),
(82,1508,l),
(82,-132,l)
);
},
{
closed = 1;
nodes = (
(449,-31,o),
(410,-14,o),
(382,18,cs),
(364,38,o),
(355,62,o),
(355,86,cs),
(355,132,o),
(375,168,o),
(415,192,cs),
(439,206,o),
(466,213,o),
(497,213,cs),
(548,213,o),
(588,195,o),
(617,157,cs),
(633,135,o),
(641,112,o),
(641,86,cs),
(641,42,o),
(619,8,o),
(576,-14,cs),
(552,-26,o),
(526,-31,o),
(497,-31,cs)
);
},
{
closed = 1;
nodes = (
(478,419,o),
(470,420,o),
(463,426,cs),
(403,516,o),
(372,587,o),
(372,637,cs),
(372,697,o),
(418,746,o),
(509,788,cs),
(636,844,ls),
(729,886,o),
(775,935,o),
(775,995,cs),
(775,1127,o),
(658,1194,o),
(425,1194,cs),
(370,1194,o),
(343,1222,o),
(343,1280,cs),
(343,1334,o),
(377,1362,o),
(444,1362,cs),
(548,1362,o),
(646,1319,o),
(737,1231,c),
(828,1137,o),
(876,1036,o),
(878,930,cs),
(878,832,o),
(845,769,o),
(780,741,cs),
(581,653,ls),
(521,625,o),
(492,595,o),
(492,563,cs),
(492,525,o),
(500,484,o),
(516,438,c),
(516,428,o),
(507,421,o),
(490,419,cs)
);
}
);
width = 1229;
},
{
layerId = "997BDFA1-EC67-4686-8CFE-E56BDBE179FE";
shapes = (
{
closed = 1;
nodes = (
(932,-132,l),
(932,1508,l),
(68,1508,l),
(68,-132,l)
);
},
{
closed = 1;
nodes = (
(374,-31,o),
(342,-14.667,o),
(318,18,cs),
(303.333,38.667,o),
(296,61.333,o),
(296,86,cs),
(296,132,o),
(312.667,167.333,o),
(346,192,cs),
(366,206,o),
(388.667,213,o),
(414,213,cs),
(456.667,213,o),
(490,194.333,o),
(514,157,cs),
(527.333,135.667,o),
(534,112,o),
(534,86,cs),
(534,41.333,o),
(516,8,o),
(480,-14,cs),
(460,-25.333,o),
(438,-31,o),
(414,-31,cs)
);
},
{
closed = 1;
nodes = (
(398.667,418.333,o),
(391.333,420.667,o),
(386,426,cs),
(335.333,516.667,o),
(310,587,o),
(310,637,cs),
(310,696.333,o),
(348,746.667,o),
(424,788,cs),
(530,844,ls),
(607.333,885.333,o),
(646,935.667,o),
(646,995,cs),
(646,1127.67,o),
(548.667,1194,o),
(354,1194,cs),
(308.667,1194,o),
(286,1222.67,o),
(286,1280,cs),
(286,1334.67,o),
(314,1362,o),
(370,1362,cs),
(456.667,1362,o),
(538,1318.33,o),
(614,1231,c),
(690,1137,o),
(729.333,1036.67,o),
(732,930,cs),
(732,832.667,o),
(704.667,769.667,o),
(650,741,cs),
(484,653,ls),
(434.667,625.667,o),
(410,595.667,o),
(410,563,cs),
(410,525.667,o),
(416.667,484,o),
(430,438,c),
(430,428,o),
(422.667,421.667,o),
(408,419,cs)
);
}
);
width = 1024;
}
);
unicode = 0;
}
{
glyphname = exclam;
layers = (
{
layerId = master01;
shapes = (
{
closed = 1;
nodes = (
(308,419,o),
(320,425,o),
(324,436,cs),
(641,1278,ls),
(647,1294,o),
(650,1311,o),
(650,1329,cs),
(650,1376,o),
(624,1399,o),
(571,1399,cs),
(510,1399,o),
(453,1335,o),
(442,1286,cs),
(257,432,l),
(257,423,o),
(267,419,o),
(288,419,cs)
);
},
{
closed = 1;
nodes = (
(262,-25,o),
(317,18,o),
(317,90,cs),
(317,159,o),
(268,211,o),
(190,211,cs),
(116,211,o),
(72,151,o),
(72,83,cs),
(72,15,o),
(138,-25,o),
(201,-25,cs)
);
}
);
width = 520;
},
{
layerId = "2438E31C-45B5-47A7-9B3D-1A0FEFB47671";
shapes = (
{
closed = 1;
nodes = (
(347,422,o),
(364,429,o),
(369,442,c),
(700,1231,ls),
(711,1257,o),
(715,1284,o),
(715,1307,cs),
(715,1368,o),
(676,1399,o),
(598,1399,cs),
(472,1399,o),
(434,1279,o),
(412,1165,cs),
(272,446,l),
(273,430,o),
(289,422,o),
(318,422,cs)
);
},
{
closed = 1;
nodes = (
(304,-27,o),
(385,32,o),
(385,123,cs),
(385,210,o),
(322,289,o),
(234,289,cs),
(151,289,o),
(68,227,o),
(68,137,cs),
(68,54,o),
(130,-27,o),
(221,-27,cs)
);
}
);
width = 567;
},
{
layerId = "7904EAEE-2B64-409E-B923-0048172372BE";
shapes = (
{
closed = 1;
nodes = (
(295,418,o),
(305,424,o),
(309,434,c),
(611,1266,ls),
(626,1306,o),
(628,1320,o),
(628,1336,cs),
(628,1379,o),
(607,1399,o),
(562,1399,cs),
(523,1399,o),
(463,1370,o),
(445,1289,cs),
(252,427,l),
(252,421,o),
(260,418,o),
(278,418,cs)
);
},
{
closed = 1;
nodes = (
(244,-27,o),
(292,21,o),
(292,81,cs),
(292,140,o),
(244,188,o),
(185,188,cs),
(125,188,o),
(77,140,o),
(77,81,cs),
(77,21,o),
(125,-27,o),
(185,-27,cs)
);
}
);
width = 504;
},
{
layerId = "E06D8587-1A71-4EC2-BD94-397D882F5FC1";
shapes = (
{
closed = 1;
nodes = (
(263,420,o),
(273,428,o),
(276,438,cs),
(536,1266,ls),
(541,1282,o),
(543,1303,o),
(543,1322,cs),
(543,1373,o),
(518,1399,o),
(468,1399,cs),
(398,1399,o),
(358,1316,o),
(347,1250,cs),
(213,437,l),
(213,425,o),
(224,420,o),
(242,420,cs)
);
},
{
closed = 1;
nodes = (
(226,-25,o),
(279,22,o),
(279,101,cs),
(279,176,o),
(234,237,o),
(167,237,cs),
(104,237,o),
(58,174,o),
(58,99,cs),
(58,26,o),
(111,-25,o),
(171,-25,cs)
);
}
);
width = 439;
},
{
layerId = "8F7CDE40-C368-4484-AA71-76B7ABD5539F";
shapes = (
{
closed = 1;
nodes = (
(353,418,o),
(367,422,o),
(372,434,cs),
(746,1290,ls),
(753,1306,o),
(757,1319,o),
(757,1336,cs),
(757,1379,o),
(730,1399,o),
(674,1399,cs),
(622,1399,o),
(548,1354,o),
(537,1322,cs),
(301,427,l),
(301,421,o),
(310,418,o),
(334,418,cs)
);
},
{
closed = 1;
nodes = (
(298,-25,o),
(355,14,o),
(355,79,cs),
(355,142,o),
(302,185,o),
(213,185,cs),
(128,185,o),
(86,128,o),
(86,67,cs),
(86,4,o),
(165,-25,o),
(231,-25,cs)
);
}
);
width = 601;
},
{
layerId = "997BDFA1-EC67-4686-8CFE-E56BDBE179FE";
shapes = (
{
closed = 1;
nodes = (
(308,419,o),
(320,425,o),
(324,436,cs),
(641,1278,ls),
(647,1294,o),
(650,1311,o),
(650,1329,cs),
(650,1376,o),
(624,1399,o),
(571,1399,cs),
(510,1399,o),
(453,1335,o),
(442,1286,cs),
(257,432,l),
(257,423,o),
(267,419,o),
(288,419,cs)
);
},
{
closed = 1;
nodes = (
(262,-25,o),
(317,18,o),
(317,90,cs),
(317,159,o),
(268,211,o),
(190,211,cs),
(116,211,o),
(72,151,o),
(72,83,cs),
(72,15,o),
(138,-25,o),
(201,-25,cs)
);
}
);
width = 520;
}
);
unicode = 33;
}
{
glyphname = quotedbl;
layers = (
{
layerId = master01;
shapes = (
{
closed = 1;
nodes = (
(195,455,o),
(205,457,o),
(207,461,cs),
(295,670,ls),
(300,684,o),
(302,693,o),
(302,696,cs),
(302,714,o),
(290,723,o),
(265,723,cs),
(234,723,o),
(211,709,o),
(207,681,cs),
(174,461,ls),
(173,457,o),
(180,455,o),
(189,455,cs)
);
},
{
closed = 1;
nodes = (
(356,455,o),
(366,457,o),
(368,461,cs),
(456,670,ls),
(461,684,o),
(463,693,o),
(463,696,cs),
(463,714,o),
(451,723,o),
(426,723,cs),
(396,723,o),
(373,709,o),
(368,681,cs),
(335,461,ls),
(334,457,o),
(341,455,o),
(350,455,cs)
);
}
);
width = 367;
},
{
layerId = "2438E31C-45B5-47A7-9B3D-1A0FEFB47671";
shapes = (
{
closed = 1;
nodes = (
(210,455,o),
(219,456,o),
(221,461,cs),
(323,660,ls),
(329,673,o),
(330,682,o),
(330,688,cs),
(330,711,o),
(312,723,o),
(275,723,cs),
(236,723,o),
(203,708,o),
(199,674,cs),
(175,461,ls),
(174,456,o),
(184,455,o),
(196,455,cs)
);
},
{
closed = 1;
nodes = (
(405,455,o),
(414,456,o),
(417,461,cs),
(518,660,ls),
(524,673,o),
(525,682,o),
(525,688,cs),
(525,711,o),
(507,723,o),
(470,723,cs),
(431,723,o),
(398,708,o),
(395,674,cs),
(370,461,ls),
(370,456,o),
(379,455,o),
(392,455,cs)
);
}
);
width = 409;
},
{
layerId = "7904EAEE-2B64-409E-B923-0048172372BE";
shapes = (
{
closed = 1;
nodes = (
(190,455,o),
(201,457,o),
(202,461,cs),
(287,678,ls),
(292,689,o),
(293,694,o),
(293,699,cs),
(293,715,o),
(283,723,o),
(262,723,cs),
(234,723,o),
(214,710,o),
(209,684,cs),
(173,461,ls),
(173,457,o),
(179,455,o),
(187,455,cs)
);
},
{
closed = 1;
nodes = (
(351,455,o),
(362,457,o),
(363,461,cs),
(448,678,ls),
(453,689,o),
(454,694,o),
(454,699,cs),
(454,715,o),
(444,723,o),
(423,723,cs),
(395,723,o),
(375,710,o),
(371,684,cs),
(334,461,ls),
(334,457,o),
(340,455,o),
(348,455,cs)
);
}
);
width = 365;
},
{
layerId = "E06D8587-1A71-4EC2-BD94-397D882F5FC1";
shapes = (
{
closed = 1;
nodes = (
(156,455,o),
(164,457,o),
(166,461,cs),
(236,670,ls),
(240,684,o),
(242,693,o),
(242,696,cs),
(242,714,o),
(232,723,o),
(212,723,cs),
(188,723,o),
(169,709,o),
(166,681,cs),
(139,461,ls),
(139,457,o),
(144,455,o),
(151,455,cs)
);
},
{
closed = 1;
nodes = (
(285,455,o),
(293,457,o),
(294,461,cs),
(365,670,ls),
(369,684,o),
(371,693,o),
(371,696,cs),
(371,714,o),
(361,723,o),
(341,723,cs),
(316,723,o),
(298,709,o),
(294,681,cs),
(268,461,ls),
(268,457,o),
(273,455,o),
(280,455,cs)
);
}
);
width = 294;
},
{
layerId = "8F7CDE40-C368-4484-AA71-76B7ABD5539F";
shapes = (
{
closed = 1;
nodes = (
(234,455,o),
(246,457,o),
(249,461,cs),
(354,670,ls),
(360,684,o),
(363,693,o),
(363,696,cs),
(363,714,o),
(348,723,o),
(318,723,cs),
(281,723,o),
(254,709,o),
(249,681,cs),
(208,461,ls),
(208,457,o),
(216,455,o),
(227,455,cs)
);
},
{
closed = 1;
nodes = (
(427,455,o),
(439,457,o),
(442,461,cs),
(547,670,ls),
(554,684,o),
(556,693,o),
(556,696,cs),
(556,714,o),
(542,723,o),
(512,723,cs),
(475,723,o),
(447,709,o),
(442,681,cs),
(402,461,ls),
(401,457,o),
(410,455,o),
(420,455,cs)
);
}
);
width = 441;
},
{
layerId = "997BDFA1-EC67-4686-8CFE-E56BDBE179FE";
shapes = (
{
closed = 1;
nodes = (
(195,455,o),
(205,457,o),
(207,461,cs),
(295,670,ls),
(300,684,o),
(302,693,o),
(302,696,cs),
(302,714,o),
(290,723,o),
(265,723,cs),
(234,723,o),
(211,709,o),
(207,681,cs),
(174,461,ls),
(173,457,o),
(180,455,o),
(189,455,cs)
);
},
{
closed = 1;
nodes = (
(356,455,o),
(366,457,o),
(368,461,cs),
(456,670,ls),
(461,684,o),
(463,693,o),
(463,696,cs),
(463,714,o),
(451,723,o),
(426,723,cs),
(396,723,o),
(373,709,o),
(368,681,cs),
(335,461,ls),
(334,457,o),
(341,455,o),
(350,455,cs)
);
}
);
width = 367;
}
);
metricLeft = quotesingle;
metricRight = quotesingle;
unicode = 34;
}
{
glyphname = numbersign;
layers = (
{
layerId = master01;
shapes = (
{
closed = 1;
nodes = (
(165,3,l),
(244,196,l),
(358,196,l),
(281,3,l),
(324,3,l),
(403,196,l),
(498,196,l),
(519,244,l),
(421,244,l),
(489,408,l),
(589,408,l),
(609,457,l),
(509,457,l),
(580,630,l),
(532,630,l),
(463,457,l),
(350,457,l),
(421,630,l),
(374,630,l),
(304,457,l),
(198,457,l),
(175,408,l),
(284,408,l),
(218,244,l),
(112,244,l),
(91,196,l),
(200,196,l),
(123,3,l)
);
},
{
closed = 1;
nodes = (
(330,408,l),
(443,408,l),
(376,244,l),
(262,244,l)
);
}
);
width = 500;
},
{
layerId = "2438E31C-45B5-47A7-9B3D-1A0FEFB47671";
shapes = (
{
closed = 1;
nodes = (
(115,5,l),
(195,186,l),
(283,186,l),
(203,5,l),
(269,5,l),
(349,186,l),
(454,186,l),
(465,251,l),
(378,251,l),
(440,392,l),
(544,392,l),
(555,456,l),
(468,456,l),
(536,610,l),
(470,610,l),
(402,456,l),
(314,456,l),
(382,610,l),
(316,610,l),
(249,456,l),
(137,456,l),
(125,392,l),
(220,392,l),
(158,251,l),
(46,251,l),
(35,186,l),
(129,186,l),
(49,5,l)
);
},
{
closed = 1;
nodes = (
(286,392,l),
(374,392,l),
(312,251,l),
(224,251,l)
);
}
);
width = 495;
},
{
layerId = "7904EAEE-2B64-409E-B923-0048172372BE";
shapes = (
{
closed = 1;
nodes = (
(182,2,l),
(261,199,l),
(383,199,l),
(307,2,l),
(343,2,l),
(421,199,l),
(513,199,l),
(537,242,l),
(435,242,l),
(505,414,l),
(604,414,l),
(627,458,l),
(522,458,l),
(595,637,l),
(553,637,l),
(483,458,l),
(362,458,l),
(434,637,l),
(394,637,l),
(323,458,l),
(219,458,l),
(191,414,l),
(306,414,l),
(238,242,l),
(134,242,l),
(109,199,l),
(224,199,l),
(148,2,l)
);
},
{
closed = 1;
nodes = (
(345,414,l),
(466,414,l),
(397,242,l),
(275,242,l)
);
}
);
width = 502;
},
{
layerId = "E06D8587-1A71-4EC2-BD94-397D882F5FC1";
shapes = (
{
closed = 1;
nodes = (
(134,3,l),
(197,192,l),
(280,192,l),
(217,3,l),
(259,3,l),
(323,192,l),
(402,192,l),
(416,247,l),
(341,247,l),
(394,403,l),
(475,403,l),
(488,457,l),
(412,457,l),
(468,623,l),
(424,623,l),
(368,457,l),
(287,457,l),
(342,623,l),
(298,623,l),
(243,457,l),
(157,457,l),
(142,403,l),
(225,403,l),
(173,247,l),
(86,247,l),
(73,192,l),
(155,192,l),
(92,3,l)
);
},
{
closed = 1;
nodes = (
(268,403,l),
(350,403,l),
(298,247,l),
(216,247,l)
);
}
);
width = 400;
},
{
layerId = "8F7CDE40-C368-4484-AA71-76B7ABD5539F";
shapes = (
{
closed = 1;
nodes = (
(196,2,l),
(291,199,l),
(436,199,l),
(344,2,l),
(389,2,l),
(483,199,l),
(594,199,l),
(623,242,l),
(500,242,l),
(584,414,l),
(703,414,l),
(730,458,l),
(605,458,l),
(692,637,l),
(641,637,l),
(558,458,l),
(414,458,l),
(500,637,l),
(450,637,l),
(365,458,l),
(240,458,l),
(208,414,l),
(344,414,l),
(263,242,l),
(138,242,l),
(109,199,l),
(246,199,l),
(154,2,l)
);
},
{
closed = 1;
nodes = (
(392,414,l),
(536,414,l),
(454,242,l),
(309,242,l)
);
}
);
width = 600;
},
{
layerId = "997BDFA1-EC67-4686-8CFE-E56BDBE179FE";
shapes = (
{
closed = 1;
nodes = (
(165,3,l),
(244,196,l),
(358,196,l),
(281,3,l),
(324,3,l),
(403,196,l),
(498,196,l),
(519,244,l),
(421,244,l),
(489,408,l),
(589,408,l),
(609,457,l),
(509,457,l),
(580,630,l),
(532,630,l),
(463,457,l),
(350,457,l),
(421,630,l),
(374,630,l),
(304,457,l),
(198,457,l),
(175,408,l),
(284,408,l),
(218,244,l),
(112,244,l),
(91,196,l),
(200,196,l),
(123,3,l)
);
},
{
closed = 1;
nodes = (
(330,408,l),
(443,408,l),
(376,244,l),
(262,244,l)
);
}
);
width = 500;
}
);
unicode = 35;
}
{
glyphname = dollar;
layers = (
{
layerId = master01;
shapes = (
{
closed = 1;
nodes = (
(166,-103,o),
(173,-101,o),
(175,-95,cs),
(202,-1,l),
(324,7,o),
(428,122,o),
(428,239,cs),
(428,310,o),
(387,341,o),
(310,369,c),
(379,607,l),
(421,598,o),
(444,571,o),
(444,529,cs),
(444,501,ls),
(444,496,o),
(449,494,o),
(459,494,cs),
(470,494,o),
(475,497,o),
(477,502,cs),
(488,548,o),
(492,589,o),
(493,623,c),
(488,623,o),
(472,625,o),
(445,631,cs),
(417,637,o),
(399,640,o),
(389,640,c),
(413,724,l),
(413,729,o),
(409,731,o),
(396,731,cs),
(384,731,o),
(376,729,o),
(375,724,cs),
(351,641,l),
(237,636,o),
(130,548,o),
(130,433,cs),
(130,364,o),
(170,333,o),
(250,295,c),
(175,35,l),
(108,47,o),
(74,85,o),
(74,150,cs),
(74,156,o),
(75,165,o),
(77,176,c),
(77,181,o),
(73,184,o),
(63,184,cs),
(53,184,o),
(47,181,o),
(45,174,cs),
(34,137,o),
(29,93,o),
(29,43,c),
(79,15,o),
(124,0,o),
(164,-1,c),
(137,-95,l),
(137,-101,o),
(141,-103,o),
(154,-103,cs)
);
},
{
closed = 1;
nodes = (
(284,279,l),
(328,255,o),
(351,224,o),
(351,187,cs),
(351,112,o),
(288,33,o),
(211,32,c)
);
},
{
closed = 1;
nodes = (
(225,402,o),
(199,429,o),
(199,464,cs),
(199,544,o),
(260,610,o),
(342,610,c),
(276,382,l)
);
}
);
width = 452;
},
{
layerId = "2438E31C-45B5-47A7-9B3D-1A0FEFB47671";
shapes = (
{
closed = 1;
nodes = (
(193,-81,o),
(204,-78,o),
(205,-73,cs),
(223,-8,l),
(375,5,o),
(467,136,o),
(467,251,cs),
(467,327,o),
(417,361,o),
(329,389,c),
(387,606,l),
(429,594,o),
(450,566,o),
(452,522,cs),
(453,502,ls),
(453,498,o),
(461,495,o),
(476,495,cs),
(491,495,o),
(498,497,o),
(499,503,cs),
(507,552,o),
(511,594,o),
(511,636,c),
(490,636,o),
(475,638,o),
(463,641,cs),
(452,644,o),
(430,647,o),
(399,649,c),
(417,716,l),
(417,721,o),
(409,724,o),
(389,724,cs),
(368,724,o),
(357,721,o),
(356,716,cs),
(338,649,l),
(216,635,o),
(119,539,o),
(119,422,cs),
(119,347,o),
(156,320,o),
(240,283,c),
(175,43,l),
(126,58,o),
(95,100,o),
(95,159,cs),
(95,167,o),
(95,175,o),
(97,185,c),
(97,191,o),
(92,195,o),
(77,195,cs),
(62,195,o),
(53,191,o),
(51,183,cs),
(38,129,o),
(37,93,o),
(37,37,c),
(102,5,o),
(123,-4,o),
(162,-7,c),
(144,-73,l),
(144,-79,o),
(152,-81,o),
(173,-81,cs)
);
},
{
closed = 1;
nodes = (
(295,260,l),
(334,241,o),
(354,215,o),
(354,183,cs),
(354,119,o),
(305,44,o),
(235,36,c)
);
},
{
closed = 1;
nodes = (
(241,425,o),
(225,447,o),
(225,475,cs),
(225,527,o),
(270,595,o),
(327,608,c),
(274,410,l)
);
}
);
width = 485;
},
{
layerId = "7904EAEE-2B64-409E-B923-0048172372BE";
shapes = (
{
closed = 1;
nodes = (
(157,-110,o),
(163,-108,o),
(165,-103,cs),
(195,0,l),
(307,8,o),
(416,117,o),
(416,235,cs),
(416,304,o),
(376,334,o),
(304,362,c),
(376,607,l),
(419,599,o),
(441,573,o),
(441,531,cs),
(441,501,ls),
(441,496,o),
(445,493,o),
(454,493,cs),
(463,493,o),
(467,497,o),
(469,502,cs),
(482,546,o),
(485,587,o),
(487,618,c),
(477,620,o),
(465,622,o),
(439,628,cs),
(412,634,o),
(394,637,o),
(385,637,c),
(412,727,l),
(412,731,o),
(409,734,o),
(399,734,cs),
(389,734,o),
(383,731,o),
(381,727,cs),
(355,638,l),
(244,636,o),
(134,551,o),
(134,437,cs),
(134,369,o),
(174,338,o),
(254,299,c),
(175,32,l),
(102,43,o),
(67,81,o),
(67,147,cs),
(67,152,o),
(68,161,o),
(70,173,c),
(70,178,o),
(67,180,o),
(59,180,cs),
(50,180,o),
(45,177,o),
(43,171,cs),
(32,140,o),
(27,93,o),
(27,45,c),
(71,19,o),
(124,2,o),
(165,0,c),
(135,-103,l),
(135,-108,o),
(137,-110,o),
(147,-110,cs)
);
},
{
closed = 1;
nodes = (
(280,286,l),
(326,260,o),
(350,227,o),
(350,188,cs),
(350,109,o),
(282,30,o),
(204,30,c)
);
},
{
closed = 1;
nodes = (
(219,394,o),
(190,423,o),
(190,460,cs),
(190,549,o),
(257,610,o),
(347,611,c),
(276,373,l)
);
}
);
width = 441;
},
{
layerId = "E06D8587-1A71-4EC2-BD94-397D882F5FC1";
shapes = (
{
closed = 1;
nodes = (
(139,-96,o),
(146,-93,o),
(147,-88,cs),
(166,-3,l),
(271,6,o),
(353,125,o),
(353,243,cs),
(353,315,o),
(317,348,o),
(252,376,c),
(303,606,l),
(337,596,o),
(355,569,o),
(355,526,cs),
(355,501,ls),
(355,497,o),
(361,494,o),
(371,494,cs),
(380,494,o),
(385,497,o),
(386,503,cs),
(394,547,o),
(397,591,o),
(398,627,c),
(390,627,o),
(379,629,o),
(359,635,cs),
(344,639,o),
(325,643,o),
(312,643,c),
(329,721,l),
(329,727,o),
(324,729,o),
(312,729,cs),
(301,729,o),
(292,727,o),
(291,721,cs),
(273,644,l),
(180,635,o),
(98,546,o),
(98,429,cs),
(98,358,o),
(128,329,o),
(194,292,c),
(137,38,l),
(89,51,o),
(64,91,o),
(64,153,cs),
(64,159,o),
(64,168,o),
(65,179,c),
(65,185,o),
(62,188,o),
(53,188,cs),
(42,188,o),
(37,184,o),
(36,178,cs),
(26,135,o),
(23,96,o),
(23,41,c),
(68,12,o),
(96,-1,o),
(128,-3,c),
(109,-88,l),
(109,-93,o),
(114,-96,o),
(127,-96,cs)
);
},
{
closed = 1;
nodes = (
(228,273,l),
(262,250,o),
(279,221,o),
(279,186,cs),
(279,113,o),
(232,36,o),
(174,33,c)
);
},
{
closed = 1;
nodes = (
(183,410,o),
(165,436,o),
(165,468,cs),
(165,538,o),
(208,606,o),
(266,609,c),
(217,391,l)
);
}
);
width = 365;
},
{
layerId = "8F7CDE40-C368-4484-AA71-76B7ABD5539F";
shapes = (
{
closed = 1;
nodes = (
(193,-110,o),
(200,-108,o),
(202,-103,cs),
(238,0,l),
(376,8,o),
(503,119,o),
(503,235,cs),
(503,304,o),
(457,334,o),
(368,362,c),
(455,607,l),
(506,599,o),
(533,573,o),
(533,531,cs),
(533,501,ls),
(533,495,o),
(538,493,o),
(548,493,cs),
(559,493,o),
(565,497,o),
(567,502,cs),
(582,549,o),
(586,587,o),
(588,618,c),
(585,618,o),
(564,622,o),
(531,628,cs),
(491,635,o),
(473,637,o),
(465,637,c),
(497,727,l),
(497,731,o),
(493,734,o),
(481,734,cs),
(467,734,o),
(460,731,o),
(459,727,cs),
(428,638,l),
(293,636,o),
(163,551,o),
(163,437,cs),
(163,369,o),
(211,338,o),
(307,299,c),
(212,32,l),
(126,43,o),
(84,80,o),
(84,147,cs),
(84,152,o),
(86,161,o),
(89,173,c),
(89,178,o),
(84,180,o),
(74,180,cs),
(64,180,o),
(57,177,o),
(54,171,cs),
(42,140,o),
(35,91,o),
(35,45,c),
(89,19,o),
(151,2,o),
(200,0,c),
(165,-103,l),
(165,-108,o),
(168,-110,o),
(181,-110,cs)
);
},
{
closed = 1;
nodes = (
(339,286,l),
(394,260,o),
(422,228,o),
(422,188,cs),
(422,110,o),
(343,29,o),
(249,30,c)
);
},
{
closed = 1;
nodes = (
(267,394,o),
(233,423,o),
(233,460,cs),
(233,550,o),
(312,615,o),
(417,611,c),
(334,373,l)
);
}
);
width = 539;
},
{
layerId = "997BDFA1-EC67-4686-8CFE-E56BDBE179FE";
shapes = (
{
closed = 1;
nodes = (
(166,-103,o),
(173,-101,o),
(175,-95,cs),
(202,-1,l),
(324,7,o),
(428,122,o),
(428,239,cs),
(428,310,o),
(387,341,o),
(310,369,c),
(379,607,l),
(421,598,o),
(444,571,o),
(444,529,cs),
(444,501,ls),
(444,496,o),
(449,494,o),
(459,494,cs),
(470,494,o),
(475,497,o),
(477,502,cs),
(488,548,o),
(492,589,o),
(493,623,c),
(488,623,o),
(472,625,o),
(445,631,cs),
(417,637,o),
(399,640,o),
(389,640,c),
(413,724,l),
(413,729,o),
(409,731,o),
(396,731,cs),
(384,731,o),
(376,729,o),
(375,724,cs),
(351,641,l),
(237,636,o),
(130,548,o),
(130,433,cs),
(130,364,o),
(170,333,o),
(250,295,c),
(175,35,l),
(108,47,o),
(74,85,o),
(74,150,cs),
(74,156,o),
(75,165,o),
(77,176,c),
(77,181,o),
(73,184,o),
(63,184,cs),
(53,184,o),
(47,181,o),
(45,174,cs),
(34,137,o),
(29,93,o),
(29,43,c),
(79,15,o),
(124,0,o),
(164,-1,c),
(137,-95,l),
(137,-101,o),
(141,-103,o),
(154,-103,cs)
);
},
{
closed = 1;
nodes = (
(284,279,l),
(328,255,o),
(351,224,o),
(351,187,cs),
(351,112,o),
(288,33,o),
(211,32,c)
);
},
{
closed = 1;
nodes = (
(225,402,o),
(199,429,o),
(199,464,cs),
(199,544,o),
(260,610,o),
(342,610,c),
(276,382,l)
);
}
);
width = 452;
}
);
unicode = 36;
}
{
glyphname = percent;
layers = (
{
layerId = master01;
shapes = (
{
closed = 1;
nodes = (
(496,-130,o),
(515,-127,o),
(520,-120,cs),
(1721,1421,ls),
(1725,1426,o),
(1712,1430,o),
(1689,1430,cs),
(1666,1430,o),
(1651,1427,o),
(1646,1421,cs),
(1502,1248,o),
(1337,1165,o),
(1158,1165,cs),
(1115,1165,o),
(1068,1174,o),
(1018,1191,c),
(992,1302,o),
(914,1357,o),
(783,1357,cs),
(550,1357,o),
(288,1072,o),
(288,848,cs),
(288,673,o),
(375,560,o),
(564,560,cs),
(806,560,o),
(1026,876,o),
(1026,1133,c),
(1073,1118,o),
(1121,1111,o),
(1171,1111,cs),
(1253,1111,o),
(1379,1145,o),
(1506,1224,c),
(1473,1224,l),
(421,-120,ls),
(416,-126,o),
(431,-130,o),
(464,-130,cs)
);
},
{
closed = 1;
nodes = (
(467,619,o),
(422,669,o),
(422,770,cs),
(422,915,o),
(632,1296,o),
(819,1296,c),
(842,1243,o),
(884,1200,o),
(944,1167,c),
(945,1154,o),
(946,1141,o),
(946,1128,cs),
(946,927,o),
(760,619,o),
(558,619,cs)
);
},
{
closed = 1;
nodes = (
(1621,-41,o),
(1842,279,o),
(1842,519,cs),
(1842,668,o),
(1758,757,o),
(1592,757,cs),
(1368,757,o),
(1104,469,o),
(1104,247,cs),
(1104,75,o),
(1191,-41,o),
(1379,-41,cs)
);
},
{
closed = 1;
nodes = (
(1283,18,o),
(1238,68,o),
(1238,169,cs),
(1238,327,o),
(1467,696,o),
(1631,696,cs),
(1718,696,o),
(1762,642,o),
(1762,535,cs),
(1762,331,o),
(1579,18,o),
(1373,18,cs)
);
}
);
width = 1923;
},
{
layerId = "2438E31C-45B5-47A7-9B3D-1A0FEFB47671";
shapes = (
{
closed = 1;
nodes = (
(401,-153,o),
(423,-146,o),
(444,-121,cs),
(1702,1421,ls),
(1712,1433,o),
(1682,1436,o),
(1635,1436,cs),
(1591,1436,o),
(1577,1434,o),
(1565,1421,cs),
(1416,1259,o),
(1253,1178,o),
(1077,1178,cs),
(1040,1178,o),
(1006,1182,o),
(973,1190,c),
(943,1297,o),
(860,1350,o),
(725,1350,cs),
(475,1350,o),
(195,1082,o),
(195,848,cs),
(195,663,o),
(303,539,o),
(498,539,cs),
(786,539,o),
(982,877,o),
(985,1102,c),
(1024,1095,o),
(1059,1092,o),
(1092,1092,cs),
(1156,1092,o),
(1294,1116,o),
(1324,1145,c),
(1338,1170,l),
(279,-121,ls),
(265,-138,o),
(296,-153,o),
(350,-153,cs)
);
},
{
closed = 1;
nodes = (
(436,625,o),
(401,700,o),
(401,774,cs),
(401,908,o),
(601,1220,o),
(733,1257,c),
(764,1210,o),
(807,1161,o),
(870,1143,c),
(871,1134,o),
(872,1124,o),
(872,1116,cs),
(872,927,o),
(703,625,o),
(514,625,cs)
);
},
{
closed = 1;
nodes = (
(1579,-45,o),
(1778,303,o),
(1778,524,cs),
(1778,672,o),
(1682,766,o),
(1520,766,cs),
(1269,766,o),
(987,500,o),
(987,266,cs),
(987,79,o),
(1094,-45,o),
(1290,-45,cs)
);
},
{
closed = 1;
nodes = (
(1231,41,o),
(1194,115,o),
(1194,190,cs),
(1194,330,o),
(1418,680,o),
(1550,680,cs),
(1626,680,o),
(1665,613,o),
(1665,532,cs),
(1665,349,o),
(1493,41,o),
(1309,41,cs)
);
}
);
width = 1814;
},
{
layerId = "7904EAEE-2B64-409E-B923-0048172372BE";
shapes = (
{
closed = 1;
nodes = (
(528,-122,o),
(546,-121,o),
(545,-120,cs),
(1727,1421,ls),
(1729,1424,o),
(1722,1428,o),
(1707,1428,cs),
(1691,1428,o),
(1676,1425,o),
(1673,1421,cs),
(1531,1244,o),
(1365,1161,o),
(1185,1161,cs),
(1140,1161,o),
(1089,1171,o),
(1033,1191,c),
(1008,1304,o),
(932,1359,o),
(802,1359,cs),
(575,1359,o),
(319,1069,o),
(319,848,cs),
(319,676,o),
(399,567,o),
(586,567,cs),
(813,567,o),
(1041,876,o),
(1040,1143,c),
(1089,1126,o),
(1142,1117,o),
(1197,1117,cs),
(1285,1117,o),
(1407,1155,o),
(1567,1250,c),
(1518,1242,l),
(468,-120,ls),
(466,-122,o),
(476,-122,o),
(502,-122,cs)
);
},
{
closed = 1;
nodes = (
(477,617,o),
(429,659,o),
(429,769,cs),
(429,917,o),
(642,1309,o),
(848,1309,c),
(868,1254,o),
(910,1213,o),
(969,1175,c),
(970,1161,o),
(971,1147,o),
(971,1132,cs),
(971,927,o),
(779,617,o),
(573,617,cs)
);
},
{
closed = 1;
nodes = (
(1635,-40,o),
(1863,271,o),
(1863,517,cs),
(1863,667,o),
(1783,754,o),
(1616,754,cs),
(1401,754,o),
(1143,459,o),
(1143,241,cs),
(1143,74,o),
(1223,-40,o),
(1409,-40,cs)
);
},
{
closed = 1;
nodes = (
(1300,10,o),
(1253,52,o),
(1253,162,cs),
(1253,326,o),
(1483,701,o),
(1658,701,cs),
(1749,701,o),
(1794,652,o),
(1794,536,cs),
(1794,325,o),
(1608,10,o),
(1394,10,cs)
);
}
);
width = 1959;
},
{
layerId = "E06D8587-1A71-4EC2-BD94-397D882F5FC1";
shapes = (
{
closed = 1;
nodes = (
(401,-138,o),
(413,-132,o),
(421,-120,cs),
(1402,1421,ls),
(1407,1428,o),
(1391,1432,o),
(1364,1432,cs),
(1339,1432,o),
(1327,1429,o),
(1321,1421,cs),
(1204,1252,o),
(1074,1169,o),
(930,1169,cs),
(897,1169,o),
(864,1177,o),
(830,1191,c),
(809,1300,o),
(743,1355,o),
(638,1355,cs),
(446,1355,o),
(230,1075,o),
(230,848,cs),
(230,670,o),
(307,553,o),
(460,553,cs),
(669,553,o),
(837,876,o),
(838,1123,c),
(873,1110,o),
(910,1105,o),
(942,1105,cs),
(999,1105,o),
(1106,1135,o),
(1175,1198,c),
(1164,1206,l),
(320,-120,ls),
(314,-130,o),
(331,-138,o),
(364,-138,cs)
);
},
{
closed = 1;
nodes = (
(395,621,o),
(362,679,o),
(362,771,cs),
(362,913,o),
(527,1272,o),
(657,1283,c),
(679,1232,o),
(712,1187,o),
(761,1159,c),
(762,1148,o),
(763,1136,o),
(763,1124,cs),
(763,927,o),
(620,621,o),
(462,621,cs)
);
},
{
closed = 1;
nodes = (
(1314,-42,o),
(1484,287,o),
(1484,521,cs),
(1484,668,o),
(1412,760,o),
(1281,760,cs),
(1092,760,o),
(875,479,o),
(875,253,cs),
(875,76,o),
(952,-42,o),
(1104,-42,cs)
);
},
{
closed = 1;
nodes = (
(1040,26,o),
(1006,84,o),
(1006,176,cs),
(1006,328,o),
(1189,691,o),
(1309,691,cs),
(1374,691,o),
(1409,632,o),
(1409,534,cs),
(1409,337,o),
(1265,26,o),
(1108,26,cs)
);
}
);
width = 1548;
},
{
layerId = "8F7CDE40-C368-4484-AA71-76B7ABD5539F";
shapes = (
{
closed = 1;
nodes = (
(591,-122,o),
(617,-122,o),
(619,-120,cs),
(2040,1421,ls),
(2043,1424,o),
(2033,1428,o),
(2014,1428,cs),
(1993,1428,o),
(1975,1425,o),
(1971,1421,cs),
(1800,1244,o),
(1600,1161,o),
(1386,1161,cs),
(1333,1161,o),
(1272,1171,o),
(1206,1191,c),
(1175,1304,o),
(1085,1359,o),
(928,1359,cs),
(654,1359,o),
(346,1069,o),
(346,848,cs),
(346,676,o),
(443,567,o),
(668,567,cs),
(943,567,o),
(1215,876,o),
(1214,1143,c),
(1273,1126,o),
(1332,1117,o),
(1400,1117,cs),
(1507,1117,o),
(1652,1155,o),
(1837,1250,c),
(1782,1242,l),
(522,-120,ls),
(518,-122,o),
(531,-122,o),
(564,-122,cs)
);
},
{
closed = 1;
nodes = (
(539,617,o),
(482,659,o),
(482,769,cs),
(482,917,o),
(737,1320,o),
(981,1309,c),
(1005,1254,o),
(1056,1213,o),
(1127,1175,c),
(1128,1160,o),
(1129,1146,o),
(1129,1132,cs),
(1129,927,o),
(900,617,o),
(654,617,cs)
);
},
{
closed = 1;
nodes = (
(1928,-40,o),
(2200,271,o),
(2200,517,cs),
(2200,668,o),
(2104,754,o),
(1903,754,cs),
(1644,754,o),
(1333,459,o),
(1333,241,cs),
(1333,74,o),
(1430,-40,o),
(1654,-40,cs)
);
},
{
closed = 1;
nodes = (
(1526,10,o),
(1470,52,o),
(1470,162,cs),
(1470,326,o),
(1745,701,o),
(1953,701,cs),
(2062,701,o),
(2115,652,o),
(2115,536,cs),
(2115,325,o),
(1893,10,o),
(1638,10,cs)
);
}
);
width = 2298;
},
{
layerId = "997BDFA1-EC67-4686-8CFE-E56BDBE179FE";
shapes = (
{
closed = 1;
nodes = (
(496,-130,o),
(515,-127,o),
(520,-120,cs),
(1721,1421,ls),
(1725,1426,o),
(1712,1430,o),
(1689,1430,cs),
(1666,1430,o),
(1651,1427,o),
(1646,1421,cs),
(1502,1248,o),
(1337,1165,o),
(1158,1165,cs),
(1115,1165,o),
(1068,1174,o),
(1018,1191,c),
(992,1302,o),
(914,1357,o),
(783,1357,cs),
(550,1357,o),
(288,1072,o),
(288,848,cs),
(288,673,o),
(375,560,o),
(564,560,cs),
(806,560,o),
(1026,876,o),
(1026,1133,c),
(1073,1118,o),
(1121,1111,o),
(1171,1111,cs),
(1253,1111,o),
(1379,1145,o),
(1506,1224,c),
(1473,1224,l),
(421,-120,ls),
(416,-126,o),
(431,-130,o),
(464,-130,cs)
);
},
{
closed = 1;
nodes = (
(467,619,o),
(422,669,o),
(422,770,cs),
(422,915,o),
(632,1296,o),
(819,1296,c),
(842,1243,o),
(884,1200,o),
(944,1167,c),
(945,1154,o),
(946,1141,o),
(946,1128,cs),
(946,927,o),
(760,619,o),
(558,619,cs)
);
},
{
closed = 1;
nodes = (
(1621,-41,o),
(1842,279,o),
(1842,519,cs),
(1842,668,o),
(1758,757,o),
(1592,757,cs),
(1368,757,o),
(1104,469,o),
(1104,247,cs),
(1104,75,o),
(1191,-41,o),
(1379,-41,cs)
);
},
{
closed = 1;
nodes = (
(1283,18,o),
(1238,68,o),
(1238,169,cs),
(1238,327,o),
(1467,696,o),
(1631,696,cs),
(1718,696,o),
(1762,642,o),
(1762,535,cs),
(1762,331,o),
(1579,18,o),
(1373,18,cs)
);
}
);
width = 1923;
}
);
unicode = 37;
}
{
glyphname = ampersand;
layers = (
{
layerId = master01;
shapes = (
{
closed = 1;
nodes = (
(1093,-29,o),
(1303,442,o),
(1303,788,cs),
(1303,798,o),
(1303,809,o),
(1303,819,c),
(1355,779,o),
(1402,730,o),
(1432,688,cs),
(1452,661,o),
(1459,655,o),
(1466,655,cs),
(1473,655,o),
(1478,656,o),
(1494,663,cs),
(1518,673,o),
(1556,687,o),
(1597,700,cs),
(1638,713,o),
(1663,720,o),
(1685,725,cs),
(1722,733,o),
(1739,770,o),
(1739,829,cs),
(1739,907,o),
(1714,946,o),
(1663,946,cs),
(1634,946,o),
(1598,928,o),
(1598,892,c),
(1609,850,o),
(1614,823,o),
(1614,811,cs),
(1614,769,o),
(1601,748,o),
(1576,748,cs),
(1547,748,o),
(1505,775,o),
(1452,828,cs),
(1369,911,o),
(1304,963,o),
(1211,963,cs),
(1067,963,o),
(869,793,o),
(869,645,cs),
(869,590,o),
(898,563,o),
(957,563,cs),
(1002,563,o),
(1024,582,o),
(1024,621,cs),
(1024,634,o),
(1019,655,o),
(1009,684,cs),
(999,713,o),
(994,739,o),
(994,760,cs),
(994,814,o),
(1074,879,o),
(1146,879,cs),
(1189,879,o),
(1223,867,o),
(1250,844,c),
(1234,428,o),
(964,88,o),
(634,88,cs),
(430,88,o),
(279,216,o),
(279,459,c),
(451,578,o),
(609,689,o),
(736,791,cs),
(1094,1080,o),
(1264,1304,o),
(1264,1462,cs),
(1264,1536,o),
(1233,1573,o),
(1170,1573,cs),
(1128,1573,o),
(1088,1539,o),
(1088,1494,cs),
(1088,1474,o),
(1097,1459,o),
(1112,1440,cs),
(1127,1421,o),
(1135,1401,o),
(1135,1380,cs),
(1135,1237,o),
(898,1012,o),
(772,909,c),
(735,971,o),
(714,991,o),
(643,991,cs),
(491,991,o),
(357,861,o),
(276,760,cs),
(192,656,o),
(142,512,o),
(142,385,cs),
(142,129,o),
(318,-29,o),
(584,-29,cs)
);
},
{
closed = 1;
nodes = (
(296,616,o),
(337,716,o),
(373,769,cs),
(412,827,o),
(498,903,o),
(551,903,cs),
(596,903,o),
(619,882,o),
(619,840,cs),
(619,823,o),
(618,807,o),
(617,791,c),
(541,724,o),
(430,640,o),
(283,539,c)
);
}
);
width = 1577;
},
{
layerId = "2438E31C-45B5-47A7-9B3D-1A0FEFB47671";
shapes = (
{
closed = 1;
nodes = (
(1031,-29,o),
(1323,351,o),
(1323,678,cs),
(1323,708,o),
(1320,742,o),
(1313,780,c),
(1369,728,o),
(1408,685,o),
(1434,655,cs),
(1451,635,o),
(1468,625,o),
(1485,625,cs),
(1501,625,o),
(1523,629,o),
(1545,639,cs),
(1577,653,o),
(1596,660,o),
(1616,666,cs),
(1635,672,o),
(1700,690,o),
(1729,696,cs),
(1778,706,o),
(1796,758,o),
(1796,834,cs),
(1796,895,o),
(1758,973,o),
(1694,973,cs),
(1637,973,o),
(1581,946,o),
(1581,887,c),
(1606,832,o),
(1612,792,o),
(1612,776,cs),
(1612,750,o),
(1604,737,o),
(1591,737,cs),
(1579,737,o),
(1559,759,o),
(1530,803,cs),
(1451,923,o),
(1360,985,o),
(1253,985,cs),
(1075,985,o),
(872,818,o),
(872,651,cs),
(872,582,o),
(933,537,o),
(991,537,cs),
(1060,537,o),
(1104,585,o),
(1104,631,cs),
(1104,668,o),
(1068,694,o),
(1035,716,cs),
(1020,726,o),
(1012,740,o),
(1012,758,cs),
(1012,798,o),
(1104,842,o),
(1163,842,cs),
(1201,842,o),
(1229,834,o),
(1247,819,c),
(1237,488,o),
(983,154,o),
(651,154,cs),
(450,154,o),
(315,270,o),
(315,455,c),
(578,636,o),
(622,668,o),
(705,732,cs),
(939,914,o),
(1300,1213,o),
(1300,1432,cs),
(1300,1506,o),
(1256,1573,o),
(1178,1573,cs),
(1104,1573,o),
(1051,1521,o),
(1051,1464,cs),
(1051,1438,o),
(1060,1417,o),
(1075,1399,cs),
(1090,1381,o),
(1098,1366,o),
(1098,1354,cs),
(1098,1225,o),
(893,1001,o),
(778,911,c),
(763,970,o),
(708,1016,o),
(643,1016,cs),
(482,1016,o),
(346,897,o),
(260,798,cs),
(161,685,o),
(104,538,o),
(104,401,cs),
(104,114,o),
(322,-29,o),
(608,-29,cs)
);
},
{
closed = 1;
nodes = (
(318,595,o),
(341,671,o),
(383,759,cs),
(425,847,o),
(473,891,o),
(526,891,cs),
(560,891,o),
(590,859,o),
(590,817,cs),
(590,795,o),
(583,768,o),
(571,737,c),
(444,630,o),
(359,562,o),
(315,532,c)
);
}
);
width = 1656;
},
{
layerId = "7904EAEE-2B64-409E-B923-0048172372BE";
shapes = (
{
closed = 1;
nodes = (
(1114,-29,o),
(1296,472,o),
(1296,825,cs),
(1296,828,o),
(1297,831,o),
(1300,832,c),
(1350,796,o),
(1400,745,o),
(1431,699,cs),
(1451,669,o),
(1456,665,o),
(1460,665,cs),
(1464,665,o),
(1465,665,o),
(1479,671,cs),
(1500,680,o),
(1543,698,o),
(1591,713,cs),
(1639,728,o),
(1651,731,o),
(1670,735,cs),
(1703,742,o),
(1720,774,o),
(1720,827,cs),
(1720,911,o),
(1699,937,o),
(1653,937,cs),
(1633,937,o),
(1604,922,o),
(1604,894,c),
(1613,856,o),
(1615,833,o),
(1615,823,cs),
(1615,775,o),
(1600,752,o),
(1571,752,cs),
(1536,752,o),
(1487,780,o),
(1426,836,cs),
(1345,910,o),
(1285,956,o),
(1197,956,cs),
(1064,956,o),
(868,785,o),
(868,643,cs),
(868,593,o),
(886,572,o),
(946,572,cs),
(983,572,o),
(1011,581,o),
(1011,607,cs),
(1011,630,o),
(1008,642,o),
(1000,673,cs),
(991,710,o),
(988,739,o),
(988,761,cs),
(988,819,o),
(1064,891,o),
(1140,891,cs),
(1185,891,o),
(1221,878,o),
(1251,852,c),
(1233,408,o),
(958,66,o),
(628,66,cs),
(423,66,o),
(267,198,o),
(267,460,c),
(409,559,o),
(605,696,o),
(746,811,cs),
(1145,1136,o),
(1252,1334,o),
(1252,1472,cs),
(1252,1546,o),
(1225,1573,o),
(1167,1573,cs),
(1136,1573,o),
(1100,1545,o),
(1100,1504,cs),
(1100,1486,o),
(1109,1473,o),
(1124,1454,cs),
(1139,1434,o),
(1147,1413,o),
(1147,1389,cs),
(1147,1241,o),
(900,1016,o),
(770,908,c),
(726,971,o),
(716,983,o),
(643,983,cs),
(494,983,o),
(361,849,o),
(281,747,cs),
(202,646,o),
(155,503,o),
(155,380,cs),
(155,134,o),
(317,-29,o),
(576,-29,cs)
);
},
{
closed = 1;
nodes = (
(289,623,o),
(336,731,o),
(370,772,cs),
(409,819,o),
(506,907,o),
(559,907,cs),
(608,907,o),
(629,890,o),
(629,848,cs),
(629,832,o),
(630,820,o),
(632,809,c),
(573,755,o),
(454,666,o),
(272,541,c)
);
}
);
width = 1551;
},
{
layerId = "E06D8587-1A71-4EC2-BD94-397D882F5FC1";
shapes = (
{
closed = 1;
nodes = (
(866,-29,o),
(1061,412,o),
(1061,751,cs),
(1061,770,o),
(1060,788,o),
(1058,806,c),
(1101,763,o),
(1139,711,o),
(1159,678,cs),
(1176,650,o),
(1183,645,o),
(1192,645,cs),
(1199,645,o),
(1205,645,o),
(1224,655,cs),
(1244,666,o),
(1275,679,o),
(1298,689,cs),
(1322,699,o),
(1355,710,o),
(1375,715,cs),
(1409,724,o),
(1423,765,o),
(1423,831,cs),
(1423,903,o),
(1398,955,o),
(1353,955,cs),
(1321,955,o),
(1285,934,o),
(1285,890,c),
(1298,845,o),
(1303,813,o),
(1303,799,cs),
(1303,764,o),
(1295,744,o),
(1279,744,cs),
(1261,744,o),
(1235,770,o),
(1201,819,cs),
(1133,918,o),
(1072,970,o),
(996,970,cs),
(870,970,o),
(709,801,o),
(709,647,cs),
(709,587,o),
(742,554,o),
(790,554,cs),
(834,554,o),
(857,583,o),
(857,626,cs),
(857,643,o),
(843,668,o),
(829,695,cs),
(819,715,o),
(814,738,o),
(814,759,cs),
(814,809,o),
(883,867,o),
(935,867,cs),
(967,867,o),
(993,856,o),
(1012,836,c),
(1001,448,o),
(789,110,o),
(525,110,cs),
(364,110,o),
(248,234,o),
(248,458,c),
(398,582,o),
(501,678,o),
(591,771,cs),
(838,1026,o),
(1036,1275,o),
(1036,1452,cs),
(1036,1526,o),
(1006,1573,o),
(951,1573,cs),
(907,1573,o),
(870,1533,o),
(870,1484,cs),
(870,1463,o),
(878,1445,o),
(890,1427,cs),
(903,1407,o),
(908,1388,o),
(908,1371,cs),
(908,1234,o),
(729,1008,o),
(633,910,c),
(610,971,o),
(581,999,o),
(527,999,cs),
(402,999,o),
(295,873,o),
(228,772,cs),
(156,664,o),
(114,521,o),
(114,390,cs),
(114,124,o),
(268,-29,o),
(488,-29,cs)
);
},
{
closed = 1;
nodes = (
(257,609,o),
(284,701,o),
(314,765,cs),
(347,834,o),
(402,899,o),
(445,899,cs),
(478,899,o),
(498,873,o),
(498,832,cs),
(498,814,o),
(495,794,o),
(491,773,c),
(429,709,o),
(342,622,o),
(249,537,c)
);
}
);
width = 1294;
},
{
layerId = "8F7CDE40-C368-4484-AA71-76B7ABD5539F";
shapes = (
{
closed = 1;
nodes = (
(1320,-29,o),
(1545,472,o),
(1545,825,cs),
(1545,826,o),
(1546,830,o),
(1548,832,c),
(1609,795,o),
(1665,749,o),
(1705,698,cs),
(1728,672,o),
(1735,665,o),
(1740,665,cs),
(1747,665,o),
(1751,667,o),
(1764,671,cs),
(1792,680,o),
(1837,695,o),
(1896,711,cs),
(1954,727,o),
(1971,730,o),
(1995,735,cs),
(2035,742,o),
(2055,775,o),
(2055,827,cs),
(2055,911,o),
(2030,937,o),
(1973,937,cs),
(1947,937,o),
(1911,922,o),
(1911,894,c),
(1920,855,o),
(1925,833,o),
(1925,823,cs),
(1925,774,o),
(1907,752,o),
(1873,752,cs),
(1833,752,o),
(1775,780,o),
(1703,837,cs),
(1605,904,o),
(1536,956,o),
(1426,956,cs),
(1264,956,o),
(1029,785,o),
(1029,643,cs),
(1029,593,o),
(1054,572,o),
(1124,572,cs),
(1170,572,o),
(1191,581,o),
(1191,616,cs),
(1191,625,o),
(1195,642,o),
(1189,673,cs),
(1179,711,o),
(1174,740,o),
(1174,761,cs),
(1174,819,o),
(1265,891,o),
(1357,891,cs),
(1411,891,o),
(1453,878,o),
(1488,852,c),
(1467,408,o),
(1139,66,o),
(743,66,cs),
(496,66,o),
(310,198,o),
(310,460,c),
(504,574,o),
(717,700,o),
(881,811,cs),
(1350,1134,o),
(1492,1333,o),
(1492,1472,cs),
(1492,1546,o),
(1460,1573,o),
(1389,1573,cs),
(1349,1573,o),
(1306,1545,o),
(1306,1504,cs),
(1306,1485,o),
(1316,1473,o),
(1334,1453,cs),
(1351,1435,o),
(1362,1414,o),
(1362,1389,cs),
(1362,1240,o),
(1067,1016,o),
(911,908,c),
(860,971,o),
(847,983,o),
(759,983,cs),
(580,983,o),
(419,849,o),
(324,748,cs),
(228,648,o),
(170,503,o),
(170,380,cs),
(170,134,o),
(368,-29,o),
(680,-29,cs)
);
},
{
closed = 1;
nodes = (
(335,623,o),
(390,731,o),
(432,773,cs),
(477,820,o),
(594,907,o),
(657,907,cs),
(714,907,o),
(740,891,o),
(740,848,cs),
(740,832,o),
(741,820,o),
(743,809,c),
(653,739,o),
(518,658,o),
(317,541,c)
);
}
);
width = 1860;
},
{
layerId = "997BDFA1-EC67-4686-8CFE-E56BDBE179FE";
shapes = (
{
closed = 1;
nodes = (
(1093,-29,o),
(1303,442,o),
(1303,788,cs),
(1303,798,o),
(1303,809,o),
(1303,819,c),
(1355,779,o),
(1402,730,o),
(1432,688,cs),
(1452,661,o),
(1459,655,o),
(1466,655,cs),
(1473,655,o),
(1478,656,o),
(1494,663,cs),
(1518,673,o),
(1556,687,o),
(1597,700,cs),
(1638,713,o),
(1663,720,o),
(1685,725,cs),
(1722,733,o),
(1739,770,o),
(1739,829,cs),
(1739,907,o),
(1714,946,o),
(1663,946,cs),
(1634,946,o),
(1598,928,o),
(1598,892,c),
(1609,850,o),
(1614,823,o),
(1614,811,cs),
(1614,769,o),
(1601,748,o),
(1576,748,cs),
(1547,748,o),
(1505,775,o),
(1452,828,cs),
(1369,911,o),
(1304,963,o),
(1211,963,cs),
(1067,963,o),
(869,793,o),
(869,645,cs),
(869,590,o),
(898,563,o),
(957,563,cs),
(1002,563,o),
(1024,582,o),
(1024,621,cs),
(1024,634,o),
(1019,655,o),
(1009,684,cs),
(999,713,o),
(994,739,o),
(994,760,cs),
(994,814,o),
(1074,879,o),
(1146,879,cs),
(1189,879,o),
(1223,867,o),
(1250,844,c),
(1234,428,o),
(964,88,o),
(634,88,cs),
(430,88,o),
(279,216,o),
(279,459,c),
(451,578,o),
(609,689,o),
(736,791,cs),
(1094,1080,o),
(1264,1304,o),
(1264,1462,cs),
(1264,1536,o),
(1233,1573,o),
(1170,1573,cs),
(1128,1573,o),
(1088,1539,o),
(1088,1494,cs),
(1088,1474,o),
(1097,1459,o),
(1112,1440,cs),
(1127,1421,o),
(1135,1401,o),
(1135,1380,cs),
(1135,1237,o),
(898,1012,o),
(772,909,c),
(735,971,o),
(714,991,o),
(643,991,cs),
(491,991,o),
(357,861,o),
(276,760,cs),
(192,656,o),
(142,512,o),
(142,385,cs),
(142,129,o),
(318,-29,o),
(584,-29,cs)
);
},
{
closed = 1;
nodes = (
(296,616,o),
(337,716,o),
(373,769,cs),
(412,827,o),
(498,903,o),
(551,903,cs),
(596,903,o),
(619,882,o),
(619,840,cs),
(619,823,o),
(618,807,o),
(617,791,c),
(541,724,o),
(430,640,o),
(283,539,c)
);
}
);
width = 1577;
}
);
unicode = 38;
}
{
glyphname = quotesingle;
kernLeft = quotesingle;
layers = (
{
layerId = master01;
shapes = (
{
closed = 1;
nodes = (
(399,932,o),
(420,935,o),
(424,944,cs),
(604,1373,ls),
(615,1400,o),
(619,1419,o),
(619,1426,cs),
(619,1463,o),
(594,1481,o),
(543,1481,cs),
(480,1481,o),
(433,1453,o),
(424,1395,cs),
(356,944,ls),
(355,935,o),
(369,932,o),
(387,932,cs)
);
}
);
width = 422;
},
{
layerId = "2438E31C-45B5-47A7-9B3D-1A0FEFB47671";
shapes = (
{
closed = 1;
nodes = (
(430,932,o),
(448,934,o),
(453,944,cs),
(661,1352,ls),
(674,1378,o),
(676,1397,o),
(676,1409,cs),
(676,1457,o),
(638,1481,o),
(563,1481,cs),
(483,1481,o),
(416,1450,o),
(408,1380,cs),
(358,944,ls),
(357,934,o),
(376,932,o),
(402,932,cs)
);
}
);
width = 438;
},
{
layerId = "7904EAEE-2B64-409E-B923-0048172372BE";
shapes = (
{
closed = 1;
nodes = (
(389,932,o),
(411,935,o),
(414,944,cs),
(588,1388,ls),
(597,1411,o),
(600,1422,o),
(600,1432,cs),
(600,1465,o),
(579,1481,o),
(536,1481,cs),
(479,1481,o),
(438,1454,o),
(429,1400,cs),
(355,944,ls),
(354,935,o),
(367,932,o),
(382,932,cs)
);
}
);
width = 417;
},
{
layerId = "E06D8587-1A71-4EC2-BD94-397D882F5FC1";
shapes = (
{
closed = 1;
nodes = (
(319,932,o),
(336,935,o),
(339,944,cs),
(483,1373,ls),
(492,1400,o),
(495,1419,o),
(495,1426,cs),
(495,1463,o),
(475,1481,o),
(434,1481,cs),
(384,1481,o),
(346,1453,o),
(339,1395,cs),
(285,944,ls),
(284,935,o),
(295,932,o),
(310,932,cs)
);
}
);
width = 338;
},
{
layerId = "8F7CDE40-C368-4484-AA71-76B7ABD5539F";
shapes = (
{
closed = 1;
nodes = (
(479,932,o),
(504,935,o),
(509,944,cs),
(725,1373,ls),
(738,1400,o),
(743,1419,o),
(743,1426,cs),
(743,1463,o),
(713,1481,o),
(652,1481,cs),
(576,1481,o),
(520,1453,o),
(509,1395,cs),
(427,944,ls),
(426,935,o),
(443,932,o),
(464,932,cs)
);
}
);
width = 506;
},
{
layerId = "997BDFA1-EC67-4686-8CFE-E56BDBE179FE";
shapes = (
{
closed = 1;
nodes = (
(399,932,o),
(420,935,o),
(424,944,cs),
(604,1373,ls),
(615,1400,o),
(619,1419,o),
(619,1426,cs),
(619,1463,o),
(594,1481,o),
(543,1481,cs),
(480,1481,o),
(433,1453,o),
(424,1395,cs),
(356,944,ls),
(355,935,o),
(369,932,o),
(387,932,cs)
);
}
);
width = 422;
}
);
unicode = 39;
}
{
glyphname = parenleft;
kernRight = KO_parenleft;
layers = (
{
layerId = master01;
shapes = (
{
closed = 1;
nodes = (
(195,-173,o),
(206,-164,o),
(206,-154,cs),
(206,-148,o),
(205,-144,o),
(202,-140,cs),
(156,-73,o),
(135,-5,o),
(135,92,cs),
(135,306,o),
(246,562,o),
(448,715,cs),
(456,721,o),
(461,727,o),
(461,731,cs),
(461,741,o),
(456,747,o),
(444,747,cs),
(438,747,o),
(431,745,o),
(425,740,cs),
(246,616,o),
(68,361,o),
(68,110,cs),
(68,1,o),
(102,-83,o),
(168,-165,cs),
(172,-170,o),
(177,-173,o),
(183,-173,cs)
);
}
);
width = 330;
},
{
layerId = "2438E31C-45B5-47A7-9B3D-1A0FEFB47671";
shapes = (
{
closed = 1;
nodes = (
(188,-173,o),
(208,-160,o),
(208,-144,cs),
(208,-139,o),
(206,-134,o),
(204,-130,cs),
(168,-66,o),
(151,-1,o),
(151,92,cs),
(151,309,o),
(257,558,o),
(450,708,cs),
(458,714,o),
(463,719,o),
(463,724,cs),
(463,733,o),
(448,752,o),
(438,752,cs),
(431,752,o),
(425,750,o),
(418,746,cs),
(229,618,o),
(41,366,o),
(41,113,cs),
(41,-4,o),
(78,-83,o),
(150,-165,cs),
(155,-170,o),
(159,-173,o),
(166,-173,cs)
);
}
);
width = 338;
},
{
guides = (
{
pos = (218,767);
},
{
pos = (218,123);
}
);
layerId = "7904EAEE-2B64-409E-B923-0048172372BE";
shapes = (
{
closed = 1;
nodes = (
(194,-173,o),
(201,-166,o),
(201,-157,cs),
(201,-152,o),
(200,-147,o),
(198,-144,cs),
(148,-76,o),
(125,-6,o),
(125,92,cs),
(125,305,o),
(238,563,o),
(443,717,cs),
(452,724,o),
(457,729,o),
(457,733,cs),
(457,743,o),
(455,745,o),
(442,745,cs),
(436,745,o),
(429,743,o),
(423,738,cs),
(247,616,o),
(74,360,o),
(74,109,cs),
(74,2,o),
(105,-83,o),
(170,-165,cs),
(174,-170,o),
(179,-173,o),
(185,-173,cs)
);
}
);
width = 328;
},
{
layerId = "E06D8587-1A71-4EC2-BD94-397D882F5FC1";
shapes = (
{
closed = 1;
nodes = (
(154,-173,o),
(162,-164,o),
(162,-154,cs),
(162,-148,o),
(161,-144,o),
(159,-140,cs),
(122,-73,o),
(105,-5,o),
(105,92,cs),
(105,306,o),
(194,562,o),
(356,715,cs),
(362,721,o),
(366,727,o),
(366,731,cs),
(366,741,o),
(362,747,o),
(353,747,cs),
(348,747,o),
(343,745,o),
(337,740,cs),
(194,616,o),
(52,361,o),
(52,110,cs),
(52,1,o),
(79,-83,o),
(132,-165,cs),
(135,-170,o),
(139,-173,o),
(144,-173,cs)
);
}
);
width = 264;
},
{
layerId = "8F7CDE40-C368-4484-AA71-76B7ABD5539F";
shapes = (
{
closed = 1;
nodes = (
(231,-173,o),
(243,-164,o),
(243,-154,cs),
(243,-148,o),
(242,-144,o),
(239,-140,cs),
(184,-73,o),
(158,-5,o),
(158,92,cs),
(158,306,o),
(292,562,o),
(534,715,cs),
(544,721,o),
(550,727,o),
(550,731,cs),
(550,741,o),
(544,747,o),
(530,747,cs),
(521,747,o),
(514,745,o),
(506,740,cs),
(291,616,o),
(79,361,o),
(79,110,cs),
(79,1,o),
(118,-83,o),
(198,-165,cs),
(203,-170,o),
(208,-173,o),
(216,-173,cs)
);
}
);
width = 396;
},
{
layerId = "997BDFA1-EC67-4686-8CFE-E56BDBE179FE";
shapes = (
{
closed = 1;
nodes = (
(195,-173,o),
(206,-164,o),
(206,-154,cs),
(206,-148,o),
(205,-144,o),
(202,-140,cs),
(156,-73,o),
(135,-5,o),
(135,92,cs),
(135,306,o),
(246,562,o),
(448,715,cs),
(456,721,o),
(461,727,o),
(461,731,cs),
(461,741,o),
(456,747,o),
(444,747,cs),
(438,747,o),
(431,745,o),
(425,740,cs),
(246,616,o),
(68,361,o),
(68,110,cs),
(68,1,o),
(102,-83,o),
(168,-165,cs),
(172,-170,o),
(177,-173,o),
(183,-173,cs)
);
}
);
width = 330;
}
);
unicode = 40;
userData = {
KernOnName = parenleft;
KernOnSpecialSpacing = {
R = parenthesis;
};
};
}
{
glyphname = parenright;
kernLeft = parenright;
layers = (
{
layerId = master01;
shapes = (
{
closed = 1;
nodes = (
(-138,-355,o),
(-125,-350,o),
(-112,-341,cs),
(255,-87,o),
(618,435,o),
(618,949,cs),
(618,1173,o),
(549,1345,o),
(414,1513,cs),
(406,1523,o),
(396,1530,o),
(383,1530,cs),
(358,1530,o),
(337,1511,o),
(337,1490,cs),
(337,1479,o),
(339,1469,o),
(344,1462,cs),
(441,1326,o),
(482,1185,o),
(482,987,cs),
(482,548,o),
(253,26,o),
(-159,-289,cs),
(-176,-302,o),
(-186,-313,o),
(-186,-322,cs),
(-186,-342,o),
(-176,-355,o),
(-152,-355,cs)
);
}
);
width = 676;
},
{
layerId = "2438E31C-45B5-47A7-9B3D-1A0FEFB47671";
shapes = (
{
closed = 1;
nodes = (
(-81,-355,o),
(-68,-350,o),
(-55,-341,cs),
(329,-75,o),
(718,436,o),
(718,955,cs),
(718,1194,o),
(644,1358,o),
(494,1524,cs),
(485,1534,o),
(476,1541,o),
(463,1541,cs),
(416,1541,o),
(377,1513,o),
(377,1481,cs),
(377,1470,o),
(380,1460,o),
(384,1453,cs),
(459,1322,o),
(492,1189,o),
(492,998,cs),
(492,553,o),
(277,40,o),
(-119,-263,cs),
(-136,-276,o),
(-146,-287,o),
(-146,-296,cs),
(-146,-316,o),
(-116,-355,o),
(-95,-355,cs)
);
}
);
width = 692;
},
{
layerId = "7904EAEE-2B64-409E-B923-0048172372BE";
shapes = (
{
closed = 1;
nodes = (
(-156,-355,o),
(-143,-350,o),
(-130,-341,cs),
(230,-90,o),
(585,434,o),
(585,947,cs),
(585,1166,o),
(520,1342,o),
(388,1509,cs),
(380,1519,o),
(370,1526,o),
(357,1526,cs),
(339,1526,o),
(324,1510,o),
(324,1493,cs),
(324,1482,o),
(326,1472,o),
(331,1465,cs),
(433,1326,o),
(479,1183,o),
(479,983,cs),
(479,546,o),
(248,19,o),
(-172,-298,cs),
(-189,-311,o),
(-199,-322,o),
(-199,-331,cs),
(-199,-351,o),
(-195,-355,o),
(-170,-355,cs)
);
}
);
width = 671;
},
{
layerId = "E06D8587-1A71-4EC2-BD94-397D882F5FC1";
shapes = (
{
closed = 1;
nodes = (
(-110,-355,o),
(-100,-350,o),
(-90,-341,cs),
(204,-87,o),
(494,435,o),
(494,949,cs),
(494,1173,o),
(439,1345,o),
(331,1513,cs),
(325,1523,o),
(317,1530,o),
(306,1530,cs),
(286,1530,o),
(270,1511,o),
(270,1490,cs),
(270,1479,o),
(271,1469,o),
(275,1462,cs),
(353,1326,o),
(386,1185,o),
(386,987,cs),
(386,548,o),
(202,26,o),
(-127,-289,cs),
(-141,-302,o),
(-149,-313,o),
(-149,-322,cs),
(-149,-342,o),
(-141,-355,o),
(-122,-355,cs)
);
}
);
width = 541;
},
{
layerId = "8F7CDE40-C368-4484-AA71-76B7ABD5539F";
shapes = (
{
closed = 1;
nodes = (
(-166,-355,o),
(-150,-350,o),
(-134,-341,cs),
(306,-87,o),
(742,435,o),
(742,949,cs),
(742,1173,o),
(659,1345,o),
(497,1513,cs),
(487,1523,o),
(475,1530,o),
(460,1530,cs),
(430,1530,o),
(404,1511,o),
(404,1490,cs),
(404,1479,o),
(407,1469,o),
(413,1462,cs),
(529,1326,o),
(578,1185,o),
(578,987,cs),
(578,548,o),
(304,26,o),
(-191,-289,cs),
(-211,-302,o),
(-223,-313,o),
(-223,-322,cs),
(-223,-342,o),
(-211,-355,o),
(-182,-355,cs)
);
}
);
width = 811;
},
{
layerId = "997BDFA1-EC67-4686-8CFE-E56BDBE179FE";
shapes = (
{
closed = 1;
nodes = (
(-138,-355,o),
(-125,-350,o),
(-112,-341,cs),
(255,-87,o),
(618,435,o),
(618,949,cs),
(618,1173,o),
(549,1345,o),
(414,1513,cs),
(406,1523,o),
(396,1530,o),
(383,1530,cs),
(358,1530,o),
(337,1511,o),
(337,1490,cs),
(337,1479,o),
(339,1469,o),
(344,1462,cs),
(441,1326,o),
(482,1185,o),
(482,987,cs),
(482,548,o),
(253,26,o),
(-159,-289,cs),
(-176,-302,o),
(-186,-313,o),
(-186,-322,cs),
(-186,-342,o),
(-176,-355,o),
(-152,-355,cs)
);
}
);
width = 676;
}
);
unicode = 41;
}
{
glyphname = asterisk;
layers = (
{
layerId = master01;
shapes = (
{
closed = 1;
nodes = (
(365,694,l),
(426,982,l),
(642,841,l),
(691,903,l),
(476,1044,l),
(754,1187,l),
(731,1249,l),
(452,1105,l),
(512,1384,l),
(440,1384,l),
(381,1107,l),
(166,1248,l),
(117,1186,l),
(333,1044,l),
(60,904,l),
(83,842,l),
(354,981,l),
(293,694,l)
);
}
);
width = 807;
},
{
layerId = "2438E31C-45B5-47A7-9B3D-1A0FEFB47671";
shapes = (
{
closed = 1;
nodes = (
(387,641,l),
(446,915,l),
(657,776,l),
(733,872,l),
(522,1012,l),
(793,1151,l),
(758,1247,l),
(487,1108,l),
(547,1384,l),
(436,1384,l),
(377,1108,l),
(170,1243,l),
(94,1147,l),
(301,1012,l),
(35,874,l),
(70,778,l),
(336,915,l),
(276,641,l)
);
}
);
width = 827;
},
{
layerId = "7904EAEE-2B64-409E-B923-0048172372BE";
shapes = (
{
closed = 1;
nodes = (
(358,712,l),
(419,1004,l),
(637,863,l),
(677,913,l),
(461,1055,l),
(741,1199,l),
(722,1250,l),
(440,1104,l),
(500,1384,l),
(441,1384,l),
(382,1107,l),
(165,1250,l),
(125,1199,l),
(344,1055,l),
(68,914,l),
(87,863,l),
(360,1003,l),
(299,712,l)
);
}
);
width = 800;
},
{
layerId = "E06D8587-1A71-4EC2-BD94-397D882F5FC1";
shapes = (
{
closed = 1;
nodes = (
(308,676,l),
(356,960,l),
(527,819,l),
(575,893,l),
(405,1033,l),
(624,1175,l),
(602,1248,l),
(382,1106,l),
(430,1384,l),
(359,1384,l),
(312,1107,l),
(143,1246,l),
(95,1173,l),
(264,1033,l),
(48,894,l),
(70,821,l),
(285,959,l),
(237,676,l)
);
}
);
width = 667;
},
{
layerId = "8F7CDE40-C368-4484-AA71-76B7ABD5539F";
shapes = (
{
closed = 1;
nodes = (
(422,712,l),
(496,1004,l),
(757,863,l),
(807,913,l),
(547,1055,l),
(884,1199,l),
(860,1250,l),
(522,1104,l),
(594,1384,l),
(521,1384,l),
(450,1107,l),
(189,1250,l),
(139,1199,l),
(402,1055,l),
(72,914,l),
(96,863,l),
(423,1003,l),
(349,712,l)
);
}
);
width = 947;
},
{
layerId = "997BDFA1-EC67-4686-8CFE-E56BDBE179FE";
shapes = (
{
closed = 1;
nodes = (
(365,694,l),
(426,982,l),
(642,841,l),
(691,903,l),
(476,1044,l),
(754,1187,l),
(731,1249,l),
(452,1105,l),
(512,1384,l),
(440,1384,l),
(381,1107,l),
(166,1248,l),
(117,1186,l),
(333,1044,l),
(60,904,l),
(83,842,l),
(354,981,l),
(293,694,l)
);
}
);
width = 807;
}
);
unicode = 42;
}
{
glyphname = comma;
kernLeft = comma;
layers = (
{
layerId = master01;
shapes = (
{
closed = 1;
nodes = (
(51,-137,o),
(166,-55,o),
(166,51,cs),
(166,82,o),
(142,115,o),
(103,115,cs),
(65,115,o),
(31,87,o),
(31,53,cs),
(31,32,o),
(44,13,o),
(72,2,cs),
(81,-2,o),
(83,-13,o),
(79,-28,cs),
(64,-78,o),
(5,-134,o),
(-42,-165,cs),
(-49,-169,o),
(-38,-183,o),
(-32,-180,cs)
);
}
);
width = 254;
},
{
layerId = "2438E31C-45B5-47A7-9B3D-1A0FEFB47671";
shapes = (
{
closed = 1;
nodes = (
(48,-128,o),
(209,-28,o),
(209,82,cs),
(209,132,o),
(178,162,o),
(131,162,cs),
(87,162,o),
(47,128,o),
(47,88,cs),
(47,61,o),
(58,36,o),
(85,27,cs),
(93,24,o),
(95,17,o),
(92,7,cs),
(80,-28,o),
(42,-67,o),
(-17,-119,cs),
(-26,-127,o),
(-15,-153,o),
(-1,-148,cs)
);
}
);
width = 271;
},
{
layerId = "7904EAEE-2B64-409E-B923-0048172372BE";
shapes = (
{
closed = 1;
nodes = (
(52,-140,o),
(152,-63,o),
(152,41,cs),
(152,65,o),
(130,100,o),
(94,100,cs),
(58,100,o),
(26,74,o),
(26,41,cs),
(26,22,o),
(40,5,o),
(67,-6,cs),
(77,-10,o),
(80,-23,o),
(75,-40,cs),
(59,-94,o),
(-7,-157,o),
(-50,-180,cs),
(-56,-183,o),
(-48,-194,o),
(-42,-191,cs)
);
}
);
width = 248;
},
{
layerId = "E06D8587-1A71-4EC2-BD94-397D882F5FC1";
shapes = (
{
closed = 1;
nodes = (
(32,-134,o),
(139,-45,o),
(139,61,cs),
(139,99,o),
(118,131,o),
(84,131,cs),
(51,131,o),
(22,101,o),
(22,64,cs),
(22,42,o),
(32,21,o),
(54,10,cs),
(61,7,o),
(63,-3,o),
(60,-16,cs),
(50,-60,o),
(9,-111,o),
(-35,-151,cs),
(-42,-158,o),
(-31,-174,o),
(-22,-169,cs)
);
}
);
width = 209;
},
{
layerId = "8F7CDE40-C368-4484-AA71-76B7ABD5539F";
shapes = (
{
closed = 1;
nodes = (
(70,-140,o),
(193,-64,o),
(193,41,cs),
(193,65,o),
(167,100,o),
(122,100,cs),
(79,100,o),
(40,74,o),
(40,41,cs),
(40,22,o),
(57,5,o),
(89,-6,cs),
(101,-10,o),
(104,-23,o),
(98,-40,cs),
(79,-96,o),
(0,-158,o),
(-51,-181,cs),
(-57,-183,o),
(-50,-195,o),
(-45,-193,cs)
);
}
);
width = 298;
},
{
layerId = "997BDFA1-EC67-4686-8CFE-E56BDBE179FE";
shapes = (
{
closed = 1;
nodes = (
(51,-137,o),
(166,-55,o),
(166,51,cs),
(166,82,o),
(142,115,o),
(103,115,cs),
(65,115,o),
(31,87,o),
(31,53,cs),
(31,32,o),
(44,13,o),
(72,2,cs),
(81,-2,o),
(83,-13,o),
(79,-28,cs),
(64,-78,o),
(5,-134,o),
(-42,-165,cs),
(-49,-169,o),
(-38,-183,o),
(-32,-180,cs)
);
}
);
width = 254;
}
);
unicode = 44;
}
{
glyphname = hyphen;
kernLeft = hyphen;
kernRight = hyphen;
layers = (
{
layerId = master01;
shapes = (
{
closed = 1;
nodes = (
(366,231,ls),
(376,231,o),
(392,286,o),
(382,286,cs),
(102,286,ls),
(92,286,o),
(76,231,o),
(86,231,cs)
);
}
);
width = 404;
},
{
layerId = "2438E31C-45B5-47A7-9B3D-1A0FEFB47671";
shapes = (
{
closed = 1;
nodes = (
(366,226,ls),
(376,226,o),
(392,291,o),
(382,291,cs),
(102,291,ls),
(92,291,o),
(76,226,o),
(86,226,cs)
);
}
);
width = 404;
},
{
layerId = "7904EAEE-2B64-409E-B923-0048172372BE";
shapes = (
{
closed = 1;
nodes = (
(366,232,ls),
(375,232,o),
(392,285,o),
(382,285,cs),
(101,285,ls),
(91,285,o),
(76,232,o),
(85,232,cs)
);
}
);
width = 404;
},
{
layerId = "E06D8587-1A71-4EC2-BD94-397D882F5FC1";
shapes = (
{
closed = 1;
nodes = (
(305,231,ls),
(315,231,o),
(328,286,o),
(318,286,cs),
(98,286,ls),
(88,286,o),
(75,231,o),
(85,231,cs)
);
}
);
width = 343;
},
{
layerId = "8F7CDE40-C368-4484-AA71-76B7ABD5539F";
shapes = (
{
closed = 1;
nodes = (
(425,231,ls),
(435,231,o),
(454,286,o),
(444,286,cs),
(108,286,ls),
(98,286,o),
(79,231,o),
(89,231,cs)
);
}
);
width = 465;
},
{
layerId = "997BDFA1-EC67-4686-8CFE-E56BDBE179FE";
shapes = (
{
closed = 1;
nodes = (
(366,231,ls),
(376,231,o),
(392,286,o),
(382,286,cs),
(102,286,ls),
(92,286,o),
(76,231,o),
(86,231,cs)
);
}
);
width = 404;
}
);
unicode = 45;
userData = {
KernOnSpecialSpacing = {
L = NoKerning;
R = NoKerning;
};
};
}
{
glyphname = period;
layers = (
{
layerId = master01;
shapes = (
{
closed = 1;
nodes = (
(266,-25,o),
(315,18,o),
(315,86,cs),
(315,153,o),
(276,211,o),
(196,211,cs),
(121,211,o),
(72,156,o),
(72,92,cs),
(72,32,o),
(117,-25,o),
(191,-25,cs)
);
}
);
width = 520;
},
{
layerId = "2438E31C-45B5-47A7-9B3D-1A0FEFB47671";
shapes = (
{
closed = 1;
nodes = (
(337,-27,o),
(406,31,o),
(406,119,cs),
(406,209,o),
(338,279,o),
(256,279,cs),
(155,279,o),
(92,215,o),
(92,133,cs),
(92,27,o),
(163,-27,o),
(256,-27,cs)
);
}
);
width = 555;
},
{
layerId = "7904EAEE-2B64-409E-B923-0048172372BE";
shapes = (
{
closed = 1;
nodes = (
(242,-24,o),
(285,14,o),
(285,75,cs),
(285,134,o),
(255,188,o),
(176,188,cs),
(110,188,o),
(65,136,o),
(65,78,cs),
(65,34,o),
(102,-24,o),
(169,-24,cs)
);
}
);
width = 508;
},
{
layerId = "E06D8587-1A71-4EC2-BD94-397D882F5FC1";
shapes = (
{
closed = 1;
nodes = (
(230,-26,o),
(276,22,o),
(276,97,cs),
(276,171,o),
(235,234,o),
(170,234,cs),
(102,234,o),
(58,176,o),
(58,106,cs),
(58,30,o),
(103,-26,o),
(168,-26,cs)
);
}
);
width = 440;
},
{
layerId = "8F7CDE40-C368-4484-AA71-76B7ABD5539F";
shapes = (
{
closed = 1;
nodes = (
(302,-24,o),
(354,14,o),
(354,75,cs),
(354,135,o),
(317,188,o),
(222,188,cs),
(140,188,o),
(86,136,o),
(86,78,cs),
(86,34,o),
(131,-24,o),
(214,-24,cs)
);
}
);
width = 600;
},
{
layerId = "997BDFA1-EC67-4686-8CFE-E56BDBE179FE";
shapes = (
{
closed = 1;
nodes = (
(266,-25,o),
(315,18,o),
(315,86,cs),
(315,153,o),
(276,211,o),
(196,211,cs),
(121,211,o),
(72,156,o),
(72,92,cs),
(72,32,o),
(117,-25,o),
(191,-25,cs)
);
}
);
width = 520;
}
);
unicode = 46;
}
{
glyphname = slash;
layers = (
{
layerId = master01;
shapes = (
{
closed = 1;
nodes = (
(37,-13,o),
(42,-11,o),
(44,-6,cs),
(342,697,ls),
(344,700,o),
(344,703,o),
(344,706,cs),
(344,712,o),
(326,727,o),
(311,727,cs),
(301,727,o),
(296,724,o),
(294,719,cs),
(-4,16,ls),
(-5,14,o),
(-5,12,o),
(-5,9,cs),
(-5,2,o),
(13,-13,o),
(28,-13,cs)
);
}
);
width = 264;
},
{
layerId = "2438E31C-45B5-47A7-9B3D-1A0FEFB47671";
shapes = (
{
closed = 1;
nodes = (
(82,-12,o),
(85,-11,o),
(87,-8,cs),
(387,695,ls),
(388,697,o),
(388,699,o),
(388,702,cs),
(388,716,o),
(350,729,o),
(335,729,cs),
(329,729,o),
(326,727,o),
(324,723,cs),
(24,20,ls),
(23,18,o),
(23,17,o),
(23,14,cs),
(23,2,o),
(64,-12,o),
(76,-12,cs)
);
}
);
width = 258;
},
{
layerId = "7904EAEE-2B64-409E-B923-0048172372BE";
shapes = (
{
closed = 1;
nodes = (
(21,-14,o),
(27,-11,o),
(30,-5,cs),
(328,697,ls),
(329,701,o),
(329,704,o),
(329,707,cs),
(329,711,o),
(317,726,o),
(302,726,cs),
(292,726,o),
(286,723,o),
(284,718,cs),
(-13,15,ls),
(-14,13,o),
(-14,10,o),
(-14,8,cs),
(-14,2,o),
(-4,-14,o),
(12,-14,cs)
);
}
);
width = 266;
},
{
layerId = "E06D8587-1A71-4EC2-BD94-397D882F5FC1";
shapes = (
{
closed = 1;
nodes = (
(35,-13,o),
(39,-11,o),
(40,-7,cs),
(279,696,ls),
(280,699,o),
(280,702,o),
(280,704,cs),
(280,713,o),
(260,728,o),
(248,728,cs),
(241,728,o),
(237,725,o),
(236,721,cs),
(-3,17,ls),
(-3,16,o),
(-4,14,o),
(-4,11,cs),
(-4,2,o),
(19,-13,o),
(29,-13,cs)
);
}
);
width = 217;
},
{
layerId = "8F7CDE40-C368-4484-AA71-76B7ABD5539F";
shapes = (
{
closed = 1;
nodes = (
(39,-14,o),
(45,-11,o),
(48,-5,cs),
(405,697,ls),
(407,701,o),
(407,704,o),
(407,707,cs),
(407,711,o),
(392,726,o),
(374,726,cs),
(361,726,o),
(354,723,o),
(352,718,cs),
(-5,15,ls),
(-6,13,o),
(-6,9,o),
(-6,8,cs),
(-6,2,o),
(7,-14,o),
(26,-14,cs)
);
}
);
width = 312;
},
{
layerId = "997BDFA1-EC67-4686-8CFE-E56BDBE179FE";
shapes = (
{
closed = 1;
nodes = (
(37,-13,o),
(42,-11,o),
(44,-6,cs),
(342,697,ls),
(344,700,o),
(344,703,o),
(344,706,cs),
(344,712,o),
(326,727,o),
(311,727,cs),
(301,727,o),
(296,724,o),
(294,719,cs),
(-4,16,ls),
(-5,14,o),
(-5,12,o),
(-5,9,cs),
(-5,2,o),
(13,-13,o),
(28,-13,cs)
);
}
);
width = 264;
}
);
unicode = 47;
}
{
glyphname = zero;
layers = (
{
layerId = master01;
shapes = (
{
closed = 1;
nodes = (
(385,-8,o),
(488,321,o),
(488,477,cs),
(488,593,o),
(444,651,o),
(355,651,cs),
(147,651,o),
(45,322,o),
(45,165,cs),
(45,50,o),
(89,-8,o),
(178,-8,cs)
);
},
{
closed = 1;
nodes = (
(142,25,o),
(120,63,o),
(120,137,cs),
(120,233,o),
(206,619,o),
(348,619,cs),
(391,619,o),
(413,591,o),
(413,534,cs),
(413,362,o),
(317,25,o),
(185,25,cs)
);
}
);
width = 467;
},
{
layerId = "2438E31C-45B5-47A7-9B3D-1A0FEFB47671";
shapes = (
{
closed = 1;
nodes = (
(384,-8,o),
(497,294,o),
(497,468,cs),
(497,573,o),
(457,651,o),
(348,651,cs),
(128,651,o),
(21,341,o),
(21,168,cs),
(21,66,o),
(63,-8,o),
(171,-8,cs)
);
},
{
closed = 1;
nodes = (
(146,37,o),
(130,68,o),
(130,129,cs),
(130,220,o),
(210,607,o),
(337,607,cs),
(372,607,o),
(389,580,o),
(389,527,cs),
(389,372,o),
(304,37,o),
(178,37,cs)
);
}
);
width = 466;
},
{
layerId = "7904EAEE-2B64-409E-B923-0048172372BE";
shapes = (
{
closed = 1;
nodes = (
(385,-8,o),
(485,330,o),
(485,480,cs),
(485,599,o),
(439,651,o),
(357,651,cs),
(153,651,o),
(52,315,o),
(52,164,cs),
(52,44,o),
(97,-8,o),
(180,-8,cs)
);
},
{
closed = 1;
nodes = (
(140,21,o),
(116,61,o),
(116,140,cs),
(116,238,o),
(205,623,o),
(351,623,cs),
(398,623,o),
(421,595,o),
(421,537,cs),
(421,359,o),
(321,21,o),
(187,21,cs)
);
}
);
width = 467;
},
{
layerId = "E06D8587-1A71-4EC2-BD94-397D882F5FC1";
shapes = (
{
closed = 1;
nodes = (
(316,-8,o),
(402,312,o),
(402,474,cs),
(402,586,o),
(367,651,o),
(290,651,cs),
(120,651,o),
(36,329,o),
(36,166,cs),
(36,56,o),
(71,-8,o),
(148,-8,cs)
);
},
{
closed = 1;
nodes = (
(123,29,o),
(108,64,o),
(108,134,cs),
(108,229,o),
(175,615,o),
(283,615,cs),
(315,615,o),
(331,586,o),
(331,532,cs),
(331,365,o),
(258,29,o),
(154,29,cs)
);
}
);
width = 384;
},
{
layerId = "8F7CDE40-C368-4484-AA71-76B7ABD5539F";
shapes = (
{
closed = 1;
nodes = (
(450,-8,o),
(570,330,o),
(570,480,cs),
(570,599,o),
(516,651,o),
(417,651,cs),
(169,651,o),
(49,315,o),
(49,164,cs),
(49,44,o),
(104,-8,o),
(204,-8,cs)
);
},
{
closed = 1;
nodes = (
(156,21,o),
(128,61,o),
(128,140,cs),
(128,237,o),
(234,623,o),
(409,623,cs),
(464,623,o),
(492,595,o),
(492,537,cs),
(492,359,o),
(373,21,o),
(212,21,cs)
);
}
);
width = 549;
},
{
layerId = "997BDFA1-EC67-4686-8CFE-E56BDBE179FE";
shapes = (
{
closed = 1;
nodes = (
(360,-8,o),
(463,321,o),
(463,477,cs),
(463,593,o),
(419,651,o),
(330,651,cs),
(122,651,o),
(20,322,o),
(20,165,cs),
(20,50,o),
(64,-8,o),
(153,-8,cs)
);
},
{
closed = 1;
nodes = (
(117,25,o),
(95,63,o),
(95,137,cs),
(95,233,o),
(181,619,o),
(323,619,cs),
(366,619,o),
(388,591,o),
(388,534,cs),
(388,362,o),
(292,25,o),
(160,25,cs)
);
}
);
width = 467;
}
);
unicode = 48;
userData = {
KernOnSpecialSpacing = {
L = NoKerning;
R = NoKerning;
};
};
}
{
glyphname = one;
layers = (
{
layerId = master01;
shapes = (
{
closed = 1;
nodes = (
(99,-1,o),
(142,0,o),
(200,0,cs),
(258,0,o),
(300,-1,o),
(328,-4,c),
(338,-4,o),
(340,5,o),
(340,17,cs),
(340,21,o),
(339,24,o),
(335,24,cs),
(290,24,o),
(263,26,o),
(263,58,cs),
(263,72,o),
(268,95,o),
(276,128,cs),
(397,580,ls),
(404,605,o),
(414,634,o),
(425,666,c),
(425,669,o),
(423,671,o),
(420,671,cs),
(417,671,o),
(413,670,o),
(409,667,cs),
(338,622,o),
(277,588,o),
(225,565,cs),
(221,563,o),
(220,561,o),
(220,556,cs),
(220,554,o),
(221,542,o),
(226,542,cs),
(227,542,o),
(228,542,o),
(229,543,cs),
(251,553,o),
(275,562,o),
(298,571,cs),
(303,573,o),
(307,574,o),
(312,574,cs),
(315,574,o),
(317,571,o),
(317,565,cs),
(317,563,o),
(316,558,o),
(315,552,cs),
(201,127,ls),
(178,39,o),
(164,24,o),
(79,24,cs),
(68,24,o),
(66,15,o),
(66,3,cs),
(66,-1,o),
(67,-4,o),
(71,-4,c)
);
}
);
width = 467;
},
{
layerId = "2438E31C-45B5-47A7-9B3D-1A0FEFB47671";
shapes = (
{
closed = 1;
nodes = (
(88,-1,o),
(134,0,o),
(201,0,cs),
(266,0,o),
(311,-1,o),
(338,-4,c),
(347,-4,o),
(353,18,o),
(353,26,cs),
(353,31,o),
(352,33,o),
(348,33,cs),
(299,33,o),
(286,51,o),
(286,83,cs),
(286,98,o),
(290,116,o),
(297,138,cs),
(412,567,ls),
(419,594,o),
(427,621,o),
(438,649,c),
(438,659,o),
(436,671,o),
(419,671,cs),
(415,671,o),
(406,668,o),
(396,661,cs),
(326,614,o),
(259,581,o),
(198,557,cs),
(192,555,o),
(189,551,o),
(189,544,cs),
(189,540,o),
(191,527,o),
(198,527,cs),
(199,527,o),
(200,527,o),
(201,528,cs),
(212,532,o),
(239,542,o),
(281,557,cs),
(283,558,o),
(286,559,o),
(288,559,cs),
(294,559,o),
(295,553,o),
(295,550,cs),
(295,545,o),
(293,539,o),
(291,531,cs),
(186,137,ls),
(166,61,o),
(140,33,o),
(71,33,cs),
(62,33,o),
(57,10,o),
(57,2,cs),
(57,-2,o),
(59,-4,o),
(61,-4,c)
);
}
);
width = 466;
},
{
layerId = "7904EAEE-2B64-409E-B923-0048172372BE";
shapes = (
{
closed = 1;
nodes = (
(102,-1,o),
(144,0,o),
(199,0,cs),
(255,0,o),
(300,-1,o),
(328,-4,c),
(332,-4,o),
(336,7,o),
(336,13,cs),
(336,19,o),
(334,21,o),
(331,21,cs),
(287,21,o),
(255,22,o),
(255,49,cs),
(255,63,o),
(260,88,o),
(270,125,cs),
(393,584,ls),
(399,609,o),
(408,636,o),
(419,668,c),
(419,670,o),
(419,671,o),
(418,671,cs),
(417,671,o),
(416,670,o),
(413,669,cs),
(343,624,o),
(283,590,o),
(233,567,cs),
(231,566,o),
(230,564,o),
(230,560,cs),
(230,558,o),
(230,547,o),
(235,547,cs),
(236,547,o),
(237,547,o),
(238,548,cs),
(265,560,o),
(287,569,o),
(304,576,cs),
(309,578,o),
(314,580,o),
(319,580,cs),
(322,580,o),
(325,578,o),
(325,571,cs),
(325,568,o),
(324,564,o),
(323,560,cs),
(206,124,ls),
(181,31,o),
(171,21,o),
(81,21,cs),
(75,21,o),
(69,11,o),
(69,4,cs),
(69,-1,o),
(70,-4,o),
(74,-4,c)
);
}
);
width = 467;
},
{
layerId = "E06D8587-1A71-4EC2-BD94-397D882F5FC1";
shapes = (
{
closed = 1;
nodes = (
(79,-1,o),
(113,0,o),
(163,0,cs),
(212,0,o),
(246,-1,o),
(269,-4,c),
(277,-4,o),
(280,9,o),
(280,20,cs),
(280,24,o),
(278,27,o),
(276,27,cs),
(238,27,o),
(221,34,o),
(221,66,cs),
(221,80,o),
(224,102,o),
(230,131,cs),
(326,576,ls),
(332,605,o),
(338,627,o),
(347,661,c),
(347,667,o),
(346,671,o),
(339,671,cs),
(336,671,o),
(331,669,o),
(326,665,cs),
(268,618,o),
(219,585,o),
(175,563,cs),
(170,561,o),
(168,557,o),
(168,552,cs),
(168,549,o),
(170,538,o),
(174,538,cs),
(175,538,o),
(177,538,o),
(177,538,cs),
(197,549,o),
(213,556,o),
(236,566,cs),
(239,568,o),
(241,569,o),
(244,569,cs),
(249,569,o),
(250,564,o),
(250,560,cs),
(250,557,o),
(249,552,o),
(247,545,cs),
(159,130,ls),
(144,56,o),
(132,27,o),
(63,27,cs),
(55,27,o),
(53,13,o),
(53,3,cs),
(53,-2,o),
(54,-4,o),
(56,-4,c)
);
}
);
width = 381;
},
{
layerId = "8F7CDE40-C368-4484-AA71-76B7ABD5539F";
shapes = (
{
closed = 1;
nodes = (
(119,-1,o),
(170,0,o),
(236,0,cs),
(304,0,o),
(354,-1,o),
(388,-4,c),
(400,-4,o),
(401,1,o),
(401,13,cs),
(401,19,o),
(399,21,o),
(395,21,cs),
(342,21,o),
(305,19,o),
(305,49,cs),
(305,64,o),
(311,88,o),
(322,125,cs),
(469,584,ls),
(477,606,o),
(489,642,o),
(502,671,c),
(502,672,o),
(501,671,o),
(501,671,cs),
(498,671,o),
(495,670,o),
(492,669,cs),
(409,625,o),
(335,590,o),
(274,567,cs),
(272,566,o),
(271,564,o),
(271,560,cs),
(271,559,o),
(271,547,o),
(278,547,cs),
(278,547,o),
(278,547,o),
(280,548,cs),
(306,556,o),
(336,568,o),
(360,575,cs),
(367,578,o),
(373,580,o),
(379,580,cs),
(382,580,o),
(385,578,o),
(385,571,cs),
(385,568,o),
(384,564,o),
(383,560,cs),
(243,124,ls),
(212,21,o),
(195,21,o),
(94,21,cs),
(82,21,o),
(79,17,o),
(79,4,cs),
(79,-1,o),
(81,-4,o),
(85,-4,c)
);
}
);
width = 553;
},
{
layerId = "997BDFA1-EC67-4686-8CFE-E56BDBE179FE";
shapes = (
{
closed = 1;
nodes = (
(99,-1,o),
(142,0,o),
(200,0,cs),
(258,0,o),
(300,-1,o),
(328,-4,c),
(338,-4,o),
(340,5,o),
(340,17,cs),
(340,21,o),
(339,24,o),
(335,24,cs),
(290,24,o),
(263,26,o),
(263,58,cs),
(263,72,o),
(268,95,o),
(276,128,cs),
(397,580,ls),
(404,605,o),
(414,634,o),
(425,666,c),
(425,669,o),
(423,671,o),
(420,671,cs),
(417,671,o),
(413,670,o),
(409,667,cs),
(338,622,o),
(277,588,o),
(225,565,cs),
(221,563,o),
(220,561,o),
(220,556,cs),
(220,554,o),
(221,542,o),
(226,542,cs),
(227,542,o),
(228,542,o),
(229,543,cs),
(251,553,o),
(275,562,o),
(298,571,cs),
(303,573,o),
(307,574,o),
(312,574,cs),
(315,574,o),
(317,571,o),
(317,565,cs),
(317,563,o),
(316,558,o),
(315,552,cs),
(201,127,ls),
(178,39,o),
(164,24,o),
(79,24,cs),
(68,24,o),
(66,15,o),
(66,3,cs),
(66,-1,o),
(67,-4,o),
(71,-4,c)
);
}
);
width = 467;
}
);
unicode = 49;
}
{
glyphname = two;
layers = (
{
layerId = master01;
shapes = (
{
closed = 1;
nodes = (
(28,-2,o),
(84,0,o),
(134,0,cs),
(192,0,o),
(271,-1,o),
(317,-4,c),
(329,-4,o),
(339,1,o),
(347,12,cs),
(424,120,l),
(424,130,o),
(403,135,o),
(398,127,cs),
(376,89,o),
(325,67,o),
(251,67,cs),
(106,67,ls),
(97,67,o),
(93,69,o),
(93,73,cs),
(93,76,o),
(97,82,o),
(104,88,cs),
(285,245,o),
(398,344,o),
(437,394,cs),
(476,444,o),
(495,492,o),
(495,538,cs),
(495,605,o),
(452,651,o),
(382,651,cs),
(293,651,o),
(209,585,o),
(155,515,cs),
(149,507,o),
(171,490,o),
(179,500,cs),
(227,559,o),
(275,589,o),
(323,589,cs),
(370,589,o),
(401,563,o),
(401,512,cs),
(401,431,o),
(300,320,o),
(210,231,cs),
(147,169,o),
(70,97,o),
(-24,24,cs),
(-28,21,o),
(-31,16,o),
(-31,11,cs),
(-31,1,o),
(-25,-4,o),
(-14,-4,c)
);
}
);
width = 467;
},
{
layerId = "2438E31C-45B5-47A7-9B3D-1A0FEFB47671";
shapes = (
{
closed = 1;
nodes = (
(41,-2,o),
(104,0,o),
(152,0,cs),
(211,0,o),
(285,-1,o),
(310,-4,c),
(330,-4,o),
(345,2,o),
(354,15,cs),
(434,130,l),
(434,142,o),
(401,152,o),
(394,142,cs),
(364,98,o),
(329,94,o),
(266,94,cs),
(164,94,ls),
(150,94,o),
(144,98,o),
(144,104,cs),
(144,109,o),
(147,114,o),
(156,121,cs),
(271,210,o),
(390,308,o),
(448,385,cs),
(479,427,o),
(508,467,o),
(508,531,cs),
(508,606,o),
(456,651,o),
(377,651,cs),
(288,651,o),
(208,587,o),
(151,515,cs),
(144,506,o),
(169,488,o),
(176,497,cs),
(224,551,o),
(270,578,o),
(318,578,cs),
(360,578,o),
(380,551,o),
(380,512,cs),
(380,429,o),
(249,287,o),
(197,234,cs),
(114,149,o),
(67,110,o),
(-21,39,cs),
(-32,30,o),
(-37,21,o),
(-37,13,cs),
(-37,2,o),
(-29,-4,o),
(-16,-4,c)
);
}
);
width = 466;
},
{
layerId = "7904EAEE-2B64-409E-B923-0048172372BE";
shapes = (
{
closed = 1;
nodes = (
(21,-2,o),
(75,0,o),
(125,0,cs),
(183,0,o),
(264,-1,o),
(316,-4,c),
(326,-4,o),
(335,1,o),
(342,11,cs),
(418,117,l),
(418,129,o),
(403,132,o),
(397,122,cs),
(377,86,o),
(321,58,o),
(243,58,cs),
(84,58,ls),
(77,58,o),
(73,59,o),
(73,63,cs),
(73,67,o),
(77,71,o),
(84,77,cs),
(287,256,o),
(398,355,o),
(431,397,cs),
(472,449,o),
(488,500,o),
(488,541,cs),
(488,605,o),
(448,651,o),
(381,651,cs),
(292,651,o),
(206,585,o),
(153,515,cs),
(146,505,o),
(168,491,o),
(176,500,cs),
(226,562,o),
(274,592,o),
(322,592,cs),
(371,592,o),
(406,568,o),
(406,512,cs),
(406,432,o),
(315,331,o),
(211,230,cs),
(155,176,o),
(68,93,o),
(-25,21,cs),
(-30,17,o),
(-31,14,o),
(-31,8,cs),
(-31,0,o),
(-27,-4,o),
(-16,-4,c)
);
}
);
width = 467;
},
{
layerId = "E06D8587-1A71-4EC2-BD94-397D882F5FC1";
shapes = (
{
closed = 1;
nodes = (
(27,-2,o),
(74,0,o),
(114,0,cs),
(161,0,o),
(222,-1,o),
(252,-4,c),
(264,-4,o),
(274,2,o),
(280,13,cs),
(343,124,l),
(343,135,o),
(323,142,o),
(318,132,cs),
(297,92,o),
(262,76,o),
(207,76,cs),
(104,76,ls),
(96,76,o),
(92,79,o),
(92,83,cs),
(92,87,o),
(95,92,o),
(102,100,cs),
(224,233,o),
(318,333,o),
(354,392,cs),
(381,436,o),
(400,482,o),
(400,536,cs),
(400,605,o),
(363,651,o),
(305,651,cs),
(233,651,o),
(167,586,o),
(120,510,cs),
(114,500,o),
(137,490,o),
(143,499,cs),
(183,558,o),
(220,585,o),
(257,585,cs),
(293,585,o),
(314,559,o),
(314,512,cs),
(314,430,o),
(220,304,o),
(164,233,cs),
(107,161,o),
(56,102,o),
(-18,29,cs),
(-23,24,o),
(-26,18,o),
(-26,12,cs),
(-26,1,o),
(-21,-4,o),
(-11,-4,c)
);
}
);
width = 380;
},
{
layerId = "8F7CDE40-C368-4484-AA71-76B7ABD5539F";
shapes = (
{
closed = 1;
nodes = (
(25,-2,o),
(90,0,o),
(150,0,cs),
(219,0,o),
(316,-1,o),
(378,-4,c),
(390,-4,o),
(400,1,o),
(409,11,cs),
(501,117,l),
(501,125,o),
(481,131,o),
(475,122,cs),
(451,86,o),
(385,58,o),
(292,58,cs),
(104,58,ls),
(94,58,o),
(90,59,o),
(90,63,cs),
(90,65,o),
(95,71,o),
(103,76,cs),
(342,256,o),
(475,354,o),
(516,396,cs),
(566,452,o),
(585,501,o),
(585,541,cs),
(585,605,o),
(536,651,o),
(456,651,cs),
(348,651,o),
(246,585,o),
(183,514,cs),
(176,506,o),
(196,486,o),
(205,495,cs),
(268,560,o),
(327,592,o),
(384,592,cs),
(443,592,o),
(484,568,o),
(484,512,cs),
(484,433,o),
(375,336,o),
(251,229,cs),
(182,177,o),
(81,93,o),
(-34,19,cs),
(-38,17,o),
(-39,14,o),
(-39,10,cs),
(-39,0,o),
(-34,-4,o),
(-21,-4,c)
);
}
);
width = 554;
},
{
layerId = "997BDFA1-EC67-4686-8CFE-E56BDBE179FE";
shapes = (
{
closed = 1;
nodes = (
(28,-2,o),
(84,0,o),
(134,0,cs),
(192,0,o),
(271,-1,o),
(317,-4,c),
(329,-4,o),
(339,1,o),
(347,12,cs),
(424,120,l),
(424,130,o),
(403,135,o),
(398,127,cs),
(376,89,o),
(325,67,o),
(251,67,cs),
(106,67,ls),
(97,67,o),
(93,69,o),
(93,73,cs),
(93,76,o),
(97,82,o),
(104,88,cs),
(285,245,o),
(398,344,o),
(437,394,cs),
(476,444,o),
(495,492,o),
(495,538,cs),
(495,605,o),
(452,651,o),
(382,651,cs),
(293,651,o),
(209,585,o),
(155,515,cs),
(149,507,o),
(171,490,o),
(179,500,cs),
(227,559,o),
(275,589,o),
(323,589,cs),
(370,589,o),
(401,563,o),
(401,512,cs),
(401,431,o),
(300,320,o),
(210,231,cs),
(147,169,o),
(70,97,o),
(-24,24,cs),
(-28,21,o),
(-31,16,o),
(-31,11,cs),
(-31,1,o),
(-25,-4,o),
(-14,-4,c)
);
}
);
width = 467;
}
);
unicode = 50;
userData = {
KernOnSpecialSpacing = {
L = NoKerning;
R = NoKerning;
};
};
}
{
glyphname = three;
kernLeft = three.osf;
kernRight = three.osf;
layers = (
{
layerId = master01;
shapes = (
{
closed = 1;
nodes = (
(-15,-184,o),
(8,-178,o),
(44,-163,cs),
(157,-116,o),
(289,-4,o),
(289,95,cs),
(289,145,o),
(257,170,o),
(212,193,cs),
(204,197,o),
(207,201,o),
(213,205,cs),
(298,259,o),
(332,295,o),
(332,342,cs),
(332,396,o),
(292,416,o),
(244,416,cs),
(184,416,o),
(106,384,o),
(74,336,cs),
(68,328,o),
(81,317,o),
(88,324,cs),
(118,352,o),
(154,367,o),
(192,367,cs),
(230,367,o),
(251,352,o),
(251,316,cs),
(251,242,o),
(148,187,o),
(58,148,cs),
(56,147,o),
(53,145,o),
(53,140,cs),
(53,139,o),
(60,117,o),
(66,121,cs),
(86,135,o),
(114,147,o),
(131,147,cs),
(174,147,o),
(201,121,o),
(201,72,cs),
(201,-10,o),
(118,-134,o),
(15,-134,cs),
(8,-134,o),
(0,-132,o),
(-9,-128,cs),
(-17,-124,o),
(-25,-122,o),
(-29,-122,cs),
(-47,-122,o),
(-64,-136,o),
(-64,-150,cs),
(-64,-171,o),
(-52,-184,o),
(-29,-184,cs)
);
}
);
width = 363;
},
{
layerId = "2438E31C-45B5-47A7-9B3D-1A0FEFB47671";
shapes = (
{
closed = 1;
nodes = (
(10,-184,o),
(46,-171,o),
(64,-164,cs),
(183,-118,o),
(327,-24,o),
(327,87,cs),
(327,140,o),
(296,173,o),
(256,190,cs),
(237,198,o),
(247,204,o),
(253,207,cs),
(282,221,o),
(369,265,o),
(369,332,cs),
(369,379,o),
(330,416,o),
(266,416,cs),
(200,416,o),
(131,378,o),
(90,329,cs),
(83,321,o),
(102,303,o),
(110,309,cs),
(150,342,o),
(181,356,o),
(208,356,cs),
(230,356,o),
(252,345,o),
(252,306,cs),
(252,236,o),
(174,191,o),
(77,149,cs),
(72,147,o),
(69,145,o),
(69,140,cs),
(69,130,o),
(76,110,o),
(88,116,cs),
(119,132,o),
(132,137,o),
(149,137,cs),
(188,137,o),
(202,108,o),
(202,70,cs),
(202,-22,o),
(119,-125,o),
(50,-125,cs),
(45,-125,o),
(33,-122,o),
(19,-114,cs),
(1,-104,o),
(-8,-101,o),
(-13,-101,cs),
(-32,-101,o),
(-63,-118,o),
(-63,-141,cs),
(-63,-169,o),
(-44,-184,o),
(-10,-184,cs)
);
}
);
width = 388;
},
{
layerId = "7904EAEE-2B64-409E-B923-0048172372BE";
shapes = (
{
closed = 1;
nodes = (
(-22,-184,o),
(-1,-179,o),
(41,-161,cs),
(148,-115,o),
(277,2,o),
(277,98,cs),
(277,145,o),
(249,166,o),
(198,194,cs),
(193,197,o),
(193,200,o),
(200,204,cs),
(302,270,o),
(320,304,o),
(320,344,cs),
(320,402,o),
(280,416,o),
(237,416,cs),
(182,416,o),
(106,388,o),
(70,338,cs),
(64,330,o),
(75,322,o),
(82,329,cs),
(110,357,o),
(147,371,o),
(188,371,cs),
(230,371,o),
(250,354,o),
(250,319,cs),
(250,244,o),
(141,187,o),
(53,148,cs),
(51,147,o),
(48,145,o),
(48,139,cs),
(48,138,o),
(54,120,o),
(58,123,cs),
(75,135,o),
(106,150,o),
(124,150,cs),
(171,150,o),
(202,125,o),
(202,73,cs),
(202,-6,o),
(119,-137,o),
(4,-137,cs),
(-3,-137,o),
(-12,-135,o),
(-17,-133,cs),
(-25,-130,o),
(-30,-129,o),
(-34,-129,cs),
(-52,-129,o),
(-64,-143,o),
(-64,-154,cs),
(-64,-172,o),
(-54,-184,o),
(-35,-184,cs)
);
}
);
width = 356;
},
{
layerId = "E06D8587-1A71-4EC2-BD94-397D882F5FC1";
shapes = (
{
closed = 1;
nodes = (
(-19,-184,o),
(4,-175,o),
(28,-163,cs),
(124,-115,o),
(241,-6,o),
(241,99,cs),
(241,145,o),
(219,172,o),
(185,191,cs),
(178,195,o),
(181,202,o),
(186,206,cs),
(238,246,o),
(286,286,o),
(286,344,cs),
(286,391,o),
(257,416,o),
(214,416,cs),
(162,416,o),
(102,380,o),
(72,331,cs),
(66,322,o),
(79,314,o),
(86,321,cs),
(114,349,o),
(140,363,o),
(168,363,cs),
(192,363,o),
(208,350,o),
(208,317,cs),
(208,242,o),
(127,188,o),
(52,148,cs),
(48,146,o),
(47,144,o),
(47,139,cs),
(47,129,o),
(52,115,o),
(58,120,cs),
(74,132,o),
(95,144,o),
(110,144,cs),
(142,144,o),
(157,119,o),
(157,79,cs),
(157,-10,o),
(82,-131,o),
(10,-131,cs),
(5,-131,o),
(-1,-129,o),
(-11,-123,cs),
(-18,-119,o),
(-26,-115,o),
(-30,-115,cs),
(-45,-115,o),
(-65,-130,o),
(-65,-149,cs),
(-65,-171,o),
(-54,-184,o),
(-33,-184,cs)
);
}
);
width = 308;
},
{
layerId = "8F7CDE40-C368-4484-AA71-76B7ABD5539F";
shapes = (
{
closed = 1;
nodes = (
(-13,-184,o),
(10,-180,o),
(58,-163,cs),
(191,-116,o),
(340,1,o),
(340,96,cs),
(340,144,o),
(305,168,o),
(247,192,cs),
(240,195,o),
(237,199,o),
(244,203,cs),
(358,268,o),
(384,303,o),
(384,342,cs),
(384,401,o),
(335,416,o),
(283,416,cs),
(214,416,o),
(127,387,o),
(85,341,cs),
(78,334,o),
(94,324,o),
(101,331,cs),
(132,360,o),
(181,371,o),
(224,371,cs),
(274,371,o),
(300,354,o),
(300,317,cs),
(300,243,o),
(173,186,o),
(68,147,cs),
(65,146,o),
(63,143,o),
(63,139,cs),
(63,129,o),
(73,121,o),
(76,123,cs),
(96,136,o),
(134,150,o),
(155,150,cs),
(211,150,o),
(248,124,o),
(248,70,cs),
(248,-10,o),
(152,-137,o),
(19,-137,cs),
(10,-137,o),
(0,-135,o),
(-6,-133,cs),
(-18,-129,o),
(-23,-129,o),
(-27,-129,cs),
(-48,-129,o),
(-64,-142,o),
(-64,-153,cs),
(-64,-172,o),
(-50,-184,o),
(-28,-184,cs)
);
}
);
width = 419;
},
{
layerId = "997BDFA1-EC67-4686-8CFE-E56BDBE179FE";
shapes = (
{
closed = 1;
nodes = (
(-41,-184,o),
(-17,-177,o),
(18,-163,cs),
(134,-115,o),
(272,-1,o),
(272,99,cs),
(272,145,o),
(244,169,o),
(198,193,cs),
(190,197,o),
(193,201,o),
(198,204,cs),
(289,261,o),
(323,297,o),
(323,345,cs),
(323,396,o),
(286,416,o),
(238,416,cs),
(178,416,o),
(99,384,o),
(65,336,cs),
(59,327,o),
(70,316,o),
(79,324,cs),
(111,353,o),
(147,367,o),
(184,367,cs),
(222,367,o),
(241,352,o),
(241,319,cs),
(241,244,o),
(137,188,o),
(42,148,cs),
(39,146,o),
(37,144,o),
(37,139,cs),
(37,130,o),
(43,117,o),
(49,121,cs),
(68,133,o),
(96,147,o),
(115,147,cs),
(159,147,o),
(183,121,o),
(183,76,cs),
(183,-7,o),
(94,-134,o),
(-10,-134,cs),
(-17,-134,o),
(-25,-132,o),
(-34,-128,cs),
(-42,-124,o),
(-49,-122,o),
(-54,-122,cs),
(-72,-122,o),
(-90,-136,o),
(-90,-151,cs),
(-90,-172,o),
(-79,-184,o),
(-56,-184,cs)
);
}
);
width = 373;
}
);
unicode = 51;
}
{
glyphname = four;
layers = (
{
background = {
shapes = (
{
closed = 1;
nodes = (
(192,-1,o),
(227,0,o),
(269,0,cs),
(312,0,o),
(346,-1,o),
(374,-4,c),
(386,-4,o),
(393,24,o),
(381,24,cs),
(349,24,o),
(332,33,o),
(332,52,cs),
(332,55,o),
(332,59,o),
(333,62,cs),
(368,191,l),
(436,191,ls),
(448,191,o),
(459,233,o),
(447,233,cs),
(379,233,l),
(440,460,ls),
(443,471,o),
(368,471,o),
(365,460,cs),
(305,233,l),
(104,233,l),
(97,233,o),
(93,234,o),
(93,238,cs),
(93,241,o),
(96,245,o),
(100,249,c),
(534,688,l),
(534,696,o),
(527,702,o),
(515,702,cs),
(501,702,o),
(492,700,o),
(488,696,cs),
(419,619,o),
(324,521,o),
(204,401,cs),
(57,254,ls),
(33,230,o),
(21,214,o),
(21,205,cs),
(21,196,o),
(31,191,o),
(50,191,cs),
(293,191,l),
(259,62,ls),
(252,37,o),
(223,24,o),
(171,24,cs),
(159,24,o),
(152,-4,o),
(164,-4,c)
);
}
);
};
layerId = master01;
shapes = (
{
closed = 1;
nodes = (
(192,-1,o),
(227,0,o),
(269,0,cs),
(312,0,o),
(346,-1,o),
(374,-4,c),
(386,-4,o),
(393,24,o),
(381,24,cs),
(343,24,o),
(326,38,o),
(333,62,cs),
(368,191,l),
(436,191,ls),
(448,191,o),
(459,233,o),
(447,233,cs),
(379,233,l),
(440,460,ls),
(443,471,o),
(368,471,o),
(365,460,cs),
(305,233,l),
(104,233,ls),
(96,233,o),
(92,234,o),
(92,237,cs),
(92,240,o),
(95,244,o),
(100,249,cs),
(534,688,l),
(534,707,o),
(495,704,o),
(488,696,cs),
(419,619,o),
(324,521,o),
(204,401,cs),
(57,254,ls),
(33,230,o),
(21,214,o),
(21,205,cs),
(21,196,o),
(31,191,o),
(50,191,cs),
(293,191,l),
(259,62,ls),
(252,37,o),
(223,24,o),
(171,24,cs),
(159,24,o),
(152,-4,o),
(164,-4,c)
);
}
);
width = 467;
},
{
background = {
shapes = (
{
closed = 1;
nodes = (
(181,-1,o),
(219,0,o),
(269,0,cs),
(319,0,o),
(357,-1,o),
(384,-4,c),
(393,-4,o),
(399,18,o),
(399,26,cs),
(399,31,o),
(397,33,o),
(394,33,cs),
(365,33,o),
(352,39,o),
(352,57,cs),
(352,63,o),
(353,69,o),
(355,76,c),
(383,181,l),
(444,181,ls),
(459,181,o),
(467,246,o),
(461,246,cs),
(401,246,l),
(453,441,ls),
(456,452,o),
(345,452,o),
(342,441,cs),
(289,246,l),
(116,246,ls),
(111,246,o),
(108,248,o),
(108,251,cs),
(108,255,o),
(111,260,o),
(117,266,cs),
(527,671,l),
(527,691,o),
(504,699,o),
(493,699,cs),
(485,699,o),
(476,697,o),
(469,690,cs),
(411,623,o),
(337,544,o),
(246,456,cs),
(54,269,ls),
(25,241,o),
(11,219,o),
(11,202,cs),
(11,188,o),
(22,181,o),
(46,181,cs),
(272,181,l),
(244,76,l),
(235,42,o),
(208,33,o),
(164,33,cs),
(155,33,o),
(149,11,o),
(149,3,cs),
(149,-1,o),
(150,-4,o),
(154,-4,c)
);
}
);
};
layerId = "2438E31C-45B5-47A7-9B3D-1A0FEFB47671";
shapes = (
{
closed = 1;
nodes = (
(181,-1,o),
(219,0,o),
(269,0,cs),
(319,0,o),
(357,-1,o),
(384,-4,c),
(396,-4,o),
(406,33,o),
(394,33,cs),
(356,33,o),
(346,44,o),
(355,76,cs),
(383,181,l),
(444,181,ls),
(456,181,o),
(473,246,o),
(461,246,cs),
(401,246,l),
(453,441,ls),
(456,452,o),
(345,452,o),
(342,441,cs),
(289,246,l),
(116,246,ls),
(111,246,o),
(108,248,o),
(108,251,cs),
(108,255,o),
(111,260,o),
(117,266,cs),
(527,671,l),
(527,703,o),
(482,705,o),
(469,690,cs),
(411,623,o),
(337,544,o),
(246,456,cs),
(54,269,ls),
(25,241,o),
(11,219,o),
(11,202,cs),
(11,188,o),
(22,181,o),
(46,181,cs),
(272,181,l),
(244,76,ls),
(235,42,o),
(208,33,o),
(164,33,cs),
(152,33,o),
(142,-4,o),
(154,-4,c)
);
}
);
width = 466;
},
{
layerId = "7904EAEE-2B64-409E-B923-0048172372BE";
shapes = (
{
closed = 1;
nodes = (
(196,-1,o),
(230,0,o),
(269,0,cs),
(310,0,o),
(342,-1,o),
(371,-4,c),
(383,-4,o),
(389,21,o),
(377,21,cs),
(339,21,o),
(319,36,o),
(326,57,cs),
(363,194,l),
(433,194,ls),
(445,194,o),
(454,229,o),
(442,229,cs),
(372,229,l),
(436,466,ls),
(439,477,o),
(376,477,o),
(373,466,cs),
(310,229,l),
(100,229,ls),
(91,229,o),
(87,229,o),
(87,232,cs),
(87,235,o),
(90,239,o),
(94,243,cs),
(536,694,l),
(536,708,o),
(499,704,o),
(494,698,cs),
(422,618,o),
(320,513,o),
(190,383,cs),
(58,249,ls),
(36,226,o),
(24,212,o),
(24,206,cs),
(24,199,o),
(34,194,o),
(51,194,cs),
(300,194,l),
(264,57,ls),
(258,35,o),
(228,21,o),
(173,21,cs),
(161,21,o),
(155,-4,o),
(167,-4,c)
);
}
);
width = 467;
},
{
layerId = "E06D8587-1A71-4EC2-BD94-397D882F5FC1";
shapes = (
{
closed = 1;
nodes = (
(153,-1,o),
(181,0,o),
(219,0,cs),
(258,0,o),
(286,-1,o),
(309,-4,c),
(319,-4,o),
(327,24,o),
(317,24,cs),
(288,24,o),
(275,36,o),
(282,64,cs),
(316,191,l),
(370,191,ls),
(380,191,o),
(390,233,o),
(380,233,cs),
(327,233,l),
(385,458,ls),
(388,469,o),
(314,469,o),
(311,458,cs),
(253,233,l),
(97,233,ls),
(92,233,o),
(89,235,o),
(89,238,cs),
(89,240,o),
(90,244,o),
(96,251,cs),
(465,686,l),
(465,707,o),
(428,702,o),
(422,693,cs),
(370,615,o),
(292,516,o),
(194,409,cs),
(54,256,ls),
(31,231,o),
(21,215,o),
(21,205,cs),
(21,195,o),
(31,191,o),
(48,191,cs),
(242,191,l),
(209,64,ls),
(203,39,o),
(182,24,o),
(137,24,cs),
(127,24,o),
(119,-4,o),
(129,-4,c)
);
}
);
width = 306;
},
{
layerId = "8F7CDE40-C368-4484-AA71-76B7ABD5539F";
shapes = (
{
closed = 1;
nodes = (
(231,-1,o),
(273,0,o),
(319,0,cs),
(366,0,o),
(406,-1,o),
(439,-4,c),
(453,-4,o),
(459,24,o),
(445,24,cs),
(398,24,o),
(377,40,o),
(384,60,cs),
(420,191,l),
(502,191,ls),
(516,191,o),
(528,233,o),
(514,233,cs),
(431,233,l),
(495,462,ls),
(498,473,o),
(422,473,o),
(419,462,cs),
(357,233,l),
(111,233,ls),
(100,233,o),
(95,233,o),
(95,236,cs),
(95,240,o),
(100,244,o),
(104,247,cs),
(603,690,l),
(603,707,o),
(562,706,o),
(554,699,cs),
(468,623,o),
(356,526,o),
(214,393,cs),
(60,252,ls),
(35,229,o),
(21,213,o),
(21,205,cs),
(21,197,o),
(31,191,o),
(52,191,cs),
(344,191,l),
(309,60,ls),
(301,35,o),
(264,24,o),
(205,24,cs),
(191,24,o),
(185,-4,o),
(199,-4,c)
);
}
);
width = 628;
},
{
layerId = "997BDFA1-EC67-4686-8CFE-E56BDBE179FE";
shapes = (
{
closed = 1;
nodes = (
(192,-1,o),
(227,0,o),
(269,0,cs),
(312,0,o),
(346,-1,o),
(374,-4,c),
(386,-4,o),
(393,24,o),
(381,24,cs),
(343,24,o),
(326,38,o),
(333,62,cs),
(368,191,l),
(436,191,ls),
(448,191,o),
(459,233,o),
(447,233,cs),
(379,233,l),
(440,460,ls),
(443,471,o),
(368,471,o),
(365,460,cs),
(305,233,l),
(104,233,ls),
(96,233,o),
(92,234,o),
(92,237,cs),
(92,240,o),
(95,244,o),
(100,249,cs),
(534,688,l),
(534,707,o),
(495,704,o),
(488,696,cs),
(419,619,o),
(324,521,o),
(204,401,cs),
(57,254,ls),
(33,230,o),
(21,214,o),
(21,205,cs),
(21,196,o),
(31,191,o),
(50,191,cs),
(293,191,l),
(259,62,ls),
(252,37,o),
(223,24,o),
(171,24,cs),
(159,24,o),
(152,-4,o),
(164,-4,c)
);
}
);
width = 467;
}
);
unicode = 52;
userData = {
KernOnSpecialSpacing = {
L = NoKerning;
R = NoKerning;
};
};
}
{
glyphname = five;
layers = (
{
layerId = master01;
shapes = (
{
closed = 1;
nodes = (
(578,-16,o),
(882,309,o),
(882,606,cs),
(882,799,o),
(768,895,o),
(541,895,cs),
(515,895,o),
(488,894,o),
(461,890,cs),
(448,888,o),
(445,896,o),
(453,913,cs),
(558,1147,ls),
(566,1165,o),
(580,1174,o),
(599,1174,cs),
(982,1174,ls),
(1003,1174,o),
(1059,1289,o),
(1059,1304,cs),
(1059,1312,o),
(1058,1317,o),
(1055,1317,cs),
(584,1317,ls),
(566,1317,o),
(551,1307,o),
(543,1288,cs),
(310,758,ls),
(307,751,o),
(305,743,o),
(305,736,cs),
(305,725,o),
(312,720,o),
(327,724,cs),
(379,738,o),
(424,743,o),
(461,743,cs),
(634,743,o),
(720,669,o),
(720,520,cs),
(720,326,o),
(548,68,o),
(354,68,cs),
(311,68,o),
(273,89,o),
(235,131,cs),
(198,172,o),
(169,193,o),
(146,193,cs),
(90,193,o),
(36,152,o),
(36,84,cs),
(36,6,o),
(162,-16,o),
(248,-16,cs)
);
}
);
width = 956;
},
{
layerId = "2438E31C-45B5-47A7-9B3D-1A0FEFB47671";
shapes = (
{
closed = 1;
nodes = (
(548,-16,o),
(922,258,o),
(922,631,cs),
(922,820,o),
(770,918,o),
(547,918,cs),
(538,918,o),
(516,917,o),
(481,913,cs),
(463,911,o),
(456,921,o),
(467,946,cs),
(537,1100,ls),
(546,1121,o),
(564,1130,o),
(586,1130,cs),
(1001,1130,ls),
(1024,1130,o),
(1090,1287,o),
(1090,1311,cs),
(1090,1315,o),
(1088,1317,o),
(1085,1317,cs),
(584,1317,ls),
(546,1317,o),
(517,1300,o),
(500,1262,cs),
(264,733,ls),
(259,721,o),
(254,711,o),
(254,701,cs),
(254,679,o),
(270,673,o),
(307,682,cs),
(359,695,o),
(407,702,o),
(451,702,cs),
(599,702,o),
(696,626,o),
(696,489,cs),
(696,319,o),
(535,92,o),
(360,92,cs),
(323,92,o),
(288,115,o),
(254,162,cs),
(220,208,o),
(187,230,o),
(154,231,cs),
(83,233,o),
(4,184,o),
(4,106,cs),
(4,25,o),
(85,-16,o),
(248,-16,cs)
);
}
);
width = 954;
},
{
layerId = "7904EAEE-2B64-409E-B923-0048172372BE";
shapes = (
{
closed = 1;
nodes = (
(588,-16,o),
(869,326,o),
(869,598,cs),
(869,792,o),
(767,887,o),
(539,887,cs),
(507,887,o),
(479,886,o),
(454,882,cs),
(443,880,o),
(441,888,o),
(448,902,cs),
(565,1163,ls),
(573,1180,o),
(585,1189,o),
(603,1189,cs),
(976,1189,ls),
(996,1189,o),
(1049,1290,o),
(1049,1302,cs),
(1049,1311,o),
(1048,1317,o),
(1045,1317,cs),
(584,1317,ls),
(573,1317,o),
(562,1309,o),
(557,1297,cs),
(325,766,ls),
(323,761,o),
(322,754,o),
(322,748,cs),
(322,740,o),
(326,736,o),
(334,738,cs),
(386,752,o),
(430,757,o),
(464,757,cs),
(646,757,o),
(728,683,o),
(728,530,cs),
(728,328,o),
(552,60,o),
(352,60,cs),
(307,60,o),
(268,80,o),
(229,121,cs),
(191,160,o),
(163,181,o),
(143,180,cs),
(92,180,o),
(47,141,o),
(47,77,cs),
(47,0,o),
(188,-16,o),
(248,-16,cs)
);
}
);
width = 957;
},
{
layerId = "E06D8587-1A71-4EC2-BD94-397D882F5FC1";
shapes = (
{
closed = 1;
nodes = (
(462,-16,o),
(730,292,o),
(730,614,cs),
(730,806,o),
(625,903,o),
(446,903,cs),
(429,903,o),
(406,901,o),
(387,898,cs),
(373,896,o),
(370,904,o),
(377,924,cs),
(450,1131,ls),
(457,1150,o),
(469,1159,o),
(485,1159,cs),
(803,1159,ls),
(820,1159,o),
(868,1290,o),
(868,1306,cs),
(868,1312,o),
(867,1317,o),
(865,1317,cs),
(478,1317,ls),
(458,1317,o),
(440,1305,o),
(431,1279,cs),
(244,749,ls),
(241,741,o),
(238,732,o),
(238,724,cs),
(238,710,o),
(247,704,o),
(266,710,cs),
(309,724,o),
(343,729,o),
(376,729,cs),
(506,729,o),
(579,654,o),
(579,510,cs),
(579,324,o),
(444,76,o),
(296,76,cs),
(263,76,o),
(234,98,o),
(205,141,cs),
(176,184,o),
(152,206,o),
(130,206,cs),
(81,206,o),
(29,163,o),
(29,91,cs),
(29,12,o),
(116,-16,o),
(209,-16,cs)
);
}
);
width = 786;
},
{
layerId = "8F7CDE40-C368-4484-AA71-76B7ABD5539F";
shapes = (
{
closed = 1;
nodes = (
(694,-16,o),
(1034,326,o),
(1034,598,cs),
(1034,792,o),
(911,887,o),
(636,887,cs),
(601,887,o),
(570,887,o),
(535,882,cs),
(523,880,o),
(520,888,o),
(529,902,cs),
(666,1163,ls),
(675,1180,o),
(691,1189,o),
(713,1189,cs),
(1161,1189,ls),
(1186,1189,o),
(1250,1288,o),
(1250,1302,cs),
(1250,1312,o),
(1249,1317,o),
(1245,1317,cs),
(690,1317,ls),
(674,1317,o),
(662,1309,o),
(655,1297,cs),
(376,767,ls),
(373,761,o),
(372,754,o),
(372,748,cs),
(372,740,o),
(377,736,o),
(388,738,cs),
(449,752,o),
(505,757,o),
(546,757,cs),
(762,757,o),
(861,684,o),
(861,530,cs),
(861,328,o),
(652,60,o),
(412,60,cs),
(359,60,o),
(312,80,o),
(265,121,cs),
(220,160,o),
(186,180,o),
(162,180,cs),
(99,180,o),
(43,141,o),
(43,77,cs),
(43,0,o),
(208,-16,o),
(287,-16,cs)
);
}
);
width = 1126;
},
{
layerId = "997BDFA1-EC67-4686-8CFE-E56BDBE179FE";
shapes = (
{
closed = 1;
nodes = (
(578,-16,o),
(882,309,o),
(882,606,cs),
(882,799,o),
(768,895,o),
(541,895,cs),
(515,895,o),
(488,894,o),
(461,890,cs),
(448,888,o),
(445,896,o),
(453,913,cs),
(558,1147,ls),
(566,1165,o),
(580,1174,o),
(599,1174,cs),
(982,1174,ls),
(1003,1174,o),
(1059,1289,o),
(1059,1304,cs),
(1059,1312,o),
(1058,1317,o),
(1055,1317,cs),
(584,1317,ls),
(566,1317,o),
(551,1307,o),
(543,1288,cs),
(310,758,ls),
(307,751,o),
(305,743,o),
(305,736,cs),
(305,725,o),
(312,720,o),
(327,724,cs),
(379,738,o),
(424,743,o),
(461,743,cs),
(634,743,o),
(720,669,o),
(720,520,cs),
(720,326,o),
(548,68,o),
(354,68,cs),
(311,68,o),
(273,89,o),
(235,131,cs),
(198,172,o),
(169,193,o),
(146,193,cs),
(90,193,o),
(36,152,o),
(36,84,cs),
(36,6,o),
(162,-16,o),
(248,-16,cs)
);
}
);
width = 956;
}
);
unicode = 53;
}
{
glyphname = six;
layers = (
{
layerId = master01;
shapes = (
{
closed = 1;
nodes = (
(320,-8,o),
(441,114,o),
(441,249,cs),
(441,322,o),
(400,374,o),
(333,374,cs),
(293,374,o),
(242,352,o),
(180,307,c),
(257,481,o),
(371,579,o),
(514,649,cs),
(517,650,o),
(519,654,o),
(519,659,cs),
(519,667,o),
(517,673,o),
(510,673,cs),
(509,673,o),
(508,673,o),
(506,672,cs),
(261,572,o),
(57,336,o),
(57,140,cs),
(57,42,o),
(101,-8,o),
(189,-8,cs)
);
},
{
closed = 1;
nodes = (
(160,31,o),
(135,63,o),
(135,129,cs),
(135,174,o),
(144,219,o),
(163,265,c),
(201,301,o),
(238,319,o),
(274,319,cs),
(330,319,o),
(357,284,o),
(357,215,cs),
(357,131,o),
(297,31,o),
(211,31,cs)
);
}
);
width = 467;
},
{
layerId = "2438E31C-45B5-47A7-9B3D-1A0FEFB47671";
shapes = (
{
closed = 1;
nodes = (
(325,-8,o),
(460,113,o),
(460,252,cs),
(460,331,o),
(417,389,o),
(332,389,cs),
(290,389,o),
(249,371,o),
(211,335,c),
(273,462,o),
(384,580,o),
(520,645,cs),
(524,647,o),
(526,651,o),
(526,656,cs),
(526,663,o),
(522,676,o),
(513,676,cs),
(512,676,o),
(510,675,o),
(509,675,cs),
(296,598,o),
(41,372,o),
(41,149,cs),
(41,54,o),
(86,-8,o),
(189,-8,cs)
);
},
{
closed = 1;
nodes = (
(172,43,o),
(152,71,o),
(152,127,cs),
(152,173,o),
(163,223,o),
(184,276,c),
(213,301,o),
(242,314,o),
(273,314,cs),
(321,314,o),
(345,268,o),
(345,220,cs),
(345,143,o),
(294,43,o),
(214,43,cs)
);
}
);
width = 466;
},
{
layerId = "7904EAEE-2B64-409E-B923-0048172372BE";
shapes = (
{
closed = 1;
nodes = (
(318,-8,o),
(435,115,o),
(435,248,cs),
(435,319,o),
(394,369,o),
(333,369,cs),
(290,369,o),
(224,352,o),
(169,298,c),
(252,487,o),
(366,578,o),
(512,650,cs),
(515,651,o),
(517,655,o),
(517,660,cs),
(517,668,o),
(516,672,o),
(509,672,cs),
(508,672,o),
(507,672,o),
(505,671,cs),
(250,564,o),
(63,324,o),
(63,137,cs),
(63,37,o),
(106,-8,o),
(189,-8,cs)
);
},
{
closed = 1;
nodes = (
(156,27,o),
(129,61,o),
(129,129,cs),
(129,174,o),
(138,218,o),
(156,262,c),
(197,301,o),
(236,320,o),
(275,320,cs),
(333,320,o),
(361,290,o),
(361,213,cs),
(361,127,o),
(298,27,o),
(210,27,cs)
);
}
);
width = 467;
},
{
layerId = "E06D8587-1A71-4EC2-BD94-397D882F5FC1";
shapes = (
{
closed = 1;
nodes = (
(263,-8,o),
(364,114,o),
(364,250,cs),
(364,325,o),
(331,379,o),
(271,379,cs),
(239,379,o),
(202,356,o),
(159,316,c),
(217,475,o),
(306,579,o),
(418,647,cs),
(421,649,o),
(423,653,o),
(423,658,cs),
(423,666,o),
(420,674,o),
(415,674,cs),
(414,674,o),
(413,674,o),
(412,673,cs),
(226,581,o),
(46,348,o),
(46,143,cs),
(46,46,o),
(82,-8,o),
(157,-8,cs)
);
},
{
closed = 1;
nodes = (
(137,35,o),
(119,66,o),
(119,128,cs),
(119,174,o),
(127,221,o),
(143,269,c),
(170,301,o),
(197,317,o),
(225,317,cs),
(266,317,o),
(287,279,o),
(287,217,cs),
(287,136,o),
(242,35,o),
(175,35,cs)
);
}
);
width = 381;
},
{
layerId = "8F7CDE40-C368-4484-AA71-76B7ABD5539F";
shapes = (
{
closed = 1;
nodes = (
(377,-8,o),
(518,115,o),
(518,248,cs),
(518,320,o),
(469,369,o),
(395,369,cs),
(348,369,o),
(282,347,o),
(200,298,c),
(298,487,o),
(436,579,o),
(609,650,cs),
(613,651,o),
(615,655,o),
(615,660,cs),
(615,668,o),
(614,672,o),
(606,672,cs),
(605,672,o),
(603,672,o),
(601,671,cs),
(296,564,o),
(68,324,o),
(68,137,cs),
(68,37,o),
(121,-8,o),
(221,-8,cs)
);
},
{
closed = 1;
nodes = (
(183,27,o),
(150,61,o),
(150,129,cs),
(150,173,o),
(161,218,o),
(184,262,c),
(231,301,o),
(278,320,o),
(324,320,cs),
(393,320,o),
(427,290,o),
(427,213,cs),
(427,127,o),
(353,27,o),
(247,27,cs)
);
}
);
width = 552;
},
{
layerId = "997BDFA1-EC67-4686-8CFE-E56BDBE179FE";
shapes = (
{
closed = 1;
nodes = (
(320,-8,o),
(441,114,o),
(441,249,cs),
(441,322,o),
(400,374,o),
(333,374,cs),
(293,374,o),
(242,352,o),
(180,307,c),
(257,481,o),
(371,579,o),
(514,649,cs),
(517,650,o),
(519,654,o),
(519,659,cs),
(519,667,o),
(517,673,o),
(510,673,cs),
(509,673,o),
(508,673,o),
(506,672,cs),
(261,572,o),
(57,336,o),
(57,140,cs),
(57,42,o),
(101,-8,o),
(189,-8,cs)
);
},
{
closed = 1;
nodes = (
(160,31,o),
(135,63,o),
(135,129,cs),
(135,174,o),
(144,219,o),
(163,265,c),
(201,301,o),
(238,319,o),
(274,319,cs),
(330,319,o),
(357,284,o),
(357,215,cs),
(357,131,o),
(297,31,o),
(211,31,cs)
);
}
);
width = 467;
}
);
unicode = 54;
userData = {
KernOnSpecialSpacing = {
L = NoKerning;
R = NoKerning;
};
};
}
{
glyphname = seven;
kernLeft = seven.osf;
kernRight = seven.osf;
layers = (
{
layerId = master01;
shapes = (
{
closed = 1;
nodes = (
(-7,-196,o),
(-1,-195,o),
(1,-192,cs),
(420,381,ls),
(423,385,o),
(424,389,o),
(424,391,cs),
(424,401,o),
(418,407,o),
(405,407,cs),
(110,407,ls),
(97,407,o),
(86,402,o),
(80,388,cs),
(65,353,o),
(52,325,o),
(38,302,cs),
(33,294,o),
(53,284,o),
(59,291,cs),
(93,330,ls),
(105,344,o),
(125,349,o),
(147,349,cs),
(322,349,ls),
(333,349,o),
(339,346,o),
(339,337,cs),
(339,330,o),
(337,324,o),
(332,317,cs),
(-32,-176,ls),
(-34,-178,o),
(-33,-178,o),
(-33,-179,cs),
(-33,-186,o),
(-20,-196,o),
(-10,-196,cs)
);
}
);
width = 392;
},
{
layerId = "2438E31C-45B5-47A7-9B3D-1A0FEFB47671";
shapes = (
{
closed = 1;
nodes = (
(11,-200,o),
(15,-199,o),
(17,-196,cs),
(433,376,ls),
(438,383,o),
(443,391,o),
(443,398,cs),
(443,408,o),
(433,412,o),
(416,412,cs),
(121,412,ls),
(105,412,o),
(93,399,o),
(84,378,cs),
(68,341,o),
(58,326,o),
(40,295,cs),
(35,286,o),
(62,273,o),
(68,280,cs),
(90,308,ls),
(102,323,o),
(116,331,o),
(132,331,cs),
(317,331,ls),
(325,331,o),
(333,328,o),
(333,321,cs),
(333,318,o),
(332,315,o),
(330,312,cs),
(-28,-172,ls),
(-30,-174,o),
(-29,-173,o),
(-29,-175,cs),
(-29,-183,o),
(-5,-200,o),
(7,-200,cs)
);
}
);
width = 409;
},
{
layerId = "7904EAEE-2B64-409E-B923-0048172372BE";
shapes = (
{
closed = 1;
nodes = (
(-13,-194,o),
(-8,-193,o),
(-6,-190,cs),
(414,382,ls),
(415,384,o),
(416,387,o),
(416,388,cs),
(416,397,o),
(412,406,o),
(399,406,cs),
(104,406,ls),
(88,406,o),
(81,401,o),
(77,392,cs),
(62,357,o),
(47,325,o),
(34,302,cs),
(30,295,o),
(44,287,o),
(50,293,cs),
(92,337,ls),
(104,350,o),
(125,355,o),
(149,355,cs),
(320,355,ls),
(334,355,o),
(339,352,o),
(339,342,cs),
(339,333,o),
(337,326,o),
(331,318,cs),
(-36,-177,ls),
(-38,-179,o),
(-37,-179,o),
(-37,-181,cs),
(-37,-188,o),
(-25,-194,o),
(-19,-194,cs)
);
}
);
width = 386;
},
{
layerId = "E06D8587-1A71-4EC2-BD94-397D882F5FC1";
shapes = (
{
closed = 1;
nodes = (
(0,-197,o),
(3,-196,o),
(5,-193,cs),
(395,379,ls),
(399,385,o),
(402,390,o),
(402,396,cs),
(402,403,o),
(397,409,o),
(385,409,cs),
(149,409,ls),
(136,409,o),
(128,401,o),
(121,386,cs),
(104,351,o),
(98,339,o),
(76,298,cs),
(70,287,o),
(90,279,o),
(96,287,cs),
(123,323,ls),
(134,338,o),
(150,343,o),
(164,343,cs),
(307,343,ls),
(314,343,o),
(319,339,o),
(319,334,cs),
(319,328,o),
(317,321,o),
(313,315,cs),
(-24,-175,ls),
(-26,-177,o),
(-25,-178,o),
(-25,-179,cs),
(-25,-184,o),
(-13,-197,o),
(-4,-197,cs)
);
}
);
width = 374;
},
{
layerId = "8F7CDE40-C368-4484-AA71-76B7ABD5539F";
shapes = (
{
closed = 1;
nodes = (
(-11,-194,o),
(-7,-193,o),
(-5,-190,cs),
(442,383,ls),
(443,385,o),
(444,387,o),
(444,388,cs),
(444,397,o),
(436,406,o),
(421,406,cs),
(67,406,ls),
(51,406,o),
(39,401,o),
(35,391,cs),
(21,355,o),
(3,319,o),
(-3,309,cs),
(-6,304,o),
(10,287,o),
(18,295,cs),
(59,337,ls),
(70,348,o),
(91,355,o),
(125,355,cs),
(331,355,ls),
(350,355,o),
(355,351,o),
(355,338,cs),
(355,331,o),
(353,326,o),
(347,318,cs),
(-43,-177,ls),
(-45,-179,o),
(-44,-178,o),
(-44,-180,cs),
(-44,-187,o),
(-31,-194,o),
(-20,-194,cs)
);
}
);
width = 409;
},
{
layerId = "997BDFA1-EC67-4686-8CFE-E56BDBE179FE";
shapes = (
{
closed = 1;
nodes = (
(-7,-196,o),
(-1,-195,o),
(1,-192,cs),
(420,381,ls),
(423,385,o),
(424,389,o),
(424,391,cs),
(424,401,o),
(418,407,o),
(405,407,cs),
(110,407,ls),
(97,407,o),
(86,402,o),
(80,388,cs),
(65,353,o),
(52,325,o),
(38,302,cs),
(33,294,o),
(53,284,o),
(59,291,cs),
(93,330,ls),
(105,344,o),
(125,349,o),
(147,349,cs),
(322,349,ls),
(333,349,o),
(339,346,o),
(339,337,cs),
(339,330,o),
(337,324,o),
(332,317,cs),
(-32,-176,ls),
(-34,-178,o),
(-33,-178,o),
(-33,-179,cs),
(-33,-186,o),
(-20,-196,o),
(-10,-196,cs)
);
}
);
width = 392;
}
);
unicode = 55;
}
{
glyphname = eight;
kernRight = eight.osf;
layers = (
{
layerId = master01;
shapes = (
{
closed = 1;
nodes = (
(253,-15,o),
(349,80,o),
(349,191,cs),
(349,228,o),
(338,258,o),
(314,283,cs),
(280,318,l),
(366,357,o),
(444,431,o),
(444,512,cs),
(444,579,o),
(391,621,o),
(316,621,cs),
(213,621,o),
(113,539,o),
(113,434,cs),
(113,382,o),
(138,333,o),
(183,291,c),
(127,256,ls),
(45,207,o),
(7,146,o),
(7,90,cs),
(7,21,o),
(65,-15,o),
(136,-15,cs)
);
},
{
closed = 1;
nodes = (
(107,16,o),
(77,45,o),
(77,95,cs),
(77,161,o),
(128,227,o),
(201,272,c),
(251,233,o),
(275,195,o),
(275,149,cs),
(275,79,o),
(219,16,o),
(152,16,cs)
);
},
{
closed = 1;
nodes = (
(211,373,o),
(187,408,o),
(187,454,cs),
(187,528,o),
(248,591,o),
(311,591,cs),
(351,591,o),
(375,565,o),
(375,516,cs),
(375,454,o),
(336,392,o),
(259,337,c)
);
}
);
width = 398;
},
{
background = {
shapes = (
{
closed = 1;
nodes = (
(131,23,o),
(104,49,o),
(104,96,cs),
(104,144,o),
(131,206,o),
(204,260,c),
(248,222,o),
(269,186,o),
(269,141,cs),
(269,83,o),
(234,23,o),
(172,23,cs)
);
}
);
};
layerId = "2438E31C-45B5-47A7-9B3D-1A0FEFB47671";
shapes = (
{
closed = 1;
nodes = (
(282,-15,o),
(380,79,o),
(380,195,cs),
(380,235,o),
(368,272,o),
(330,307,cs),
(312,323,l),
(392,366,o),
(475,426,o),
(475,507,cs),
(475,572,o),
(420,621,o),
(334,621,cs),
(230,621,o),
(108,544,o),
(108,432,cs),
(108,387,o),
(129,340,o),
(176,285,c),
(148,271,ls),
(81,236,o),
(2,183,o),
(2,103,cs),
(2,28,o),
(71,-15,o),
(156,-15,cs)
);
},
{
closed = 1;
nodes = (
(131,23,o),
(104,49,o),
(104,96,cs),
(104,144,o),
(131,206,o),
(204,260,c),
(248,222,o),
(269,186,o),
(269,141,cs),
(269,83,o),
(234,23,o),
(172,23,cs)
);
},
{
closed = 1;
nodes = (
(239,385,o),
(219,420,o),
(219,461,cs),
(219,521,o),
(262,582,o),
(316,582,cs),
(353,582,o),
(375,554,o),
(375,508,cs),
(375,458,o),
(349,398,o),
(281,350,c)
);
}
);
width = 426;
},
{
layerId = "7904EAEE-2B64-409E-B923-0048172372BE";
shapes = (
{
closed = 1;
nodes = (
(245,-15,o),
(340,80,o),
(340,190,cs),
(340,226,o),
(330,253,o),
(310,275,cs),
(271,316,l),
(359,354,o),
(435,437,o),
(435,516,cs),
(435,581,o),
(383,621,o),
(312,621,cs),
(209,621,o),
(116,537,o),
(116,435,cs),
(116,380,o),
(143,331,o),
(187,293,c),
(122,251,ls),
(35,197,o),
(10,134,o),
(10,86,cs),
(10,19,o),
(65,-15,o),
(131,-15,cs)
);
},
{
closed = 1;
nodes = (
(101,14,o),
(70,44,o),
(70,95,cs),
(70,167,o),
(129,234,o),
(202,276,c),
(254,237,o),
(279,198,o),
(279,152,cs),
(279,78,o),
(216,14,o),
(147,14,cs)
);
},
{
closed = 1;
nodes = (
(203,369,o),
(178,404,o),
(178,452,cs),
(178,530,o),
(245,594,o),
(311,594,cs),
(352,594,o),
(377,569,o),
(377,519,cs),
(377,453,o),
(333,390,o),
(253,333,c)
);
}
);
width = 390;
},
{
layerId = "E06D8587-1A71-4EC2-BD94-397D882F5FC1";
shapes = (
{
closed = 1;
nodes = (
(206,-15,o),
(295,85,o),
(295,205,cs),
(295,239,o),
(287,268,o),
(268,292,cs),
(246,320,l),
(315,360,o),
(388,444,o),
(388,523,cs),
(388,579,o),
(351,621,o),
(290,621,cs),
(207,621,o),
(106,540,o),
(106,427,cs),
(106,381,o),
(123,331,o),
(154,289,c),
(117,262,ls),
(54,216,o),
(4,155,o),
(4,84,cs),
(4,20,o),
(50,-15,o),
(109,-15,cs)
);
},
{
closed = 1;
nodes = (
(91,19,o),
(71,45,o),
(71,88,cs),
(71,153,o),
(111,221,o),
(170,268,c),
(207,229,o),
(221,193,o),
(221,154,cs),
(221,80,o),
(176,19,o),
(125,19,cs)
);
},
{
closed = 1;
nodes = (
(195,374,o),
(179,406,o),
(179,447,cs),
(179,524,o),
(230,588,o),
(277,588,cs),
(306,588,o),
(323,566,o),
(323,524,cs),
(323,459,o),
(288,393,o),
(227,341,c)
);
}
);
width = 318;
},
{
layerId = "8F7CDE40-C368-4484-AA71-76B7ABD5539F";
shapes = (
{
closed = 1;
nodes = (
(296,-15,o),
(404,75,o),
(404,180,cs),
(404,224,o),
(386,253,o),
(362,274,cs),
(314,316,l),
(415,353,o),
(501,437,o),
(501,515,cs),
(501,582,o),
(429,621,o),
(342,621,cs),
(222,621,o),
(120,539,o),
(120,440,cs),
(120,376,o),
(158,330,o),
(212,293,c),
(137,251,ls),
(44,199,o),
(10,140,o),
(10,94,cs),
(10,20,o),
(83,-15,o),
(164,-15,cs)
);
},
{
closed = 1;
nodes = (
(125,13,o),
(83,44,o),
(83,100,cs),
(83,172,o),
(150,236,o),
(231,276,c),
(294,237,o),
(329,198,o),
(329,147,cs),
(329,77,o),
(260,13,o),
(179,13,cs)
);
},
{
closed = 1;
nodes = (
(231,369,o),
(195,406,o),
(195,459,cs),
(195,532,o),
(268,594,o),
(345,594,cs),
(394,594,o),
(428,567,o),
(428,510,cs),
(428,447,o),
(380,388,o),
(291,333,c)
);
}
);
width = 455;
},
{
layerId = "997BDFA1-EC67-4686-8CFE-E56BDBE179FE";
shapes = (
{
closed = 1;
nodes = (
(253,-15,o),
(349,80,o),
(349,191,cs),
(349,228,o),
(338,258,o),
(314,283,cs),
(280,318,l),
(366,357,o),
(444,431,o),
(444,512,cs),
(444,579,o),
(391,621,o),
(316,621,cs),
(213,621,o),
(113,539,o),
(113,434,cs),
(113,382,o),
(138,333,o),
(183,291,c),
(127,256,ls),
(45,207,o),
(7,146,o),
(7,90,cs),
(7,21,o),
(65,-15,o),
(136,-15,cs)
);
},
{
closed = 1;
nodes = (
(107,16,o),
(77,45,o),
(77,95,cs),
(77,161,o),
(128,227,o),
(201,272,c),
(251,233,o),
(275,195,o),
(275,149,cs),
(275,79,o),
(219,16,o),
(152,16,cs)
);
},
{
closed = 1;
nodes = (
(211,373,o),
(187,408,o),
(187,454,cs),
(187,528,o),
(248,591,o),
(311,591,cs),
(351,591,o),
(375,565,o),
(375,516,cs),
(375,454,o),
(336,392,o),
(259,337,c)
);
}
);
width = 398;
}
);
unicode = 56;
}
{
glyphname = nine;
layers = (
{
layerId = master01;
shapes = (
{
closed = 1;
nodes = (
(307,93,o),
(502,305,o),
(502,506,cs),
(502,593,o),
(456,651,o),
(366,651,cs),
(238,651,o),
(117,528,o),
(117,386,cs),
(117,323,o),
(166,269,o),
(234,269,cs),
(278,269,o),
(326,291,o),
(379,335,c),
(310,184,o),
(214,96,o),
(51,13,cs),
(48,12,o),
(47,7,o),
(47,-1,cs),
(48,-14,o),
(54,-17,o),
(60,-17,c)
);
},
{
closed = 1;
nodes = (
(229,323,o),
(202,366,o),
(202,425,cs),
(202,506,o),
(260,611,o),
(345,611,cs),
(397,611,o),
(423,579,o),
(423,514,cs),
(423,469,o),
(414,424,o),
(395,378,c),
(355,341,o),
(317,323,o),
(281,323,cs)
);
}
);
width = 467;
},
{
layerId = "2438E31C-45B5-47A7-9B3D-1A0FEFB47671";
shapes = (
{
closed = 1;
nodes = (
(284,75,o),
(518,272,o),
(518,495,cs),
(518,587,o),
(470,651,o),
(370,651,cs),
(207,651,o),
(98,500,o),
(98,389,cs),
(98,314,o),
(150,261,o),
(233,261,cs),
(267,261,o),
(320,285,o),
(347,306,c),
(267,165,o),
(194,91,o),
(50,21,cs),
(46,19,o),
(44,14,o),
(44,7,cs),
(44,-11,o),
(51,-20,o),
(60,-20,c)
);
},
{
closed = 1;
nodes = (
(238,329,o),
(218,374,o),
(218,420,cs),
(218,493,o),
(267,599,o),
(342,599,cs),
(385,599,o),
(407,572,o),
(407,519,cs),
(407,473,o),
(391,399,o),
(369,358,c),
(343,339,o),
(314,329,o),
(283,329,cs)
);
}
);
width = 466;
},
{
layerId = "7904EAEE-2B64-409E-B923-0048172372BE";
shapes = (
{
closed = 1;
nodes = (
(328,89,o),
(497,315,o),
(497,510,cs),
(497,595,o),
(451,651,o),
(365,651,cs),
(249,651,o),
(124,537,o),
(124,385,cs),
(124,326,o),
(170,271,o),
(235,271,cs),
(282,271,o),
(328,293,o),
(390,345,c),
(324,190,o),
(221,97,o),
(52,11,cs),
(49,9,o),
(48,4,o),
(48,-4,cs),
(49,-15,o),
(55,-16,o),
(60,-16,c)
);
},
{
closed = 1;
nodes = (
(225,321,o),
(196,363,o),
(196,427,cs),
(196,511,o),
(258,615,o),
(346,615,cs),
(401,615,o),
(429,581,o),
(429,513,cs),
(429,468,o),
(422,432,o),
(404,385,c),
(359,342,o),
(318,321,o),
(281,321,cs)
);
}
);
width = 467;
},
{
layerId = "E06D8587-1A71-4EC2-BD94-397D882F5FC1";
shapes = (
{
closed = 1;
nodes = (
(237,88,o),
(408,294,o),
(408,502,cs),
(408,591,o),
(370,651,o),
(295,651,cs),
(181,651,o),
(88,519,o),
(88,387,cs),
(88,320,o),
(128,267,o),
(188,267,cs),
(219,267,o),
(260,289,o),
(294,325,c),
(235,178,o),
(166,94,o),
(42,16,cs),
(39,14,o),
(38,11,o),
(38,1,cs),
(38,-13,o),
(43,-18,o),
(49,-18,c)
);
},
{
closed = 1;
nodes = (
(187,325,o),
(167,369,o),
(167,423,cs),
(167,502,o),
(211,607,o),
(276,607,cs),
(315,607,o),
(334,577,o),
(334,516,cs),
(334,469,o),
(324,416,o),
(309,371,c),
(281,340,o),
(253,325,o),
(227,325,cs)
);
}
);
width = 380;
},
{
layerId = "8F7CDE40-C368-4484-AA71-76B7ABD5539F";
shapes = (
{
closed = 1;
nodes = (
(377,98,o),
(596,315,o),
(596,510,cs),
(596,595,o),
(541,651,o),
(437,651,cs),
(295,651,o),
(146,537,o),
(146,385,cs),
(146,325,o),
(203,271,o),
(281,271,cs),
(337,271,o),
(393,293,o),
(464,345,c),
(384,190,o),
(262,97,o),
(61,10,cs),
(58,9,o),
(56,2,o),
(57,-4,cs),
(58,-15,o),
(64,-16,o),
(70,-16,c)
);
},
{
closed = 1;
nodes = (
(270,321,o),
(236,363,o),
(236,427,cs),
(236,511,o),
(309,615,o),
(414,615,cs),
(479,615,o),
(512,581,o),
(512,513,cs),
(512,469,o),
(503,432,o),
(481,385,c),
(429,343,o),
(381,321,o),
(335,321,cs)
);
}
);
width = 554;
},
{
layerId = "997BDFA1-EC67-4686-8CFE-E56BDBE179FE";
shapes = (
{
closed = 1;
nodes = (
(307,93,o),
(502,305,o),
(502,506,cs),
(502,593,o),
(456,651,o),
(366,651,cs),
(238,651,o),
(117,528,o),
(117,386,cs),
(117,323,o),
(166,269,o),
(234,269,cs),
(278,269,o),
(326,291,o),
(379,335,c),
(310,184,o),
(214,96,o),
(51,13,cs),
(48,12,o),
(47,7,o),
(47,-1,cs),
(48,-14,o),
(54,-17,o),
(60,-17,c)
);
},
{
closed = 1;
nodes = (
(229,323,o),
(202,366,o),
(202,425,cs),
(202,506,o),
(260,611,o),
(345,611,cs),
(397,611,o),
(423,579,o),
(423,514,cs),
(423,469,o),
(414,424,o),
(395,378,c),
(355,341,o),
(317,323,o),
(281,323,cs)
);
}
);
width = 467;
}
);
unicode = 57;
}
{
glyphname = colon;
layers = (
{
layerId = master01;
shapes = (
{
closed = 1;
nodes = (
(303,-24,o),
(356,16,o),
(356,85,cs),
(356,155,o),
(318,211,o),
(239,211,cs),
(161,211,o),
(113,157,o),
(113,95,cs),
(113,32,o),
(157,-24,o),
(230,-24,cs)
);
},
{
closed = 1;
nodes = (
(477,616,o),
(530,656,o),
(530,725,cs),
(530,793,o),
(493,850,o),
(413,850,cs),
(338,850,o),
(287,798,o),
(287,734,cs),
(287,673,o),
(329,616,o),
(404,616,cs)
);
}
);
width = 561;
},
{
layerId = "2438E31C-45B5-47A7-9B3D-1A0FEFB47671";
shapes = (
{
closed = 1;
nodes = (
(393,-27,o),
(463,38,o),
(463,131,cs),
(463,217,o),
(393,287,o),
(308,287,cs),
(221,287,o),
(152,214,o),
(152,131,cs),
(152,42,o),
(222,-27,o),
(307,-27,cs)
);
},
{
closed = 1;
nodes = (
(559,551,o),
(633,619,o),
(633,707,cs),
(633,797,o),
(563,864,o),
(478,864,cs),
(393,864,o),
(320,792,o),
(320,707,cs),
(320,622,o),
(393,551,o),
(478,551,cs)
);
}
);
width = 591;
},
{
layerId = "7904EAEE-2B64-409E-B923-0048172372BE";
shapes = (
{
closed = 1;
nodes = (
(273,-23,o),
(320,9,o),
(320,70,cs),
(320,134,o),
(293,186,o),
(216,186,cs),
(141,186,o),
(100,138,o),
(100,83,cs),
(100,29,o),
(135,-23,o),
(204,-23,cs)
);
},
{
closed = 1;
nodes = (
(450,638,o),
(496,668,o),
(496,731,cs),
(496,792,o),
(470,845,o),
(391,845,cs),
(320,845,o),
(276,800,o),
(276,743,cs),
(276,690,o),
(308,638,o),
(379,638,cs)
);
}
);
width = 551;
},
{
layerId = "E06D8587-1A71-4EC2-BD94-397D882F5FC1";
shapes = (
{
closed = 1;
nodes = (
(259,-25,o),
(308,24,o),
(308,100,cs),
(308,175,o),
(266,236,o),
(201,236,cs),
(136,236,o),
(90,176,o),
(90,107,cs),
(90,35,o),
(135,-25,o),
(197,-25,cs)
);
},
{
closed = 1;
nodes = (
(396,594,o),
(445,644,o),
(445,719,cs),
(445,794,o),
(404,855,o),
(339,855,cs),
(276,855,o),
(228,796,o),
(228,725,cs),
(228,656,o),
(272,594,o),
(335,594,cs)
);
}
);
width = 470;
},
{
layerId = "8F7CDE40-C368-4484-AA71-76B7ABD5539F";
shapes = (
{
closed = 1;
nodes = (
(347,-23,o),
(404,8,o),
(404,70,cs),
(404,135,o),
(370,186,o),
(277,186,cs),
(186,186,o),
(136,138,o),
(136,83,cs),
(136,29,o),
(179,-23,o),
(263,-23,cs)
);
},
{
closed = 1;
nodes = (
(558,638,o),
(615,668,o),
(615,731,cs),
(615,792,o),
(582,845,o),
(487,845,cs),
(400,845,o),
(346,800,o),
(346,743,cs),
(346,690,o),
(386,638,o),
(473,638,cs)
);
}
);
width = 652;
},
{
layerId = "997BDFA1-EC67-4686-8CFE-E56BDBE179FE";
shapes = (
{
closed = 1;
nodes = (
(303,-24,o),
(356,16,o),
(356,85,cs),
(356,155,o),
(318,211,o),
(239,211,cs),
(161,211,o),
(113,157,o),
(113,95,cs),
(113,32,o),
(157,-24,o),
(230,-24,cs)
);
},
{
closed = 1;
nodes = (
(477,616,o),
(530,656,o),
(530,725,cs),
(530,793,o),
(493,850,o),
(413,850,cs),
(338,850,o),
(287,798,o),
(287,734,cs),
(287,673,o),
(329,616,o),
(404,616,cs)
);
}
);
width = 561;
}
);
unicode = 58;
}
{
glyphname = semicolon;
layers = (
{
layerId = master01;
shapes = (
{
closed = 1;
nodes = (
(447,616,o),
(500,656,o),
(500,725,cs),
(500,793,o),
(463,850,o),
(383,850,cs),
(308,850,o),
(257,798,o),
(257,734,cs),
(257,673,o),
(299,616,o),
(374,616,cs)
);
},
{
closed = 1;
nodes = (
(-29,-370,o),
(-27,-370,o),
(-26,-369,cs),
(129,-299,o),
(380,-112,o),
(380,104,cs),
(380,168,o),
(331,236,o),
(251,236,cs),
(173,236,o),
(104,179,o),
(104,108,cs),
(104,65,o),
(131,27,o),
(187,4,cs),
(199,-1,o),
(205,-11,o),
(205,-25,cs),
(205,-39,o),
(204,-50,o),
(202,-57,cs),
(173,-159,o),
(50,-274,o),
(-46,-338,cs),
(-49,-340,o),
(-50,-343,o),
(-50,-346,cs),
(-50,-355,o),
(-44,-370,o),
(-31,-370,cs)
);
}
);
width = 561;
},
{
layerId = "2438E31C-45B5-47A7-9B3D-1A0FEFB47671";
shapes = (
{
closed = 1;
nodes = (
(526,551,o),
(600,619,o),
(600,707,cs),
(600,797,o),
(530,864,o),
(445,864,cs),
(360,864,o),
(287,792,o),
(287,707,cs),
(287,622,o),
(360,551,o),
(445,551,cs)
);
},
{
closed = 1;
nodes = (
(52,-305,o),
(55,-304,o),
(58,-303,cs),
(161,-269,o),
(488,-57,o),
(488,168,cs),
(488,270,o),
(424,332,o),
(329,332,cs),
(238,332,o),
(156,262,o),
(156,180,cs),
(156,125,o),
(178,75,o),
(234,55,cs),
(245,51,o),
(251,43,o),
(251,31,cs),
(251,26,o),
(250,20,o),
(248,14,cs),
(224,-58,o),
(138,-131,o),
(25,-244,cs),
(21,-248,o),
(18,-253,o),
(18,-260,cs),
(18,-274,o),
(33,-305,o),
(49,-305,cs)
);
}
);
width = 591;
},
{
layerId = "7904EAEE-2B64-409E-B923-0048172372BE";
shapes = (
{
closed = 1;
nodes = (
(421,638,o),
(467,668,o),
(467,731,cs),
(467,792,o),
(441,845,o),
(362,845,cs),
(291,845,o),
(247,800,o),
(247,743,cs),
(247,690,o),
(279,638,o),
(350,638,cs)
);
},
{
closed = 1;
nodes = (
(-56,-392,o),
(-54,-392,o),
(-54,-391,cs),
(118,-309,o),
(344,-130,o),
(344,83,cs),
(344,134,o),
(300,204,o),
(225,204,cs),
(151,204,o),
(87,151,o),
(87,84,cs),
(87,45,o),
(115,11,o),
(171,-13,cs),
(184,-18,o),
(190,-29,o),
(190,-44,cs),
(190,-61,o),
(189,-73,o),
(187,-81,cs),
(156,-193,o),
(21,-322,o),
(-70,-369,cs),
(-72,-371,o),
(-73,-373,o),
(-73,-375,cs),
(-73,-382,o),
(-70,-392,o),
(-58,-392,cs)
);
}
);
width = 551;
},
{
layerId = "E06D8587-1A71-4EC2-BD94-397D882F5FC1";
shapes = (
{
closed = 1;
nodes = (
(361,594,o),
(411,644,o),
(411,719,cs),
(411,793,o),
(370,855,o),
(304,855,cs),
(241,855,o),
(193,796,o),
(193,725,cs),
(193,656,o),
(237,594,o),
(300,594,cs)
);
},
{
closed = 1;
nodes = (
(-18,-348,o),
(-18,-348,o),
(-16,-347,cs),
(91,-289,o),
(317,-94,o),
(317,125,cs),
(317,202,o),
(273,268,o),
(204,268,cs),
(137,268,o),
(78,206,o),
(78,132,cs),
(78,85,o),
(98,43,o),
(143,21,cs),
(151,17,o),
(157,7,o),
(157,-6,cs),
(157,-16,o),
(156,-26,o),
(154,-35,cs),
(133,-123,o),
(47,-226,o),
(-35,-306,cs),
(-40,-311,o),
(-40,-314,o),
(-40,-317,cs),
(-40,-328,o),
(-32,-348,o),
(-21,-348,cs)
);
}
);
width = 460;
},
{
layerId = "8F7CDE40-C368-4484-AA71-76B7ABD5539F";
shapes = (
{
closed = 1;
nodes = (
(533,638,o),
(589,668,o),
(589,731,cs),
(589,793,o),
(556,845,o),
(462,845,cs),
(375,845,o),
(321,800,o),
(321,743,cs),
(321,690,o),
(361,638,o),
(448,638,cs)
);
},
{
closed = 1;
nodes = (
(-40,-392,o),
(-36,-392,o),
(-36,-391,cs),
(167,-309,o),
(443,-130,o),
(443,83,cs),
(443,134,o),
(389,204,o),
(298,204,cs),
(209,204,o),
(130,152,o),
(130,84,cs),
(130,45,o),
(164,11,o),
(231,-13,cs),
(247,-19,o),
(253,-29,o),
(253,-44,cs),
(253,-62,o),
(252,-74,o),
(250,-79,cs),
(213,-195,o),
(53,-322,o),
(-57,-370,cs),
(-58,-369,o),
(-60,-372,o),
(-60,-375,cs),
(-60,-382,o),
(-56,-392,o),
(-41,-392,cs)
);
}
);
width = 662;
},
{
layerId = "997BDFA1-EC67-4686-8CFE-E56BDBE179FE";
shapes = (
{
closed = 1;
nodes = (
(447,616,o),
(500,656,o),
(500,725,cs),
(500,793,o),
(463,850,o),
(383,850,cs),
(308,850,o),
(257,798,o),
(257,734,cs),
(257,673,o),
(299,616,o),
(374,616,cs)
);
},
{
closed = 1;
nodes = (
(-29,-370,o),
(-27,-370,o),
(-26,-369,cs),
(129,-299,o),
(380,-112,o),
(380,104,cs),
(380,168,o),
(331,236,o),
(251,236,cs),
(173,236,o),
(104,179,o),
(104,108,cs),
(104,65,o),
(131,27,o),
(187,4,cs),
(199,-1,o),
(205,-11,o),
(205,-25,cs),
(205,-39,o),
(204,-50,o),
(202,-57,cs),
(173,-159,o),
(50,-274,o),
(-46,-338,cs),
(-49,-340,o),
(-50,-343,o),
(-50,-346,cs),
(-50,-355,o),
(-44,-370,o),
(-31,-370,cs)
);
}
);
width = 561;
}
);
unicode = 59;
}
{
glyphname = less;
layers = (
{
layerId = master01;
shapes = (
{
closed = 1;
nodes = (
(909,115,l),
(209,444,l),
(209,400,l),
(909,727,l),
(909,846,l),
(113,467,l),
(113,375,l),
(909,-2,l)
);
}
);
width = 1024;
},
{
layerId = "2438E31C-45B5-47A7-9B3D-1A0FEFB47671";
shapes = (
{
closed = 1;
nodes = (
(946,162,l),
(301,440,l),
(301,404,l),
(946,682,l),
(946,866,l),
(76,485,l),
(76,356,l),
(946,-23,l)
);
}
);
width = 1024;
},
{
layerId = "7904EAEE-2B64-409E-B923-0048172372BE";
shapes = (
{
closed = 1;
nodes = (
(897,99,l),
(178,445,l),
(178,399,l),
(897,742,l),
(897,839,l),
(125,461,l),
(125,381,l),
(897,5,l)
);
}
);
width = 1024;
},
{
layerId = "E06D8587-1A71-4EC2-BD94-397D882F5FC1";
shapes = (
{
closed = 1;
nodes = (
(752,131,l),
(210,443,l),
(210,401,l),
(752,712,l),
(752,853,l),
(90,473,l),
(90,369,l),
(752,-9,l)
);
}
);
width = 844;
},
{
layerId = "8F7CDE40-C368-4484-AA71-76B7ABD5539F";
shapes = (
{
closed = 1;
nodes = (
(1066,99,l),
(208,445,l),
(208,399,l),
(1066,742,l),
(1066,839,l),
(136,461,l),
(136,381,l),
(1066,5,l)
);
}
);
width = 1204;
},
{
layerId = "997BDFA1-EC67-4686-8CFE-E56BDBE179FE";
shapes = (
{
closed = 1;
nodes = (
(909,115,l),
(209,444,l),
(209,400,l),
(909,727,l),
(909,846,l),
(113,467,l),
(113,375,l),
(909,-2,l)
);
}
);
width = 1024;
}
);
unicode = 60;
}
{
glyphname = equal;
layers = (
{
layerId = master01;
shapes = (
{
closed = 1;
nodes = (
(907,596,l),
(907,696,l),
(119,696,l),
(119,596,l)
);
},
{
closed = 1;
nodes = (
(907,330,l),
(907,430,l),
(119,430,l),
(119,330,l)
);
}
);
width = 1024;
},
{
layerId = "2438E31C-45B5-47A7-9B3D-1A0FEFB47671";
shapes = (
{
closed = 1;
nodes = (
(948,575,l),
(948,717,l),
(119,717,l),
(119,575,l)
);
},
{
closed = 1;
nodes = (
(948,268,l),
(948,410,l),
(119,410,l),
(119,268,l)
);
}
);
width = 1062;
},
{
layerId = "7904EAEE-2B64-409E-B923-0048172372BE";
shapes = (
{
closed = 1;
nodes = (
(893,603,l),
(893,689,l),
(119,689,l),
(119,603,l)
);
},
{
closed = 1;
nodes = (
(893,351,l),
(893,437,l),
(119,437,l),
(119,351,l)
);
}
);
width = 1011;
},
{
layerId = "E06D8587-1A71-4EC2-BD94-397D882F5FC1";
shapes = (
{
closed = 1;
nodes = (
(740,589,l),
(740,703,l),
(95,703,l),
(95,589,l)
);
},
{
closed = 1;
nodes = (
(740,309,l),
(740,423,l),
(95,423,l),
(95,309,l)
);
}
);
width = 833;
},
{
layerId = "8F7CDE40-C368-4484-AA71-76B7ABD5539F";
shapes = (
{
closed = 1;
nodes = (
(907,596,l),
(907,696,l),
(119,696,l),
(119,596,l)
);
},
{
closed = 1;
nodes = (
(907,330,l),
(907,430,l),
(119,430,l),
(119,330,l)
);
}
);
width = 1024;
},
{
layerId = "997BDFA1-EC67-4686-8CFE-E56BDBE179FE";
shapes = (
{
closed = 1;
nodes = (
(907,596,l),
(907,696,l),
(119,696,l),
(119,596,l)
);
},
{
closed = 1;
nodes = (
(907,330,l),
(907,430,l),
(119,430,l),
(119,330,l)
);
}
);
width = 1024;
}
);
unicode = 61;
}
{
glyphname = greater;
layers = (
{
layerId = master01;
shapes = (
{
closed = 1;
nodes = (
(444,183,l),
(444,228,l),
(55,413,l),
(55,355,l),
(397,195,l),
(397,217,l),
(55,56,l),
(55,-1,l)
);
}
);
width = 500;
},
{
layerId = "2438E31C-45B5-47A7-9B3D-1A0FEFB47671";
shapes = (
{
closed = 1;
nodes = (
(462,174,l),
(462,237,l),
(37,423,l),
(37,333,l),
(352,197,l),
(352,215,l),
(37,79,l),
(37,-11,l)
);
}
);
width = 500;
},
{
layerId = "7904EAEE-2B64-409E-B923-0048172372BE";
shapes = (
{
closed = 1;
nodes = (
(438,186,l),
(438,225,l),
(61,410,l),
(61,362,l),
(412,195,l),
(412,217,l),
(61,48,l),
(61,2,l)
);
}
);
width = 500;
},
{
layerId = "E06D8587-1A71-4EC2-BD94-397D882F5FC1";
shapes = (
{
closed = 1;
nodes = (
(367,180,l),
(367,231,l),
(44,417,l),
(44,348,l),
(309,196,l),
(309,216,l),
(44,64,l),
(44,-4,l)
);
}
);
width = 412;
},
{
layerId = "8F7CDE40-C368-4484-AA71-76B7ABD5539F";
shapes = (
{
closed = 1;
nodes = (
(521,186,l),
(521,225,l),
(66,410,l),
(66,362,l),
(485,195,l),
(485,217,l),
(66,48,l),
(66,2,l)
);
}
);
width = 588;
},
{
layerId = "997BDFA1-EC67-4686-8CFE-E56BDBE179FE";
shapes = (
{
closed = 1;
nodes = (
(444,183,l),
(444,228,l),
(55,413,l),
(55,355,l),
(397,195,l),
(397,217,l),
(55,56,l),
(55,-1,l)
);
}
);
width = 500;
}
);
unicode = 62;
userData = {
KernOnSpecialSpacing = {
L = NoKerning;
R = NoKerning;
};
};
}
{
glyphname = question;
kernLeft = question;
layers = (
{
layerId = master01;
shapes = (
{
closed = 1;
nodes = (
(283,419,o),
(313,422,o),
(313,438,cs),
(313,549,o),
(325,605,o),
(430,653,cs),
(569,717,ls),
(703,779,o),
(772,904,o),
(772,1059,cs),
(772,1209,o),
(662,1362,o),
(518,1362,cs),
(466,1362,o),
(406,1321,o),
(406,1260,cs),
(406,1228,o),
(432,1194,o),
(455,1194,cs),
(617,1194,o),
(698,1148,o),
(698,1055,cs),
(698,966,o),
(641,897,o),
(528,844,cs),
(408,788,ls),
(297,736,o),
(242,666,o),
(242,575,cs),
(242,534,o),
(249,487,o),
(266,426,cs),
(267,421,o),
(271,419,o),
(278,419,cs)
);
},
{
closed = 1;
nodes = (
(269,-25,o),
(318,18,o),
(318,86,cs),
(318,153,o),
(279,211,o),
(199,211,cs),
(124,211,o),
(75,156,o),
(75,92,cs),
(75,32,o),
(120,-25,o),
(194,-25,cs)
);
}
);
width = 678;
},
{
layerId = "2438E31C-45B5-47A7-9B3D-1A0FEFB47671";
shapes = (
{
closed = 1;
nodes = (
(310,415,o),
(350,421,o),
(350,442,cs),
(350,546,o),
(368,579,o),
(471,623,cs),
(611,683,ls),
(748,742,o),
(809,859,o),
(809,1026,cs),
(809,1202,o),
(714,1376,o),
(547,1376,cs),
(470,1376,o),
(397,1309,o),
(397,1243,cs),
(397,1193,o),
(444,1145,o),
(483,1145,cs),
(636,1145,o),
(713,1110,o),
(713,1042,cs),
(713,975,o),
(655,917,o),
(539,866,cs),
(418,813,ls),
(309,765,o),
(254,702,o),
(254,584,cs),
(254,553,o),
(263,500,o),
(283,426,cs),
(285,419,o),
(291,415,o),
(300,415,cs)
);
},
{
closed = 1;
nodes = (
(309,-27,o),
(375,34,o),
(375,127,cs),
(375,214,o),
(318,289,o),
(224,289,cs),
(132,289,o),
(68,217,o),
(68,126,cs),
(68,34,o),
(136,-27,o),
(224,-27,cs)
);
}
);
width = 692;
},
{
layerId = "7904EAEE-2B64-409E-B923-0048172372BE";
shapes = (
{
closed = 1;
nodes = (
(281,421,o),
(301,422,o),
(301,437,cs),
(301,550,o),
(311,614,o),
(416,663,cs),
(570,735,ls),
(689,791,o),
(760,919,o),
(760,1070,cs),
(760,1211,o),
(645,1357,o),
(508,1357,cs),
(465,1357,o),
(409,1325,o),
(409,1266,cs),
(409,1240,o),
(428,1210,o),
(446,1210,cs),
(611,1210,o),
(693,1161,o),
(693,1059,cs),
(693,963,o),
(636,891,o),
(524,837,cs),
(405,780,ls),
(293,726,o),
(238,654,o),
(238,572,cs),
(238,528,o),
(241,482,o),
(260,426,cs),
(261,422,o),
(265,421,o),
(270,421,cs)
);
},
{
closed = 1;
nodes = (
(256,-24,o),
(299,13,o),
(299,72,cs),
(299,133,o),
(266,185,o),
(191,185,cs),
(121,185,o),
(77,136,o),
(77,81,cs),
(77,31,o),
(115,-24,o),
(184,-24,cs)
);
}
);
width = 673;
},
{
layerId = "E06D8587-1A71-4EC2-BD94-397D882F5FC1";
shapes = (
{
closed = 1;
nodes = (
(237,418,o),
(265,422,o),
(265,439,cs),
(265,548,o),
(277,596,o),
(360,643,cs),
(469,705,ls),
(578,767,o),
(633,888,o),
(633,1048,cs),
(633,1207,o),
(549,1367,o),
(426,1367,cs),
(377,1367,o),
(324,1317,o),
(324,1254,cs),
(324,1217,o),
(352,1178,o),
(376,1178,cs),
(503,1178,o),
(565,1135,o),
(565,1051,cs),
(565,969,o),
(520,904,o),
(428,851,cs),
(332,796,ls),
(249,749,o),
(200,682,o),
(200,578,cs),
(200,538,o),
(207,489,o),
(221,426,cs),
(222,420,o),
(227,418,o),
(232,418,cs)
);
},
{
closed = 1;
nodes = (
(230,-26,o),
(275,23,o),
(275,100,cs),
(275,173,o),
(238,237,o),
(170,237,cs),
(104,237,o),
(60,176,o),
(60,103,cs),
(60,33,o),
(104,-26,o),
(167,-26,cs)
);
}
);
width = 557;
},
{
layerId = "8F7CDE40-C368-4484-AA71-76B7ABD5539F";
shapes = (
{
closed = 1;
nodes = (
(329,420,o),
(361,422,o),
(361,437,cs),
(361,550,o),
(373,614,o),
(500,663,cs),
(669,729,ls),
(828,791,o),
(911,920,o),
(911,1070,cs),
(911,1211,o),
(775,1357,o),
(610,1357,cs),
(555,1357,o),
(488,1325,o),
(488,1266,cs),
(488,1239,o),
(512,1210,o),
(534,1210,cs),
(731,1210,o),
(831,1161,o),
(831,1059,cs),
(831,963,o),
(762,890,o),
(628,837,cs),
(484,780,ls),
(345,723,o),
(284,650,o),
(284,572,cs),
(284,530,o),
(291,485,o),
(311,426,cs),
(312,422,o),
(315,420,o),
(324,420,cs)
);
},
{
closed = 1;
nodes = (
(308,-24,o),
(361,13,o),
(361,72,cs),
(361,133,o),
(320,185,o),
(228,185,cs),
(144,185,o),
(90,136,o),
(90,81,cs),
(90,31,o),
(136,-24,o),
(221,-24,cs)
);
}
);
width = 799;
},
{
layerId = "997BDFA1-EC67-4686-8CFE-E56BDBE179FE";
shapes = (
{
closed = 1;
nodes = (
(283,419,o),
(313,422,o),
(313,438,cs),
(313,549,o),
(325,605,o),
(430,653,cs),
(569,717,ls),
(703,779,o),
(772,904,o),
(772,1059,cs),
(772,1209,o),
(662,1362,o),
(518,1362,cs),
(466,1362,o),
(406,1321,o),
(406,1260,cs),
(406,1228,o),
(432,1194,o),
(455,1194,cs),
(617,1194,o),
(698,1148,o),
(698,1055,cs),
(698,966,o),
(641,897,o),
(528,844,cs),
(408,788,ls),
(297,736,o),
(242,666,o),
(242,575,cs),
(242,534,o),
(249,487,o),
(266,426,cs),
(267,421,o),
(271,419,o),
(278,419,cs)
);
},
{
closed = 1;
nodes = (
(269,-25,o),
(318,18,o),
(318,86,cs),
(318,153,o),
(279,211,o),
(199,211,cs),
(124,211,o),
(75,156,o),
(75,92,cs),
(75,32,o),
(120,-25,o),
(194,-25,cs)
);
}
);
width = 678;
}
);
unicode = 63;
}
{
glyphname = at;
layers = (
{
layerId = master01;
shapes = (
{
closed = 1;
nodes = (
(1093,-33,o),
(1223,4,o),
(1336,72,cs),
(1341,75,o),
(1341,82,o),
(1335,95,cs),
(1329,108,o),
(1324,113,o),
(1319,111,cs),
(1203,65,o),
(1098,39,o),
(1002,39,cs),
(621,39,o),
(391,266,o),
(391,602,cs),
(391,1003,o),
(642,1315,o),
(1061,1315,cs),
(1352,1315,o),
(1575,1125,o),
(1575,844,cs),
(1575,597,o),
(1400,426,o),
(1159,426,cs),
(1108,426,o),
(1112,479,o),
(1127,532,cs),
(1268,1024,ls),
(1271,1035,o),
(1254,1042,o),
(1226,1042,cs),
(1198,1042,o),
(1182,1036,o),
(1178,1024,cs),
(1162,973,l),
(1129,1000,o),
(1096,1014,o),
(1061,1014,cs),
(854,1014,o),
(656,691,o),
(656,487,cs),
(656,402,o),
(687,360,o),
(748,360,cs),
(829,360,o),
(930,440,o),
(1051,600,c),
(1059,596,l),
(1034,547,o),
(1010,445,o),
(1010,422,cs),
(1010,371,o),
(1045,358,o),
(1133,358,cs),
(1439,358,o),
(1663,566,o),
(1663,852,cs),
(1663,1169,o),
(1410,1384,o),
(1059,1384,cs),
(615,1384,o),
(250,1060,o),
(250,600,cs),
(250,200,o),
(554,-33,o),
(940,-33,cs)
);
},
{
closed = 1;
nodes = (
(781,442,o),
(766,465,o),
(766,512,cs),
(766,656,o),
(893,965,o),
(1041,965,cs),
(1106,965,o),
(1139,944,o),
(1139,901,c),
(1117,824,ls),
(1084,707,o),
(1045,649,o),
(980,574,cs),
(903,486,o),
(846,442,o),
(811,442,cs)
);
}
);
width = 1613;
},
{
layerId = "2438E31C-45B5-47A7-9B3D-1A0FEFB47671";
shapes = (
{
closed = 1;
nodes = (
(1067,-33,o),
(1206,2,o),
(1322,76,cs),
(1333,83,o),
(1333,94,o),
(1326,109,cs),
(1318,126,o),
(1308,133,o),
(1295,127,cs),
(1186,77,o),
(1077,55,o),
(972,55,cs),
(592,55,o),
(382,295,o),
(382,604,cs),
(382,992,o),
(645,1298,o),
(1011,1298,cs),
(1309,1298,o),
(1525,1108,o),
(1525,840,cs),
(1525,609,o),
(1357,430,o),
(1129,430,cs),
(1097,430,o),
(1101,484,o),
(1115,532,cs),
(1256,1010,ls),
(1261,1027,o),
(1246,1039,o),
(1213,1049,cs),
(1172,1061,o),
(1149,1056,o),
(1140,1034,cs),
(1119,983,l),
(1098,1004,o),
(1068,1014,o),
(1027,1014,cs),
(801,1014,o),
(605,693,o),
(605,494,cs),
(605,403,o),
(643,358,o),
(718,358,cs),
(783,358,o),
(867,413,o),
(968,524,c),
(978,518,l),
(965,481,o),
(959,454,o),
(959,436,cs),
(959,372,o),
(1013,352,o),
(1103,352,cs),
(1427,352,o),
(1654,574,o),
(1654,848,cs),
(1654,1175,o),
(1382,1384,o),
(1029,1384,cs),
(542,1384,o),
(200,1042,o),
(200,602,cs),
(200,184,o),
(542,-33,o),
(910,-33,cs)
);
},
{
closed = 1;
nodes = (
(767,449,o),
(757,471,o),
(757,518,cs),
(757,660,o),
(888,967,o),
(1011,967,cs),
(1054,967,o),
(1082,951,o),
(1095,920,c),
(1052,772,ls),
(1029,692,o),
(994,628,o),
(953,580,cs),
(878,493,o),
(822,449,o),
(787,449,cs)
);
}
);
width = 1594;
},
{
layerId = "7904EAEE-2B64-409E-B923-0048172372BE";
shapes = (
{
closed = 1;
nodes = (
(1102,-33,o),
(1229,5,o),
(1341,71,cs),
(1344,72,o),
(1344,78,o),
(1338,90,cs),
(1333,102,o),
(1329,106,o),
(1327,106,cs),
(1209,61,o),
(1105,34,o),
(1012,34,cs),
(631,34,o),
(394,256,o),
(394,601,cs),
(394,1007,o),
(641,1321,o),
(1078,1321,cs),
(1366,1321,o),
(1592,1131,o),
(1592,845,cs),
(1592,593,o),
(1414,425,o),
(1169,425,cs),
(1112,425,o),
(1115,476,o),
(1131,532,cs),
(1270,1020,ls),
(1275,1038,o),
(1257,1042,o),
(1234,1042,cs),
(1207,1042,o),
(1194,1033,o),
(1191,1021,cs),
(1176,970,l),
(1139,999,o),
(1105,1014,o),
(1072,1014,cs),
(872,1014,o),
(673,690,o),
(673,485,cs),
(673,402,o),
(702,361,o),
(758,361,cs),
(844,361,o),
(951,449,o),
(1079,625,c),
(1086,622,l),
(1057,569,o),
(1027,442,o),
(1027,417,cs),
(1027,371,o),
(1056,360,o),
(1143,360,cs),
(1443,360,o),
(1666,563,o),
(1666,853,cs),
(1666,1167,o),
(1419,1384,o),
(1069,1384,cs),
(639,1384,o),
(267,1066,o),
(267,599,cs),
(267,205,o),
(558,-33,o),
(950,-33,cs)
);
},
{
closed = 1;
nodes = (
(786,440,o),
(769,463,o),
(769,510,cs),
(769,655,o),
(895,964,o),
(1051,964,cs),
(1123,964,o),
(1150,942,o),
(1154,895,c),
(1139,841,ls),
(1102,712,o),
(1063,655,o),
(989,572,cs),
(911,484,o),
(854,440,o),
(819,440,cs)
);
}
);
width = 1619;
},
{
layerId = "E06D8587-1A71-4EC2-BD94-397D882F5FC1";
shapes = (
{
closed = 1;
nodes = (
(879,-33,o),
(989,3,o),
(1078,71,cs),
(1088,78,o),
(1087,86,o),
(1082,99,cs),
(1076,114,o),
(1071,120,o),
(1063,116,cs),
(973,69,o),
(888,44,o),
(809,44,cs),
(504,44,o),
(327,276,o),
(327,603,cs),
(327,999,o),
(532,1309,o),
(849,1309,cs),
(1084,1309,o),
(1260,1119,o),
(1260,843,cs),
(1260,601,o),
(1122,427,o),
(934,427,cs),
(899,427,o),
(903,481,o),
(915,532,cs),
(1027,1020,ls),
(1030,1032,o),
(1018,1041,o),
(993,1044,cs),
(961,1048,o),
(951,1040,o),
(947,1027,cs),
(932,976,l),
(908,1003,o),
(882,1014,o),
(854,1014,cs),
(682,1014,o),
(525,691,o),
(525,489,cs),
(525,403,o),
(552,359,o),
(605,359,cs),
(663,359,o),
(740,431,o),
(830,575,c),
(837,570,l),
(821,525,o),
(808,449,o),
(808,427,cs),
(808,371,o),
(843,356,o),
(913,356,cs),
(1164,356,o),
(1344,570,o),
(1344,851,cs),
(1344,1171,o),
(1135,1384,o),
(854,1384,cs),
(485,1384,o),
(200,1054,o),
(200,601,cs),
(200,195,o),
(456,-33,o),
(759,-33,cs)
);
},
{
closed = 1;
nodes = (
(637,444,o),
(627,467,o),
(627,514,cs),
(627,657,o),
(729,966,o),
(840,966,cs),
(884,966,o),
(910,946,o),
(913,907,c),
(889,807,ls),
(864,704,o),
(836,642,o),
(792,577,cs),
(732,489,o),
(685,444,o),
(658,444,cs)
);
}
);
width = 1304;
},
{
layerId = "8F7CDE40-C368-4484-AA71-76B7ABD5539F";
shapes = (
{
closed = 1;
nodes = (
(1307,-33,o),
(1457,5,o),
(1594,73,cs),
(1594,72,o),
(1595,78,o),
(1588,91,cs),
(1582,102,o),
(1577,106,o),
(1575,106,cs),
(1433,61,o),
(1308,34,o),
(1195,34,cs),
(738,34,o),
(455,256,o),
(455,601,cs),
(455,1007,o),
(752,1321,o),
(1273,1321,cs),
(1620,1321,o),
(1890,1131,o),
(1890,845,cs),
(1890,593,o),
(1678,425,o),
(1384,425,cs),
(1317,425,o),
(1321,477,o),
(1339,532,cs),
(1509,1028,ls),
(1512,1038,o),
(1490,1043,o),
(1459,1040,cs),
(1435,1036,o),
(1413,1032,o),
(1409,1021,cs),
(1392,970,l),
(1350,997,o),
(1310,1014,o),
(1268,1014,cs),
(1026,1014,o),
(787,691,o),
(787,485,cs),
(787,401,o),
(822,361,o),
(891,361,cs),
(995,361,o),
(1120,449,o),
(1272,625,c),
(1281,622,l),
(1247,569,o),
(1212,441,o),
(1212,417,cs),
(1212,371,o),
(1247,360,o),
(1353,360,cs),
(1714,360,o),
(1982,562,o),
(1982,853,cs),
(1982,1167,o),
(1685,1384,o),
(1264,1384,cs),
(745,1384,o),
(300,1066,o),
(300,599,cs),
(300,205,o),
(652,-33,o),
(1121,-33,cs)
);
},
{
closed = 1;
nodes = (
(925,440,o),
(905,463,o),
(905,510,cs),
(905,655,o),
(1057,964,o),
(1242,964,cs),
(1328,964,o),
(1368,942,o),
(1365,895,c),
(1345,841,ls),
(1304,710,o),
(1254,656,o),
(1168,571,cs),
(1074,483,o),
(1007,440,o),
(964,440,cs)
);
}
);
width = 1922;
},
{
layerId = "997BDFA1-EC67-4686-8CFE-E56BDBE179FE";
shapes = (
{
closed = 1;
nodes = (
(1093,-33,o),
(1223,4,o),
(1336,72,cs),
(1341,75,o),
(1341,82,o),
(1335,95,cs),
(1329,108,o),
(1324,113,o),
(1319,111,cs),
(1203,65,o),
(1098,39,o),
(1002,39,cs),
(621,39,o),
(391,266,o),
(391,602,cs),
(391,1003,o),
(642,1315,o),
(1061,1315,cs),
(1352,1315,o),
(1575,1125,o),
(1575,844,cs),
(1575,597,o),
(1400,426,o),
(1159,426,cs),
(1108,426,o),
(1112,479,o),
(1127,532,cs),
(1268,1024,ls),
(1271,1035,o),
(1254,1042,o),
(1226,1042,cs),
(1198,1042,o),
(1182,1036,o),
(1178,1024,cs),
(1162,973,l),
(1129,1000,o),
(1096,1014,o),
(1061,1014,cs),
(854,1014,o),
(656,691,o),
(656,487,cs),
(656,402,o),
(687,360,o),
(748,360,cs),
(829,360,o),
(930,440,o),
(1051,600,c),
(1059,596,l),
(1034,547,o),
(1010,445,o),
(1010,422,cs),
(1010,371,o),
(1045,358,o),
(1133,358,cs),
(1439,358,o),
(1663,566,o),
(1663,852,cs),
(1663,1169,o),
(1410,1384,o),
(1059,1384,cs),
(615,1384,o),
(250,1060,o),
(250,600,cs),
(250,200,o),
(554,-33,o),
(940,-33,cs)
);
},
{
closed = 1;
nodes = (
(781,442,o),
(766,465,o),
(766,512,cs),
(766,656,o),
(893,965,o),
(1041,965,cs),
(1106,965,o),
(1139,944,o),
(1139,901,c),
(1117,824,ls),
(1084,707,o),
(1045,649,o),
(980,574,cs),
(903,486,o),
(846,442,o),
(811,442,cs)
);
}
);
width = 1613;
}
);
unicode = 64;
}
{
glyphname = A;
layers = (
{
anchors = (
{
name = bottom;
pos = (471,0);
},
{
name = ogonek;
pos = (906,40);
},
{
name = ogonekabove;
pos = (1003,1363);
},
{
name = top;
pos = (916,1363);
}
);
hints = (
{
horizontal = 1;
options = 4;
origin = (0,2);
target = (0,61);
type = TTStem;
},
{
horizontal = 1;
options = 4;
origin = (0,2);
target = (0,23);
type = TTShift;
},
{
horizontal = 1;
options = 4;
origin = (0,61);
target = (0,8);
type = TTShift;
},
{
horizontal = 1;
options = 4;
origin = (0,61);
target = (0,17);
type = TTShift;
},
{
horizontal = 1;
options = 4;
origin = (0,61);
target = (0,29);
type = TTShift;
},
{
horizontal = 1;
options = 4;
origin = (0,39);
target = (0,13);
type = TTShift;
},
{
horizontal = 1;
origin = (0,2);
other1 = (1,3);
target = (0,39);
type = TTInterpolate;
},
{
horizontal = 1;
options = 4;
origin = (1,3);
target = (1,2);
type = TTStem;
}
);
layerId = master01;
shapes = (
{
closed = 1;
nodes = (
(-53,-2,o),
(18,0,o),
(89,0,cs),
(160,0,o),
(231,-2,o),
(302,-7,c),
(320,-7,o),
(341,69,o),
(323,69,cs),
(178,69,o),
(166,109,o),
(214,182,cs),
(868,1178,l),
(888,1178,l),
(773,186,ls),
(764,109,o),
(742,69,o),
(629,69,cs),
(611,69,o),
(589,-7,o),
(607,-7,c),
(678,-2,o),
(749,0,o),
(820,0,cs),
(890,0,o),
(961,-2,o),
(1032,-7,c),
(1050,-7,o),
(1070,69,o),
(1052,69,cs),
(908,69,o),
(900,109,o),
(909,186,cs),
(1026,1179,ls),
(1038,1280,o),
(1049,1341,o),
(1055,1367,c),
(1055,1379,o),
(1050,1385,o),
(1040,1385,cs),
(1029,1385,o),
(1008,1376,o),
(977,1359,cs),
(945,1341,o),
(896,1320,o),
(854,1303,cs),
(814,1287,o),
(806,1280,o),
(806,1273,cs),
(806,1268,o),
(809,1262,o),
(814,1255,cs),
(819,1248,o),
(822,1242,o),
(822,1237,cs),
(822,1227,o),
(816,1214,o),
(806,1199,cs),
(132,201,ls),
(70,109,o),
(26,69,o),
(-104,69,cs),
(-122,69,o),
(-142,-7,o),
(-124,-7,c)
);
},
{
closed = 1;
nodes = (
(882,531,l),
(889,600,l),
(442,600,l),
(400,531,l)
);
}
);
width = 1108;
},
{
anchors = (
{
name = bottom;
pos = (499,0);
},
{
name = ogonek;
pos = (906,40);
},
{
name = ogonekabove;
pos = (1016,1363);
},
{
name = top;
pos = (894,1363);
}
);
background = {
anchors = (
{
name = bottom;
pos = (449,-198);
},
{
name = ogonek;
pos = (906,10);
},
{
name = top;
pos = (925,1468);
}
);
shapes = (
{
closed = 1;
nodes = (
(-84,-3,o),
(-15,0,o),
(54,0,cs),
(122,0,o),
(191,-3,o),
(259,-8,c),
(277,-8,o),
(298,86,o),
(280,86,cs),
(201,86,o),
(184,127,o),
(233,201,cs),
(806,1076,l),
(822,1076,l),
(717,203,ls),
(708,126,o),
(683,86,o),
(590,86,cs),
(573,86,o),
(549,-8,o),
(569,-8,c),
(646,-3,o),
(723,0,o),
(800,0,cs),
(876,0,o),
(953,-3,o),
(1030,-8,c),
(1048,-8,o),
(1071,86,o),
(1053,86,cs),
(936,86,o),
(919,126,o),
(928,203,cs),
(1044,1151,ls),
(1054,1229,o),
(1067,1285,o),
(1079,1335,c),
(1079,1369,o),
(1065,1386,o),
(1043,1386,cs),
(1019,1386,o),
(992,1376,o),
(955,1357,cs),
(918,1338,o),
(876,1319,o),
(829,1303,cs),
(784,1288,o),
(762,1273,o),
(762,1260,cs),
(762,1253,o),
(765,1245,o),
(771,1237,cs),
(777,1229,o),
(780,1222,o),
(780,1215,cs),
(780,1208,o),
(777,1200,o),
(772,1192,cs),
(117,217,ls),
(56,126,o),
(-2,86,o),
(-129,86,cs),
(-147,86,o),
(-170,-8,o),
(-152,-8,c)
);
},
{
closed = 1;
nodes = (
(847,522,l),
(861,606,l),
(438,606,l),
(379,522,l)
);
}
);
};
layerId = "2438E31C-45B5-47A7-9B3D-1A0FEFB47671";
shapes = (
{
closed = 1;
nodes = (
(-75,-3,o),
(2,0,o),
(79,0,cs),
(155,0,o),
(232,-3,o),
(309,-8,c),
(327,-8,o),
(348,86,o),
(330,86,cs),
(209,86,o),
(184,127,o),
(233,201,cs),
(802,1069,l),
(821,1069,l),
(717,203,ls),
(708,126,o),
(683,86,o),
(590,86,cs),
(573,86,o),
(549,-8,o),
(569,-8,c),
(646,-3,o),
(723,0,o),
(800,0,cs),
(876,0,o),
(953,-3,o),
(1030,-8,c),
(1048,-8,o),
(1071,86,o),
(1053,86,cs),
(936,86,o),
(919,126,o),
(928,203,cs),
(1044,1151,ls),
(1054,1229,o),
(1067,1285,o),
(1079,1335,c),
(1079,1369,o),
(1065,1386,o),
(1043,1386,cs),
(1019,1386,o),
(992,1376,o),
(955,1357,cs),
(918,1338,o),
(876,1319,o),
(829,1303,cs),
(784,1288,o),
(762,1273,o),
(762,1260,cs),
(762,1253,o),
(765,1245,o),
(771,1237,cs),
(777,1229,o),
(780,1222,o),
(780,1215,cs),
(780,1208,o),
(777,1200,o),
(772,1192,cs),
(117,217,ls),
(56,126,o),
(-2,86,o),
(-129,86,cs),
(-147,86,o),
(-170,-8,o),
(-152,-8,c)
);
},
{
closed = 1;
nodes = (
(867,522,l),
(881,606,l),
(438,606,l),
(379,522,l)
);
}
);
width = 1163;
},
{
anchors = (
{
name = bottom;
pos = (462,0);
},
{
name = ogonek;
pos = (906,40);
},
{
name = ogonekabove;
pos = (998,1363);
},
{
name = top;
pos = (923,1363);
}
);
background = {
anchors = (
{
name = bottom;
pos = (401,-181);
},
{
name = ogonek;
pos = (906,10);
},
{
name = top;
pos = (955,1457);
}
);
shapes = (
{
closed = 1;
nodes = (
(-56,-2,o),
(3,0,o),
(63,0,cs),
(122,0,o),
(181,-2,o),
(240,-7,c),
(258,-7,o),
(279,63,o),
(261,63,cs),
(173,63,o),
(160,103,o),
(208,176,cs),
(896,1221,l),
(912,1221,l),
(792,180,ls),
(783,103,o),
(759,63,o),
(642,63,cs),
(624,63,o),
(602,-7,o),
(620,-7,c),
(680,-2,o),
(749,0,o),
(825,0,cs),
(902,0,o),
(971,-2,o),
(1033,-7,c),
(1051,-7,o),
(1070,63,o),
(1052,63,cs),
(904,63,o),
(894,103,o),
(903,180,cs),
(1020,1188,ls),
(1033,1297,o),
(1043,1360,o),
(1047,1378,c),
(1047,1382,o),
(1045,1385,o),
(1039,1385,cs),
(1032,1385,o),
(1013,1376,o),
(984,1360,cs),
(954,1342,o),
(903,1320,o),
(862,1303,cs),
(824,1287,o),
(821,1282,o),
(821,1277,cs),
(821,1273,o),
(824,1268,o),
(828,1261,cs),
(833,1254,o),
(836,1249,o),
(836,1244,cs),
(836,1233,o),
(829,1219,o),
(817,1201,cs),
(137,196,ls),
(74,103,o),
(29,63,o),
(-96,63,cs),
(-114,63,o),
(-133,-7,o),
(-115,-7,c)
);
},
{
closed = 1;
nodes = (
(894,534,l),
(898,598,l),
(448,598,l),
(412,534,l)
);
}
);
};
layerId = "7904EAEE-2B64-409E-B923-0048172372BE";
shapes = (
{
closed = 1;
nodes = (
(-56,-2,o),
(13,0,o),
(92,0,cs),
(171,0,o),
(241,-2,o),
(300,-7,c),
(318,-7,o),
(339,63,o),
(321,63,cs),
(180,63,o),
(160,103,o),
(208,176,cs),
(890,1212,l),
(910,1212,l),
(792,180,ls),
(783,103,o),
(759,63,o),
(642,63,cs),
(624,63,o),
(602,-7,o),
(620,-7,c),
(680,-2,o),
(749,0,o),
(825,0,cs),
(902,0,o),
(971,-2,o),
(1033,-7,c),
(1051,-7,o),
(1070,63,o),
(1052,63,cs),
(904,63,o),
(894,103,o),
(903,180,cs),
(1020,1188,ls),
(1033,1297,o),
(1043,1360,o),
(1047,1378,c),
(1047,1382,o),
(1045,1385,o),
(1039,1385,cs),
(1032,1385,o),
(1013,1376,o),
(984,1360,cs),
(954,1342,o),
(903,1320,o),
(862,1303,cs),
(824,1287,o),
(821,1282,o),
(821,1277,cs),
(821,1273,o),
(824,1268,o),
(828,1261,cs),
(833,1254,o),
(836,1249,o),
(836,1244,cs),
(836,1233,o),
(829,1219,o),
(817,1201,cs),
(137,196,ls),
(74,103,o),
(29,63,o),
(-96,63,cs),
(-114,63,o),
(-133,-7,o),
(-115,-7,c)
);
},
{
closed = 1;
nodes = (
(890,534,l),
(894,598,l),
(442,598,l),
(406,534,l)
);
}
);
width = 1090;
},
{
anchors = (
{
name = bottom;
pos = (396,0);
},
{
name = ogonek;
pos = (734,40);
},
{
name = ogonekabove;
pos = (808,1363);
},
{
name = top;
pos = (735,1363);
}
);
background = {
anchors = (
{
name = bottom;
pos = (352,-177);
},
{
name = ogonek;
pos = (734,10);
},
{
name = top;
pos = (757,1450);
}
);
shapes = (
{
closed = 1;
nodes = (
(-50,-2,o),
(-1,0,o),
(48,0,cs),
(96,0,o),
(145,-2,o),
(194,-7,c),
(212,-7,o),
(225,69,o),
(207,69,cs),
(151,69,o),
(145,109,o),
(183,182,cs),
(682,1142,l),
(698,1142,l),
(609,186,ls),
(602,109,o),
(581,69,o),
(499,69,cs),
(481,69,o),
(465,-7,o),
(483,-7,c),
(529,-2,o),
(590,0,o),
(658,0,cs),
(728,0,o),
(786,-2,o),
(835,-7,c),
(853,-7,o),
(870,69,o),
(852,69,cs),
(746,69,o),
(736,109,o),
(743,186,cs),
(836,1170,ls),
(845,1263,o),
(854,1318,o),
(861,1356,c),
(861,1376,o),
(854,1385,o),
(842,1385,cs),
(828,1385,o),
(810,1376,o),
(784,1358,cs),
(762,1343,o),
(716,1318,o),
(684,1303,cs),
(650,1287,o),
(640,1278,o),
(640,1269,cs),
(640,1261,o),
(643,1254,o),
(646,1249,cs),
(650,1242,o),
(653,1235,o),
(653,1230,cs),
(653,1223,o),
(651,1212,o),
(643,1197,cs),
(107,200,ls),
(58,109,o),
(21,69,o),
(-85,69,cs),
(-103,69,o),
(-117,-7,o),
(-99,-7,c)
);
},
{
closed = 1;
nodes = (
(714,528,l),
(721,602,l),
(365,602,l),
(326,528,l)
);
}
);
};
layerId = "E06D8587-1A71-4EC2-BD94-397D882F5FC1";
shapes = (
{
closed = 1;
nodes = (
(-53,-2,o),
(9,0,o),
(77,0,cs),
(146,0,o),
(207,-2,o),
(254,-7,c),
(272,-7,o),
(285,69,o),
(267,69,cs),
(155,69,o),
(145,109,o),
(183,182,cs),
(678,1134,l),
(698,1134,l),
(609,186,ls),
(602,109,o),
(581,69,o),
(499,69,cs),
(481,69,o),
(465,-7,o),
(483,-7,c),
(529,-2,o),
(590,0,o),
(658,0,cs),
(728,0,o),
(786,-2,o),
(835,-7,c),
(853,-7,o),
(870,69,o),
(852,69,cs),
(746,69,o),
(736,109,o),
(743,186,cs),
(836,1170,ls),
(845,1263,o),
(854,1318,o),
(861,1356,c),
(861,1376,o),
(854,1385,o),
(842,1385,cs),
(828,1385,o),
(810,1376,o),
(784,1358,cs),
(762,1343,o),
(716,1318,o),
(684,1303,cs),
(650,1287,o),
(640,1278,o),
(640,1269,cs),
(640,1261,o),
(643,1254,o),
(646,1249,cs),
(650,1242,o),
(653,1235,o),
(653,1230,cs),
(653,1223,o),
(651,1212,o),
(643,1197,cs),
(107,200,ls),
(58,109,o),
(21,69,o),
(-85,69,cs),
(-103,69,o),
(-117,-7,o),
(-99,-7,c)
);
},
{
closed = 1;
nodes = (
(708,528,l),
(715,602,l),
(360,602,l),
(321,528,l)
);
}
);
width = 899;
},
{
anchors = (
{
name = bottom;
pos = (546,0);
},
{
name = ogonek;
pos = (1076,40);
},
{
name = ogonekabove;
pos = (1150,1363);
},
{
name = top;
pos = (1049,1363);
}
);
layerId = "8F7CDE40-C368-4484-AA71-76B7ABD5539F";
shapes = (
{
closed = 1;
nodes = (
(-53,-2,o),
(26,0,o),
(101,0,cs),
(173,0,o),
(255,-2,o),
(350,-7,c),
(368,-7,o),
(394,69,o),
(376,69,cs),
(198,69,o),
(183,109,o),
(238,182,cs),
(1011,1210,l),
(1036,1210,l),
(930,186,ls),
(922,109,o),
(900,69,o),
(756,69,cs),
(739,69,o),
(713,-7,o),
(731,-7,c),
(827,-2,o),
(907,0,o),
(982,0,cs),
(1052,0,o),
(1136,-2,o),
(1229,-7,c),
(1247,-7,o),
(1267,69,o),
(1249,69,cs),
(1068,69,o),
(1060,109,o),
(1068,186,cs),
(1174,1188,ls),
(1185,1293,o),
(1196,1364,o),
(1201,1378,c),
(1201,1381,o),
(1198,1385,o),
(1189,1385,cs),
(1182,1385,o),
(1155,1376,o),
(1122,1360,cs),
(1081,1340,o),
(1040,1325,o),
(978,1303,cs),
(941,1290,o),
(927,1283,o),
(927,1277,cs),
(927,1275,o),
(931,1269,o),
(938,1261,cs),
(945,1253,o),
(947,1247,o),
(947,1243,cs),
(947,1230,o),
(939,1217,o),
(927,1201,cs),
(150,202,ls),
(78,109,o),
(27,69,o),
(-126,69,cs),
(-143,69,o),
(-167,-7,o),
(-149,-7,c)
);
},
{
closed = 1;
nodes = (
(1037,534,l),
(1042,598,l),
(503,598,l),
(460,534,l)
);
}
);
width = 1314;
},
{
anchors = (
{
name = bottom;
pos = (471,0);
},
{
name = ogonek;
pos = (906,40);
},
{
name = ogonekabove;
pos = (1003,1363);
},
{
name = top;
pos = (916,1363);
}
);
layerId = "997BDFA1-EC67-4686-8CFE-E56BDBE179FE";
shapes = (
{
closed = 1;
nodes = (
(-53,-2,o),
(18,0,o),
(89,0,cs),
(160,0,o),
(231,-2,o),
(302,-7,c),
(320,-7,o),
(341,69,o),
(323,69,cs),
(178,69,o),
(166,109,o),
(214,182,cs),
(868,1178,l),
(888,1178,l),
(773,186,ls),
(764,109,o),
(742,69,o),
(629,69,cs),
(611,69,o),
(589,-7,o),
(607,-7,c),
(678,-2,o),
(749,0,o),
(820,0,cs),
(890,0,o),
(961,-2,o),
(1032,-7,c),
(1050,-7,o),
(1070,69,o),
(1052,69,cs),
(908,69,o),
(900,109,o),
(909,186,cs),
(1026,1179,ls),
(1038,1280,o),
(1049,1341,o),
(1055,1367,c),
(1055,1379,o),
(1050,1385,o),
(1040,1385,cs),
(1029,1385,o),
(1008,1376,o),
(977,1359,cs),
(945,1341,o),
(896,1320,o),
(854,1303,cs),
(814,1287,o),
(806,1280,o),
(806,1273,cs),
(806,1268,o),
(809,1262,o),
(814,1255,cs),
(819,1248,o),
(822,1242,o),
(822,1237,cs),
(822,1227,o),
(816,1214,o),
(806,1199,cs),
(132,201,ls),
(70,109,o),
(26,69,o),
(-104,69,cs),
(-122,69,o),
(-142,-7,o),
(-124,-7,c)
);
},
{
closed = 1;
nodes = (
(882,531,l),
(889,600,l),
(442,600,l),
(400,531,l)
);
}
);
width = 1108;
}
);
unicode = 65;
}
{
glyphname = B;
kernLeft = KO_H;
kernRight = KO_B;
layers = (
{
anchors = (
{
name = bottom;
pos = (247,0);
},
{
name = top;
pos = (376,666);
},
{
name = zzcurly;
pos = (344,655);
}
);
guides = (
{
pos = (891,638);
showMeasurement = 1;
}
);
layerId = master01;
shapes = (
{
closed = 1;
nodes = (
(46,-1,o),
(89,0,o),
(131,0,cs),
(173,0,o),
(216,-3,o),
(259,-3,cs),
(431,-3,o),
(556,57,o),
(556,192,cs),
(556,274,o),
(510,322,o),
(425,356,c),
(426,359,l),
(536,372,o),
(605,428,o),
(605,537,cs),
(605,620,o),
(531,666,o),
(432,666,cs),
(191,666,ls),
(182,666,o),
(173,628,o),
(181,628,cs),
(269,628,o),
(268,609,o),
(258,575,cs),
(119,91,ls),
(108,53,o),
(98,34,o),
(14,34,cs),
(5,34,o),
(-5,-3,o),
(4,-3,c)
);
},
{
closed = 1;
nodes = (
(215,28,o),
(192,46,o),
(192,82,cs),
(192,94,o),
(195,112,o),
(202,135,cs),
(261,342,l),
(315,342,ls),
(412,342,o),
(482,300,o),
(482,208,cs),
(482,86,o),
(386,28,o),
(260,28,cs)
);
},
{
closed = 1;
nodes = (
(338,608,ls),
(343,629,o),
(355,640,o),
(371,640,cs),
(466,640,o),
(536,612,o),
(536,527,cs),
(536,428,o),
(437,370,o),
(321,370,cs),
(269,370,l)
);
}
);
width = 572;
},
{
anchors = (
{
name = bottom;
pos = (263,0);
},
{
name = top;
pos = (393,666);
},
{
name = zzcurly;
pos = (364,655);
}
);
layerId = "2438E31C-45B5-47A7-9B3D-1A0FEFB47671";
shapes = (
{
closed = 1;
nodes = (
(37,-1,o),
(82,0,o),
(127,0,cs),
(174,0,o),
(220,-3,o),
(266,-3,cs),
(452,-3,o),
(580,79,o),
(580,223,cs),
(580,276,o),
(549,320,o),
(490,356,c),
(493,366,l),
(565,396,o),
(628,457,o),
(628,539,cs),
(628,622,o),
(552,666,o),
(454,666,cs),
(183,666,ls),
(174,666,o),
(161,620,o),
(170,620,cs),
(248,620,o),
(249,600,o),
(239,566,cs),
(98,99,ls),
(87,62,o),
(76,42,o),
(4,42,cs),
(-5,42,o),
(-16,-4,o),
(-8,-4,c)
);
},
{
closed = 1;
nodes = (
(227,36,o),
(211,51,o),
(211,80,cs),
(211,91,o),
(213,102,o),
(216,112,cs),
(284,335,l),
(296,335,ls),
(391,335,o),
(457,316,o),
(457,235,cs),
(457,106,o),
(388,36,o),
(260,36,cs)
);
},
{
closed = 1;
nodes = (
(363,596,ls),
(369,617,o),
(380,627,o),
(396,627,cs),
(469,627,o),
(514,610,o),
(514,537,cs),
(514,432,o),
(433,374,o),
(324,374,cs),
(295,374,l)
);
}
);
width = 596;
},
{
anchors = (
{
name = bottom;
pos = (241,0);
},
{
name = top;
pos = (370,666);
},
{
name = zzcurly;
pos = (324,655);
}
);
layerId = "7904EAEE-2B64-409E-B923-0048172372BE";
shapes = (
{
closed = 1;
nodes = (
(49,-1,o),
(90,0,o),
(131,0,cs),
(173,0,o),
(214,-3,o),
(256,-3,cs),
(424,-3,o),
(548,50,o),
(548,187,cs),
(548,272,o),
(498,321,o),
(408,354,c),
(409,358,l),
(528,366,o),
(596,429,o),
(596,527,cs),
(596,628,o),
(524,666,o),
(425,666,cs),
(194,666,ls),
(185,666,o),
(176,631,o),
(185,631,cs),
(275,631,o),
(274,612,o),
(264,578,cs),
(125,88,ls),
(114,50,o),
(105,31,o),
(17,31,cs),
(8,31,o),
(-1,-3,o),
(8,-3,c)
);
},
{
closed = 1;
nodes = (
(210,25,o),
(185,44,o),
(185,82,cs),
(185,95,o),
(189,115,o),
(196,143,cs),
(253,344,l),
(321,344,ls),
(418,344,o),
(489,295,o),
(489,198,cs),
(489,80,o),
(385,25,o),
(260,25,cs)
);
},
{
closed = 1;
nodes = (
(329,612,ls),
(335,633,o),
(346,644,o),
(362,644,cs),
(465,644,o),
(543,612,o),
(543,523,cs),
(543,427,o),
(437,369,o),
(320,369,cs),
(260,369,l)
);
}
);
width = 580;
},
{
anchors = (
{
name = bottom;
pos = (207,0);
},
{
name = top;
pos = (310,666);
},
{
name = zzcurly;
pos = (276,655);
}
);
layerId = "E06D8587-1A71-4EC2-BD94-397D882F5FC1";
shapes = (
{
closed = 1;
nodes = (
(36,-1,o),
(70,0,o),
(104,0,cs),
(140,0,o),
(176,-3,o),
(213,-3,cs),
(355,-3,o),
(457,64,o),
(457,202,cs),
(457,276,o),
(422,319,o),
(364,358,c),
(365,361,l),
(442,379,o),
(495,437,o),
(495,538,cs),
(495,620,o),
(436,666,o),
(357,666,cs),
(154,666,ls),
(145,666,o),
(137,628,o),
(146,628,cs),
(213,628,o),
(213,609,o),
(205,575,cs),
(91,91,ls),
(82,53,o),
(73,34,o),
(11,34,cs),
(2,34,o),
(-6,-3,o),
(3,-3,c)
);
},
{
closed = 1;
nodes = (
(179,31,o),
(163,48,o),
(163,81,cs),
(163,94,o),
(165,108,o),
(170,127,cs),
(220,340,l),
(249,340,ls),
(326,340,o),
(381,306,o),
(381,217,cs),
(381,93,o),
(313,31,o),
(212,31,cs)
);
},
{
closed = 1;
nodes = (
(283,604,ls),
(288,625,o),
(299,636,o),
(316,636,cs),
(377,636,o),
(425,611,o),
(425,530,cs),
(425,430,o),
(352,371,o),
(262,371,cs),
(227,371,l)
);
}
);
width = 480;
},
{
anchors = (
{
name = bottom;
pos = (288,0);
},
{
name = top;
pos = (420,666);
},
{
name = zzcurly;
pos = (363,655);
}
);
layerId = "8F7CDE40-C368-4484-AA71-76B7ABD5539F";
shapes = (
{
closed = 1;
nodes = (
(57,-1,o),
(109,0,o),
(159,0,cs),
(207,0,o),
(257,-3,o),
(305,-3,cs),
(506,-3,o),
(650,48,o),
(650,176,cs),
(650,266,o),
(593,324,o),
(475,355,c),
(475,357,l),
(618,365,o),
(697,418,o),
(697,528,cs),
(697,618,o),
(609,666,o),
(486,666,cs),
(206,666,ls),
(197,666,o),
(187,628,o),
(196,628,cs),
(309,628,o),
(302,605,o),
(293,574,cs),
(145,91,ls),
(134,56,o),
(128,34,o),
(17,34,cs),
(8,34,o),
(-2,-3,o),
(7,-3,c)
);
},
{
closed = 1;
nodes = (
(250,25,o),
(218,45,o),
(218,83,cs),
(218,96,o),
(222,115,o),
(231,143,cs),
(291,344,l),
(369,344,ls),
(487,344,o),
(577,294,o),
(577,192,cs),
(577,78,o),
(457,25,o),
(310,25,cs)
);
},
{
closed = 1;
nodes = (
(372,612,ls),
(379,633,o),
(389,644,o),
(404,644,cs),
(554,644,o),
(630,602,o),
(630,520,cs),
(630,425,o),
(508,369,o),
(368,369,cs),
(300,369,l)
);
}
);
width = 683;
},
{
anchors = (
{
name = bottom;
pos = (247,0);
},
{
name = top;
pos = (376,666);
},
{
name = zzcurly;
pos = (344,655);
}
);
layerId = "997BDFA1-EC67-4686-8CFE-E56BDBE179FE";
shapes = (
{
closed = 1;
nodes = (
(46,-1,o),
(89,0,o),
(131,0,cs),
(173,0,o),
(216,-3,o),
(259,-3,cs),
(431,-3,o),
(556,57,o),
(556,192,cs),
(556,274,o),
(510,322,o),
(425,356,c),
(426,359,l),
(536,372,o),
(605,428,o),
(605,537,cs),
(605,620,o),
(531,666,o),
(432,666,cs),
(191,666,ls),
(182,666,o),
(173,628,o),
(181,628,cs),
(269,628,o),
(268,609,o),
(258,575,cs),
(119,91,ls),
(108,53,o),
(98,34,o),
(14,34,cs),
(5,34,o),
(-5,-3,o),
(4,-3,c)
);
},
{
closed = 1;
nodes = (
(215,28,o),
(192,46,o),
(192,82,cs),
(192,94,o),
(195,112,o),
(202,135,cs),
(261,342,l),
(315,342,ls),
(412,342,o),
(482,300,o),
(482,208,cs),
(482,86,o),
(386,28,o),
(260,28,cs)
);
},
{
closed = 1;
nodes = (
(338,608,ls),
(343,629,o),
(355,640,o),
(371,640,cs),
(466,640,o),
(536,612,o),
(536,527,cs),
(536,428,o),
(437,370,o),
(321,370,cs),
(269,370,l)
);
}
);
width = 572;
}
);
unicode = 66;
userData = {
KernOnName = B;
};
}
{
glyphname = C;
layers = (
{
anchors = (
{
name = bottom;
pos = (353,0);
},
{
name = cedilla;
pos = (347,2);
},
{
name = ogonek;
pos = (443,0);
},
{
name = top;
pos = (472,666);
},
{
name = zzcurly;
pos = (424,655);
}
);
guides = (
{
angle = -25.9979;
pos = (348,888);
showMeasurement = 1;
}
);
layerId = master01;
shapes = (
{
closed = 1;
nodes = (
(605,28,o),
(612,91,o),
(616,156,cs),
(616,166,o),
(592,165,o),
(587,157,cs),
(532,75,o),
(430,23,o),
(333,23,cs),
(209,23,o),
(146,112,o),
(146,230,cs),
(146,437,o),
(335,642,o),
(497,642,cs),
(595,642,o),
(658,561,o),
(656,440,cs),
(656,431,o),
(680,429,o),
(685,437,cs),
(714,494,o),
(733,559,o),
(752,625,cs),
(754,635,o),
(729,644,o),
(724,636,cs),
(679,553,l),
(711,555,l),
(667,635,o),
(594,676,o),
(496,676,cs),
(272,676,o),
(76,483,o),
(76,262,cs),
(76,85,o),
(179,-13,o),
(363,-13,cs),
(438,-13,o),
(510,7,o),
(579,49,c),
(544,46,l),
(561,-32,ls),
(563,-41,o),
(587,-42,o),
(590,-33,cs)
);
}
);
width = 700;
},
{
anchors = (
{
name = bottom;
pos = (358,0);
},
{
name = cedilla;
pos = (333,0);
},
{
name = ogonek;
pos = (449,0);
},
{
name = top;
pos = (468,666);
},
{
name = zzcurly;
pos = (406,655);
}
);
layerId = "2438E31C-45B5-47A7-9B3D-1A0FEFB47671";
shapes = (
{
closed = 1;
nodes = (
(614,28,o),
(620,91,o),
(624,156,cs),
(625,166,o),
(591,165,o),
(585,157,cs),
(530,80,o),
(431,31,o),
(328,31,cs),
(230,31,o),
(171,102,o),
(171,218,cs),
(171,410,o),
(353,634,o),
(509,634,cs),
(600,634,o),
(656,559,o),
(654,440,cs),
(654,431,o),
(688,428,o),
(692,436,cs),
(722,493,o),
(742,558,o),
(760,624,cs),
(763,633,o),
(727,644,o),
(723,636,cs),
(677,553,l),
(709,555,l),
(663,637,o),
(591,676,o),
(489,676,cs),
(255,676,o),
(59,492,o),
(59,273,cs),
(59,94,o),
(169,-13,o),
(352,-13,cs),
(430,-13,o),
(503,7,o),
(574,49,c),
(542,47,l),
(560,-31,ls),
(561,-41,o),
(596,-42,o),
(598,-33,cs)
);
}
);
width = 699;
},
{
anchors = (
{
name = bottom;
pos = (352,0);
},
{
name = cedilla;
pos = (348,2);
},
{
name = ogonek;
pos = (447,0);
},
{
name = top;
pos = (481,666);
},
{
name = zzcurly;
pos = (412,655);
}
);
layerId = "7904EAEE-2B64-409E-B923-0048172372BE";
shapes = (
{
closed = 1;
nodes = (
(602,28,o),
(608,91,o),
(612,156,cs),
(613,166,o),
(592,165,o),
(587,157,cs),
(533,73,o),
(432,21,o),
(338,21,cs),
(207,21,o),
(143,115,o),
(143,234,cs),
(143,445,o),
(333,644,o),
(495,644,cs),
(592,644,o),
(658,562,o),
(656,440,cs),
(656,431,o),
(677,429,o),
(681,438,cs),
(710,495,o),
(730,559,o),
(748,626,cs),
(751,635,o),
(729,644,o),
(724,636,cs),
(679,553,l),
(711,555,l),
(668,634,o),
(593,676,o),
(498,676,cs),
(277,676,o),
(81,480,o),
(81,258,cs),
(81,82,o),
(181,-13,o),
(365,-13,cs),
(440,-13,o),
(511,7,o),
(580,49,c),
(543,46,l),
(560,-32,ls),
(562,-41,o),
(584,-41,o),
(586,-33,cs)
);
}
);
width = 699;
},
{
anchors = (
{
name = bottom;
pos = (285,0);
},
{
name = cedilla;
pos = (274,1);
},
{
name = ogonek;
pos = (370,0);
},
{
name = top;
pos = (405,666);
},
{
name = zzcurly;
pos = (356,655);
}
);
layerId = "E06D8587-1A71-4EC2-BD94-397D882F5FC1";
shapes = (
{
closed = 1;
nodes = (
(523,28,o),
(528,92,o),
(532,156,cs),
(532,166,o),
(506,165,o),
(502,157,cs),
(455,75,o),
(370,23,o),
(285,23,cs),
(187,23,o),
(134,107,o),
(134,228,cs),
(134,429,o),
(291,642,o),
(427,642,cs),
(507,642,o),
(559,562,o),
(558,440,cs),
(558,431,o),
(583,428,o),
(587,437,cs),
(611,494,o),
(627,561,o),
(642,625,cs),
(644,635,o),
(619,644,o),
(615,636,cs),
(577,553,l),
(604,555,l),
(566,635,o),
(504,676,o),
(420,676,cs),
(229,676,o),
(65,487,o),
(65,267,cs),
(65,89,o),
(154,-13,o),
(310,-13,cs),
(375,-13,o),
(435,7,o),
(494,49,c),
(466,46,l),
(481,-32,ls),
(483,-41,o),
(508,-42,o),
(510,-33,cs)
);
}
);
width = 601;
},
{
anchors = (
{
name = bottom;
pos = (396,0);
},
{
name = cedilla;
pos = (396,2);
},
{
name = ogonek;
pos = (502,0);
},
{
name = top;
pos = (551,666);
},
{
name = zzcurly;
pos = (479,655);
}
);
layerId = "8F7CDE40-C368-4484-AA71-76B7ABD5539F";
shapes = (
{
closed = 1;
nodes = (
(680,28,o),
(688,90,o),
(693,156,cs),
(693,166,o),
(671,164,o),
(665,157,cs),
(602,74,o),
(484,23,o),
(375,23,cs),
(224,23,o),
(150,116,o),
(150,233,cs),
(150,444,o),
(372,642,o),
(560,642,cs),
(674,642,o),
(749,560,o),
(746,440,cs),
(746,431,o),
(770,429,o),
(775,437,cs),
(810,494,o),
(831,556,o),
(854,625,cs),
(857,634,o),
(831,644,o),
(826,636,cs),
(773,553,l),
(811,555,l),
(761,634,o),
(676,676,o),
(565,676,cs),
(308,676,o),
(80,479,o),
(80,256,cs),
(80,81,o),
(195,-13,o),
(408,-13,cs),
(495,-13,o),
(577,7,o),
(657,49,c),
(614,46,l),
(633,-32,ls),
(636,-41,o),
(659,-42,o),
(662,-33,cs)
);
}
);
width = 805;
},
{
anchors = (
{
name = bottom;
pos = (326,0);
},
{
name = cedilla;
pos = (321,2);
},
{
name = ogonek;
pos = (417,0);
},
{
name = top;
pos = (446,666);
},
{
name = zzcurly;
pos = (403,655);
}
);
layerId = "997BDFA1-EC67-4686-8CFE-E56BDBE179FE";
shapes = (
{
closed = 1;
nodes = (
(579,28,o),
(585,91,o),
(590,156,cs),
(590,166,o),
(566,165,o),
(561,157,cs),
(506,75,o),
(404,23,o),
(307,23,cs),
(182,23,o),
(119,112,o),
(119,230,cs),
(119,437,o),
(309,642,o),
(471,642,cs),
(568,642,o),
(632,561,o),
(630,440,cs),
(630,431,o),
(654,429,o),
(658,437,cs),
(688,494,o),
(707,559,o),
(725,625,cs),
(728,635,o),
(702,644,o),
(698,636,cs),
(653,553,l),
(685,555,l),
(641,635,o),
(567,676,o),
(470,676,cs),
(246,676,o),
(50,483,o),
(50,262,cs),
(50,85,o),
(152,-13,o),
(336,-13,cs),
(412,-13,o),
(483,7,o),
(553,49,c),
(517,46,l),
(534,-32,ls),
(536,-41,o),
(561,-42,o),
(563,-33,cs)
);
}
);
width = 698;
}
);
metricLeft = O;
unicode = 67;
}
{
glyphname = D;
layers = (
{
anchors = (
{
name = bottom;
pos = (318,0);
},
{
name = cedilla;
pos = (321,0);
},
{
name = center;
pos = (236,328);
},
{
name = top;
pos = (447,666);
},
{
name = zzcurly;
pos = (343,655);
}
);
guides = (
{
pos = (903,638);
showMeasurement = 1;
}
);
layerId = master01;
shapes = (
{
closed = 1;
nodes = (
(45,-1,o),
(87,0,o),
(129,0,cs),
(192,0,o),
(254,-3,o),
(317,-3,cs),
(472,-3,o),
(556,27,o),
(637,117,cs),
(707,194,o),
(745,286,o),
(745,392,cs),
(745,604,o),
(579,666,o),
(410,666,cs),
(190,666,ls),
(181,666,o),
(172,628,o),
(180,628,cs),
(254,628,o),
(269,617,o),
(257,575,cs),
(118,91,ls),
(105,45,o),
(83,34,o),
(13,34,cs),
(4,34,o),
(-6,-3,o),
(3,-3,c)
);
},
{
closed = 1;
nodes = (
(225,26,o),
(192,46,o),
(192,86,cs),
(192,101,o),
(196,120,o),
(203,146,cs),
(328,578,ls),
(342,626,o),
(359,635,o),
(412,635,cs),
(571,635,o),
(676,554,o),
(676,412,cs),
(676,301,o),
(656,234,o),
(597,152,cs),
(535,65,o),
(443,26,o),
(292,26,cs)
);
}
);
width = 736;
},
{
anchors = (
{
name = bottom;
pos = (339,0);
},
{
name = cedilla;
pos = (321,0);
},
{
name = center;
pos = (242,333);
},
{
name = top;
pos = (468,666);
},
{
name = zzcurly;
pos = (367,655);
}
);
layerId = "2438E31C-45B5-47A7-9B3D-1A0FEFB47671";
shapes = (
{
closed = 1;
nodes = (
(37,-1,o),
(81,0,o),
(125,0,cs),
(192,0,o),
(249,-4,o),
(294,-4,cs),
(496,-4,o),
(585,27,o),
(671,117,cs),
(745,194,o),
(786,291,o),
(786,392,cs),
(786,604,o),
(607,666,o),
(429,666,cs),
(181,666,ls),
(172,666,o),
(162,620,o),
(171,620,cs),
(237,620,o),
(251,608,o),
(238,565,cs),
(98,99,ls),
(85,54,o),
(65,42,o),
(3,42,cs),
(-6,42,o),
(-15,-4,o),
(-7,-4,c)
);
},
{
closed = 1;
nodes = (
(243,35,o),
(214,53,o),
(214,92,cs),
(214,103,o),
(216,115,o),
(220,129,cs),
(359,583,ls),
(370,621,o),
(384,627,o),
(418,627,cs),
(542,627,o),
(661,569,o),
(661,412,cs),
(661,304,o),
(643,238,o),
(588,159,cs),
(530,74,o),
(444,35,o),
(295,35,cs)
);
}
);
width = 770;
},
{
anchors = (
{
name = bottom;
pos = (312,0);
},
{
name = cedilla;
pos = (322,0);
},
{
name = center;
pos = (235,327);
},
{
name = top;
pos = (442,666);
},
{
name = zzcurly;
pos = (329,655);
}
);
layerId = "7904EAEE-2B64-409E-B923-0048172372BE";
shapes = (
{
closed = 1;
nodes = (
(49,-1,o),
(89,0,o),
(131,0,cs),
(192,0,o),
(257,-3,o),
(325,-3,cs),
(466,-3,o),
(548,27,o),
(627,117,cs),
(695,194,o),
(733,285,o),
(733,392,cs),
(733,604,o),
(570,666,o),
(404,666,cs),
(194,666,ls),
(185,666,o),
(175,631,o),
(184,631,cs),
(260,631,o),
(276,620,o),
(264,578,cs),
(125,88,ls),
(112,42,o),
(90,31,o),
(17,31,cs),
(8,31,o),
(-2,-3,o),
(7,-3,c)
);
},
{
closed = 1;
nodes = (
(220,23,o),
(186,43,o),
(186,84,cs),
(186,100,o),
(190,122,o),
(198,151,cs),
(319,576,ls),
(334,628,o),
(351,638,o),
(411,638,cs),
(581,638,o),
(681,548,o),
(681,412,cs),
(681,300,o),
(661,232,o),
(601,150,cs),
(537,63,o),
(443,23,o),
(292,23,cs)
);
}
);
width = 726;
},
{
anchors = (
{
name = bottom;
pos = (277,0);
},
{
name = cedilla;
pos = (318,0);
},
{
name = center;
pos = (203,330);
},
{
name = top;
pos = (384,666);
},
{
name = zzcurly;
pos = (286,655);
}
);
layerId = "E06D8587-1A71-4EC2-BD94-397D882F5FC1";
shapes = (
{
closed = 1;
nodes = (
(40,-1,o),
(81,0,o),
(112,0,cs),
(166,0,o),
(217,-3,o),
(265,-3,cs),
(408,-3,o),
(479,27,o),
(549,117,cs),
(608,194,o),
(640,288,o),
(640,391,cs),
(640,604,o),
(495,666,o),
(352,666,cs),
(159,666,ls),
(152,666,o),
(144,626,o),
(152,626,cs),
(211,626,o),
(224,615,o),
(214,572,cs),
(98,93,ls),
(87,48,o),
(71,36,o),
(12,36,cs),
(5,36,o),
(-3,-3,o),
(5,-3,c)
);
},
{
closed = 1;
nodes = (
(198,26,o),
(171,47,o),
(171,88,cs),
(171,102,o),
(174,119,o),
(179,141,cs),
(286,580,ls),
(297,626,o),
(310,635,o),
(350,635,cs),
(474,635,o),
(568,560,o),
(568,409,cs),
(568,303,o),
(552,234,o),
(504,154,cs),
(451,66,o),
(376,26,o),
(250,26,cs)
);
}
);
width = 633;
},
{
anchors = (
{
name = bottom;
pos = (343,0);
},
{
name = cedilla;
pos = (321,0);
},
{
name = center;
pos = (241,327);
},
{
name = top;
pos = (472,666);
},
{
name = zzcurly;
pos = (343,655);
}
);
guides = (
{
angle = 5.757;
pos = (1209,726);
}
);
layerId = "8F7CDE40-C368-4484-AA71-76B7ABD5539F";
shapes = (
{
closed = 1;
nodes = (
(49,-1,o),
(85,0,o),
(130,0,cs),
(202,0,o),
(276,-3,o),
(354,-3,cs),
(520,-3,o),
(617,27,o),
(706,116,cs),
(780,191,o),
(821,278,o),
(821,380,cs),
(821,604,o),
(623,666,o),
(429,666,cs),
(193,666,ls),
(184,666,o),
(175,631,o),
(185,631,cs),
(258,631,o),
(277,620,o),
(264,577,cs),
(119,89,ls),
(105,43,o),
(86,32,o),
(17,32,cs),
(8,32,o),
(-1,-3,o),
(9,-3,c)
);
},
{
closed = 1;
nodes = (
(234,26,o),
(194,46,o),
(194,87,cs),
(194,101,o),
(198,123,o),
(206,150,cs),
(335,577,ls),
(350,626,o),
(369,635,o),
(436,635,cs),
(636,635,o),
(751,548,o),
(751,389,cs),
(751,290,o),
(729,227,o),
(668,151,cs),
(599,64,o),
(491,26,o),
(317,26,cs)
);
}
);
width = 815;
},
{
anchors = (
{
name = bottom;
pos = (293,0);
},
{
name = cedilla;
pos = (296,0);
},
{
name = center;
pos = (211,328);
},
{
name = top;
pos = (423,666);
},
{
name = zzcurly;
pos = (313,655);
}
);
layerId = "997BDFA1-EC67-4686-8CFE-E56BDBE179FE";
shapes = (
{
closed = 1;
nodes = (
(20,-1,o),
(62,0,o),
(104,0,cs),
(167,0,o),
(229,-3,o),
(292,-3,cs),
(448,-3,o),
(532,27,o),
(612,117,cs),
(682,194,o),
(721,286,o),
(721,392,cs),
(721,604,o),
(554,666,o),
(385,666,cs),
(165,666,ls),
(157,666,o),
(147,628,o),
(156,628,cs),
(229,628,o),
(245,617,o),
(232,575,cs),
(93,91,ls),
(80,45,o),
(59,34,o),
(-12,34,cs),
(-21,34,o),
(-30,-3,o),
(-22,-3,c)
);
},
{
closed = 1;
nodes = (
(201,26,o),
(167,46,o),
(167,86,cs),
(167,101,o),
(171,120,o),
(179,146,cs),
(304,578,ls),
(318,626,o),
(334,635,o),
(388,635,cs),
(546,635,o),
(651,554,o),
(651,412,cs),
(651,301,o),
(631,234,o),
(573,152,cs),
(510,65,o),
(418,26,o),
(268,26,cs)
);
}
);
width = 737;
}
);
metricLeft = H;
metricRight = O;
unicode = 68;
}
{
glyphname = E;
kernLeft = B;
layers = (
{
anchors = (
{
name = bottom;
pos = (592,0);
},
{
name = cedilla;
pos = (538,0);
},
{
name = ogonek;
pos = (996,40);
},
{
name = ogonek_above;
pos = (628,1338);
},
{
name = ogonek_left;
pos = (714,40);
},
{
name = top;
pos = (897,1363);
},
{
name = topleft;
pos = (159,1363);
},
{
name = zzcurly;
pos = (544,1341);
}
);
hints = (
{
horizontal = 1;
options = 4;
origin = (0,2);
target = (0,81);
type = TTStem;
},
{
horizontal = 1;
options = 4;
origin = (0,81);
target = (0,16);
type = TTShift;
},
{
horizontal = 1;
options = 4;
origin = (0,68);
target = (0,74);
type = TTStem;
},
{
horizontal = 1;
options = 4;
origin = (0,74);
target = (0,49);
type = TTShift;
},
{
horizontal = 1;
origin = (0,2);
other1 = (0,44);
target = (0,68);
type = TTInterpolate;
},
{
horizontal = 1;
options = 4;
origin = (0,44);
stem = 0;
target = (0,24);
type = TTStem;
}
);
layerId = master01;
shapes = (
{
closed = 1;
nodes = (
(71,-2,o),
(155,0,o),
(240,0,cs),
(497,0,o),
(753,-7,o),
(988,-7,cs),
(1021,-7,o),
(1032,-2,o),
(1038,18,cs),
(1132,344,l),
(1132,363,o),
(1055,363,o),
(1049,344,cs),
(992,164,o),
(876,74,o),
(721,69,cs),
(481,61,l),
(405,61,o),
(367,94,o),
(367,160,cs),
(367,191,o),
(376,237,o),
(394,300,cs),
(482,607,l),
(731,607,ls),
(804,607,o),
(825,585,o),
(809,527,cs),
(784,437,ls),
(778,416,o),
(845,415,o),
(851,436,c),
(869,508,o),
(888,580,o),
(908,652,cs),
(928,723,o),
(950,794,o),
(974,864,c),
(974,885,o),
(906,884,o),
(901,864,cs),
(872,756,ls),
(853,684,o),
(823,676,o),
(750,676,cs),
(502,676,l),
(675,1276,ls),
(679,1291,o),
(691,1298,o),
(710,1298,cs),
(770,1298,o),
(872,1296,o),
(1014,1289,cs),
(1111,1284,o),
(1205,1215,o),
(1205,1097,cs),
(1205,1071,o),
(1200,1045,o),
(1194,1019,cs),
(1190,1001,o),
(1269,1000,o),
(1274,1019,cs),
(1364,1337,ls),
(1371,1361,o),
(1356,1367,o),
(1294,1367,cs),
(1079,1367,o),
(855,1363,o),
(631,1363,cs),
(545,1363,o),
(458,1363,o),
(372,1367,c),
(354,1367,o),
(334,1291,o),
(352,1291,cs),
(497,1291,o),
(530,1267,o),
(505,1181,cs),
(219,186,ls),
(192,91,o),
(153,69,o),
(6,69,cs),
(-12,69,o),
(-32,-7,o),
(-14,-7,c)
);
}
);
width = 1230;
},
{
anchors = (
{
name = bottom;
pos = (617,0);
},
{
name = cedilla;
pos = (553,0);
},
{
name = ogonek;
pos = (1031,40);
},
{
name = ogonek_above;
pos = (628,1338);
},
{
name = ogonek_left;
pos = (739,40);
},
{
name = top;
pos = (912,1363);
},
{
name = topleft;
pos = (184,1363);
},
{
name = zzcurly;
pos = (544,1341);
}
);
layerId = "2438E31C-45B5-47A7-9B3D-1A0FEFB47671";
shapes = (
{
closed = 1;
nodes = (
(58,-3,o),
(147,0,o),
(237,0,cs),
(493,0,o),
(748,-8,o),
(1010,-8,cs),
(1044,-8,o),
(1054,-3,o),
(1060,17,cs),
(1162,383,l),
(1162,407,o),
(1074,404,o),
(1067,383,cs),
(998,192,o),
(910,95,o),
(799,90,cs),
(508,78,l),
(443,78,o),
(410,101,o),
(410,156,cs),
(410,179,o),
(413,201,o),
(420,223,cs),
(532,598,l),
(758,598,ls),
(817,598,o),
(837,583,o),
(821,529,cs),
(789,418,ls),
(783,399,o),
(867,398,o),
(873,418,c),
(894,500,o),
(915,579,o),
(937,654,cs),
(961,735,o),
(985,812,o),
(1010,885,c),
(1010,912,o),
(926,908,o),
(920,885,cs),
(883,752,ls),
(870,707,o),
(843,692,o),
(785,692,cs),
(560,692,l),
(726,1242,ls),
(732,1263,o),
(747,1273,o),
(773,1273,cs),
(855,1273,o),
(952,1273,o),
(1050,1266,cs),
(1151,1259,o),
(1216,1181,o),
(1216,1103,cs),
(1216,1075,o),
(1213,1047,o),
(1207,1019,cs),
(1202,996,o),
(1297,997,o),
(1304,1021,cs),
(1396,1337,ls),
(1403,1361,o),
(1388,1367,o),
(1326,1367,cs),
(1100,1367,o),
(873,1363,o),
(645,1363,cs),
(548,1363,o),
(451,1363,o),
(354,1367,c),
(336,1367,o),
(313,1273,o),
(331,1273,cs),
(467,1273,o),
(497,1250,o),
(472,1166,cs),
(187,217,ls),
(155,110,o),
(118,86,o),
(-12,86,cs),
(-30,86,o),
(-50,-8,o),
(-32,-8,c)
);
}
);
width = 1236;
},
{
anchors = (
{
name = bottom;
pos = (597,0);
},
{
name = cedilla;
pos = (536,0);
},
{
name = ogonek;
pos = (1021,40);
},
{
name = ogonek_above;
pos = (632,1338);
},
{
name = ogonek_left;
pos = (709,40);
},
{
name = top;
pos = (909,1363);
},
{
name = topleft;
pos = (154,1363);
},
{
name = zzcurly;
pos = (548,1341);
}
);
layerId = "7904EAEE-2B64-409E-B923-0048172372BE";
shapes = (
{
closed = 1;
nodes = (
(77,-2,o),
(159,0,o),
(241,0,cs),
(492,0,o),
(744,-7,o),
(984,-7,cs),
(1017,-7,o),
(1028,-2,o),
(1034,18,cs),
(1125,331,l),
(1125,348,o),
(1052,349,o),
(1046,331,cs),
(988,157,o),
(868,67,o),
(698,62,cs),
(475,55,l),
(396,55,o),
(356,92,o),
(356,161,cs),
(356,195,o),
(367,249,o),
(389,326,cs),
(470,610,l),
(725,610,ls),
(803,610,o),
(824,586,o),
(808,526,cs),
(786,443,ls),
(780,421,o),
(841,421,o),
(847,442,c),
(864,511,o),
(882,580,o),
(902,651,cs),
(921,719,o),
(942,788,o),
(965,857,c),
(965,876,o),
(903,876,o),
(898,857,cs),
(872,757,ls),
(851,676,o),
(820,671,o),
(742,671,cs),
(488,671,l),
(664,1287,ls),
(668,1300,o),
(678,1306,o),
(695,1306,cs),
(747,1306,o),
(850,1304,o),
(1006,1297,cs),
(1102,1293,o),
(1206,1226,o),
(1206,1095,cs),
(1206,1070,o),
(1200,1044,o),
(1194,1019,cs),
(1190,1003,o),
(1263,1001,o),
(1268,1018,cs),
(1358,1337,ls),
(1365,1361,o),
(1350,1367,o),
(1288,1367,cs),
(1074,1367,o),
(848,1363,o),
(623,1363,cs),
(543,1363,o),
(462,1363,o),
(382,1367,c),
(364,1367,o),
(345,1297,o),
(363,1297,cs),
(511,1297,o),
(545,1273,o),
(520,1186,cs),
(233,176,ls),
(207,84,o),
(166,63,o),
(15,63,cs),
(-3,63,o),
(-23,-7,o),
(-5,-7,c)
);
}
);
width = 1233;
},
{
anchors = (
{
name = bottom;
pos = (509,0);
},
{
name = cedilla;
pos = (382,0);
},
{
name = ogonek;
pos = (868,40);
},
{
name = ogonek_above;
pos = (619,1338);
},
{
name = ogonek_left;
pos = (658,40);
},
{
name = top;
pos = (786,1363);
},
{
name = topleft;
pos = (126,1363);
},
{
name = zzcurly;
pos = (535,1341);
}
);
layerId = "E06D8587-1A71-4EC2-BD94-397D882F5FC1";
shapes = (
{
closed = 1;
nodes = (
(64,-2,o),
(139,0,o),
(213,0,cs),
(430,0,o),
(646,-7,o),
(844,-7,cs),
(878,-7,o),
(889,-2,o),
(894,18,cs),
(976,354,l),
(976,374,o),
(908,374,o),
(902,354,cs),
(851,171,o),
(759,79,o),
(639,74,cs),
(421,65,l),
(360,65,o),
(329,96,o),
(329,159,cs),
(329,188,o),
(334,228,o),
(347,280,cs),
(428,605,l),
(634,605,ls),
(698,605,o),
(708,580,o),
(696,528,cs),
(674,432,ls),
(669,410,o),
(731,411,o),
(735,431,c),
(752,514,o),
(772,599,o),
(785,654,cs),
(799,711,o),
(822,799,o),
(843,869,c),
(843,892,o),
(781,890,o),
(776,870,cs),
(750,755,ls),
(735,690,o),
(710,680,o),
(652,680,cs),
(447,680,l),
(593,1267,ls),
(597,1284,o),
(608,1292,o),
(625,1292,cs),
(682,1292,o),
(767,1291,o),
(876,1283,cs),
(963,1277,o),
(1032,1203,o),
(1032,1099,cs),
(1032,1069,o),
(1030,1050,o),
(1023,1019,cs),
(1019,1000,o),
(1091,999,o),
(1096,1020,cs),
(1173,1337,ls),
(1179,1361,o),
(1164,1367,o),
(1103,1367,cs),
(927,1367,o),
(735,1363,o),
(542,1363,cs),
(467,1363,o),
(392,1363,o),
(317,1367,c),
(299,1367,o),
(282,1291,o),
(300,1291,cs),
(421,1291,o),
(448,1268,o),
(427,1182,cs),
(183,190,ls),
(159,91,o),
(126,69,o),
(6,69,cs),
(-12,69,o),
(-28,-7,o),
(-10,-7,c)
);
}
);
width = 1056;
},
{
anchors = (
{
name = bottom;
pos = (770,0);
},
{
name = cedilla;
pos = (709,0);
},
{
name = ogonek;
pos = (1137,40);
},
{
name = ogonek_above;
pos = (641,1338);
},
{
name = ogonek_left;
pos = (805,40);
},
{
name = top;
pos = (975,1363);
},
{
name = topleft;
pos = (159,1363);
},
{
name = zzcurly;
pos = (557,1341);
}
);
layerId = "8F7CDE40-C368-4484-AA71-76B7ABD5539F";
shapes = (
{
closed = 1;
nodes = (
(93,-2,o),
(186,0,o),
(282,0,cs),
(579,0,o),
(875,-7,o),
(1146,-7,cs),
(1179,-7,o),
(1190,-2,o),
(1196,18,cs),
(1291,334,l),
(1290,352,o),
(1205,352,o),
(1199,334,cs),
(1142,157,o),
(1006,69,o),
(816,64,cs),
(554,57,l),
(461,57,o),
(414,94,o),
(414,166,cs),
(414,199,o),
(425,251,o),
(445,320,cs),
(529,609,l),
(821,609,ls),
(903,609,o),
(937,590,o),
(918,526,cs),
(893,442,ls),
(887,422,o),
(959,419,o),
(966,441,c),
(981,493,o),
(995,547,o),
(1023,650,cs),
(1044,728,o),
(1065,789,o),
(1090,859,c),
(1089,878,o),
(1017,878,o),
(1011,858,cs),
(983,757,ls),
(959,672,o),
(918,672,o),
(839,672,cs),
(548,672,l),
(728,1285,ls),
(732,1300,o),
(749,1304,o),
(765,1304,cs),
(818,1304,o),
(954,1301,o),
(1123,1295,cs),
(1256,1290,o),
(1356,1203,o),
(1356,1091,cs),
(1356,1065,o),
(1349,1039,o),
(1345,1019,cs),
(1341,1001,o),
(1427,1001,o),
(1432,1018,cs),
(1524,1337,ls),
(1531,1361,o),
(1516,1367,o),
(1454,1367,cs),
(1199,1367,o),
(943,1363,o),
(688,1363,cs),
(592,1363,o),
(492,1363,o),
(395,1367,c),
(377,1367,o),
(357,1291,o),
(375,1291,cs),
(544,1291,o),
(584,1267,o),
(558,1180,cs),
(263,182,ls),
(236,90,o),
(190,69,o),
(18,69,cs),
(1,69,o),
(-21,-7,o),
(-3,-7,c)
);
}
);
width = 1406;
},
{
anchors = (
{
name = bottom;
pos = (564,0);
},
{
name = cedilla;
pos = (510,0);
},
{
name = ogonek;
pos = (968,40);
},
{
name = ogonek_above;
pos = (600,1338);
},
{
name = ogonek_left;
pos = (686,40);
},
{
name = top;
pos = (869,1363);
},
{
name = topleft;
pos = (131,1363);
},
{
name = zzcurly;
pos = (516,1341);
}
);
layerId = "997BDFA1-EC67-4686-8CFE-E56BDBE179FE";
shapes = (
{
closed = 1;
nodes = (
(43,-2,o),
(127,0,o),
(212,0,cs),
(469,0,o),
(725,-7,o),
(960,-7,cs),
(993,-7,o),
(1004,-2,o),
(1010,18,cs),
(1104,344,l),
(1104,363,o),
(1027,363,o),
(1021,344,cs),
(964,164,o),
(848,74,o),
(693,69,cs),
(453,61,l),
(377,61,o),
(339,94,o),
(339,160,cs),
(339,191,o),
(348,237,o),
(366,300,cs),
(454,607,l),
(703,607,ls),
(776,607,o),
(797,585,o),
(781,527,cs),
(756,437,ls),
(750,416,o),
(817,415,o),
(823,436,c),
(841,508,o),
(860,580,o),
(880,652,cs),
(900,723,o),
(922,794,o),
(946,864,c),
(946,885,o),
(878,884,o),
(873,864,cs),
(844,756,ls),
(825,684,o),
(795,676,o),
(722,676,cs),
(474,676,l),
(647,1276,ls),
(651,1291,o),
(663,1298,o),
(682,1298,cs),
(742,1298,o),
(844,1296,o),
(986,1289,cs),
(1083,1284,o),
(1177,1215,o),
(1177,1097,cs),
(1177,1071,o),
(1172,1045,o),
(1166,1019,cs),
(1162,1001,o),
(1241,1000,o),
(1246,1019,cs),
(1336,1337,ls),
(1343,1361,o),
(1328,1367,o),
(1266,1367,cs),
(1051,1367,o),
(827,1363,o),
(603,1363,cs),
(517,1363,o),
(430,1363,o),
(344,1367,c),
(326,1367,o),
(306,1291,o),
(324,1291,cs),
(469,1291,o),
(502,1267,o),
(477,1181,cs),
(191,186,ls),
(164,91,o),
(125,69,o),
(-22,69,cs),
(-40,69,o),
(-60,-7,o),
(-42,-7,c)
);
}
);
width = 1230;
}
);
metricLeft = I;
unicode = 69;
}
{
glyphname = F;
kernLeft = B;
kernRight = F;
layers = (
{
anchors = (
{
name = bottom;
pos = (255,0);
},
{
name = top;
pos = (425,666);
},
{
name = zzcurly;
pos = (338,655);
}
);
guides = (
{
angle = 74.0198;
pos = (540,729);
},
{
angle = 254.0813;
pos = (902,679);
}
);
layerId = master01;
shapes = (
{
closed = 1;
nodes = (
(55,-1,o),
(97,0,o),
(139,0,cs),
(181,0,o),
(223,-1,o),
(265,-3,c),
(273,-3,o),
(283,34,o),
(274,34,cs),
(192,34,o),
(186,53,o),
(197,91,cs),
(261,313,l),
(354,313,ls),
(395,313,o),
(406,295,o),
(393,251,cs),
(376,194,ls),
(373,183,o),
(409,185,o),
(411,194,c),
(422,240,o),
(435,284,o),
(448,333,cs),
(461,379,o),
(475,425,o),
(490,471,c),
(490,481,o),
(459,480,o),
(457,471,cs),
(441,414,ls),
(429,372,o),
(404,351,o),
(364,351,cs),
(271,351,l),
(350,623,ls),
(352,630,o),
(358,634,o),
(367,634,cs),
(396,634,o),
(446,633,o),
(515,629,cs),
(581,626,o),
(608,598,o),
(608,536,cs),
(608,523,o),
(606,511,o),
(603,498,cs),
(601,488,o),
(639,488,o),
(642,498,cs),
(685,649,ls),
(689,664,o),
(684,667,o),
(656,667,cs),
(546,667,o),
(436,666,o),
(326,666,cs),
(284,666,o),
(243,666,o),
(202,667,c),
(192,667,o),
(183,630,o),
(192,630,cs),
(277,630,o),
(277,611,o),
(267,577,cs),
(126,91,ls),
(115,53,o),
(103,34,o),
(22,34,cs),
(14,34,o),
(4,-3,o),
(13,-3,c)
);
}
);
width = 591;
},
{
anchors = (
{
name = bottom;
pos = (271,0);
},
{
name = top;
pos = (430,666);
},
{
name = zzcurly;
pos = (368,655);
}
);
guides = (
{
angle = 73.2448;
pos = (591,720);
},
{
angle = 253.3738;
pos = (935,679);
}
);
layerId = "2438E31C-45B5-47A7-9B3D-1A0FEFB47671";
shapes = (
{
closed = 1;
nodes = (
(50,-1,o),
(96,0,o),
(142,0,cs),
(188,0,o),
(234,-1,o),
(280,-4,c),
(289,-4,o),
(299,42,o),
(290,42,cs),
(216,42,o),
(211,62,o),
(222,99,cs),
(286,310,l),
(364,310,ls),
(401,310,o),
(411,291,o),
(398,246,cs),
(382,192,ls),
(379,183,o),
(422,183,o),
(424,192,c),
(436,235,o),
(450,286,o),
(464,333,cs),
(479,383,o),
(493,426,o),
(508,473,c),
(508,483,o),
(465,483,o),
(462,473,cs),
(447,418,ls),
(436,376,o),
(411,355,o),
(374,355,cs),
(299,355,l),
(375,606,ls),
(378,617,o),
(384,623,o),
(390,623,cs),
(420,623,o),
(467,622,o),
(532,619,cs),
(590,617,o),
(615,593,o),
(615,541,cs),
(615,525,o),
(614,511,o),
(610,500,cs),
(607,488,o),
(652,490,o),
(655,500,cs),
(697,639,ls),
(704,663,o),
(698,668,o),
(667,668,cs),
(557,668,o),
(448,666,o),
(338,666,cs),
(290,666,o),
(241,667,o),
(192,668,c),
(182,668,o),
(173,623,o),
(182,623,cs),
(258,623,o),
(260,603,o),
(250,569,cs),
(108,99,ls),
(97,62,o),
(85,42,o),
(13,42,cs),
(4,42,o),
(-5,-4,o),
(3,-4,c)
);
}
);
width = 607;
},
{
anchors = (
{
name = bottom;
pos = (251,0);
},
{
name = top;
pos = (439,666);
},
{
name = zzcurly;
pos = (334,655);
}
);
guides = (
{
angle = 74.3154;
pos = (526,732);
},
{
angle = 254.4028;
pos = (895,679);
},
{
angle = 73.7476;
pos = (833,679);
}
);
layerId = "7904EAEE-2B64-409E-B923-0048172372BE";
shapes = (
{
closed = 1;
nodes = (
(58,-1,o),
(98,0,o),
(139,0,cs),
(180,0,o),
(220,-1,o),
(261,-3,c),
(269,-3,o),
(279,31,o),
(270,31,cs),
(185,31,o),
(180,51,o),
(190,88,cs),
(254,315,l),
(352,315,ls),
(394,315,o),
(406,298,o),
(395,260,cs),
(376,195,ls),
(373,184,o),
(406,186,o),
(408,195,c),
(419,241,o),
(432,287,o),
(445,333,cs),
(457,379,o),
(471,425,o),
(485,471,c),
(485,481,o),
(458,479,o),
(456,471,cs),
(441,413,ls),
(430,371,o),
(403,350,o),
(363,350,cs),
(264,350,l),
(342,628,ls),
(344,635,o),
(350,637,o),
(360,637,cs),
(389,637,o),
(439,636,o),
(510,633,cs),
(578,629,o),
(606,600,o),
(606,534,cs),
(606,522,o),
(604,510,o),
(601,497,cs),
(599,487,o),
(635,488,o),
(638,497,cs),
(681,649,ls),
(685,664,o),
(679,667,o),
(653,667,cs),
(544,667,o),
(435,666,o),
(326,666,cs),
(286,666,o),
(245,665,o),
(205,667,c),
(195,667,o),
(187,633,o),
(196,633,cs),
(280,633,o),
(282,613,o),
(272,579,cs),
(134,88,ls),
(123,50,o),
(110,31,o),
(27,31,cs),
(18,31,o),
(8,-3,o),
(17,-3,c)
);
}
);
width = 588;
},
{
anchors = (
{
name = bottom;
pos = (216,0);
},
{
name = top;
pos = (350,666);
},
{
name = zzcurly;
pos = (291,655);
}
);
guides = (
{
angle = 76.8963;
pos = (461,723);
},
{
angle = 76.7707;
pos = (746,679);
}
);
layerId = "E06D8587-1A71-4EC2-BD94-397D882F5FC1";
shapes = (
{
closed = 1;
nodes = (
(49,-1,o),
(83,0,o),
(119,0,cs),
(154,0,o),
(188,-1,o),
(223,-3,c),
(232,-3,o),
(240,34,o),
(231,34,cs),
(172,34,o),
(163,53,o),
(172,91,cs),
(223,313,l),
(293,313,ls),
(325,313,o),
(333,292,o),
(321,243,cs),
(309,194,ls),
(307,184,o),
(338,184,o),
(340,194,c),
(349,240,o),
(360,287,o),
(370,333,cs),
(381,380,o),
(393,426,o),
(405,472,c),
(405,482,o),
(376,482,o),
(374,472,cs),
(362,416,ls),
(353,374,o),
(332,353,o),
(302,353,cs),
(233,353,l),
(294,618,ls),
(296,626,o),
(301,630,o),
(307,630,cs),
(333,630,o),
(367,629,o),
(425,626,cs),
(474,623,o),
(495,597,o),
(495,538,cs),
(495,524,o),
(493,510,o),
(491,499,cs),
(488,488,o),
(522,489,o),
(524,499,cs),
(557,644,ls),
(561,663,o),
(558,668,o),
(534,668,cs),
(442,668,o),
(365,666,o),
(273,666,cs),
(237,666,o),
(201,666,o),
(164,668,c),
(156,668,o),
(148,631,o),
(157,631,cs),
(221,631,o),
(223,611,o),
(215,577,cs),
(101,91,ls),
(92,53,o),
(80,34,o),
(21,34,cs),
(12,34,o),
(5,-3,o),
(14,-3,c)
);
}
);
width = 484;
},
{
anchors = (
{
name = bottom;
pos = (304,0);
},
{
name = top;
pos = (519,666);
},
{
name = zzcurly;
pos = (383,655);
}
);
guides = (
{
angle = 73.2363;
pos = (693,999);
}
);
layerId = "8F7CDE40-C368-4484-AA71-76B7ABD5539F";
shapes = (
{
closed = 1;
nodes = (
(70,-1,o),
(120,0,o),
(169,0,cs),
(217,0,o),
(267,-1,o),
(315,-3,c),
(324,-3,o),
(335,34,o),
(326,34,cs),
(211,34,o),
(219,57,o),
(229,91,cs),
(297,314,l),
(414,314,ls),
(466,314,o),
(478,298,o),
(466,260,cs),
(446,194,ls),
(443,183,o),
(483,186,o),
(485,194,c),
(495,232,o),
(523,330,o),
(524,333,cs),
(538,379,o),
(559,443,o),
(568,471,c),
(567,480,o),
(535,479,o),
(533,471,cs),
(516,413,ls),
(503,370,o),
(474,349,o),
(425,349,cs),
(308,349,l),
(393,628,ls),
(395,635,o),
(401,637,o),
(413,637,cs),
(450,637,o),
(527,636,o),
(591,633,cs),
(676,629,o),
(712,598,o),
(712,530,cs),
(712,520,o),
(710,509,o),
(707,498,cs),
(705,489,o),
(749,487,o),
(752,497,cs),
(798,654,ls),
(801,665,o),
(794,667,o),
(764,667,cs),
(635,667,o),
(492,666,o),
(364,666,cs),
(317,666,o),
(271,666,o),
(224,667,c),
(213,667,o),
(204,630,o),
(213,630,cs),
(324,630,o),
(317,608,o),
(307,576,cs),
(158,91,ls),
(148,57,o),
(140,34,o),
(32,34,cs),
(24,34,o),
(13,-3,o),
(22,-3,c)
);
}
);
width = 706;
},
{
anchors = (
{
name = bottom;
pos = (255,0);
},
{
name = top;
pos = (425,666);
},
{
name = zzcurly;
pos = (338,655);
}
);
guides = (
{
angle = 74.0198;
pos = (500,729);
},
{
angle = 254.0813;
pos = (862,679);
}
);
layerId = "997BDFA1-EC67-4686-8CFE-E56BDBE179FE";
shapes = (
{
closed = 1;
nodes = (
(55,-1,o),
(97,0,o),
(139,0,cs),
(181,0,o),
(223,-1,o),
(265,-3,c),
(273,-3,o),
(283,34,o),
(274,34,cs),
(192,34,o),
(186,53,o),
(197,91,cs),
(261,313,l),
(354,313,ls),
(395,313,o),
(406,295,o),
(393,251,cs),
(376,194,ls),
(373,183,o),
(409,185,o),
(411,194,c),
(422,240,o),
(435,284,o),
(448,333,cs),
(461,379,o),
(475,425,o),
(490,471,c),
(490,481,o),
(459,480,o),
(457,471,cs),
(441,414,ls),
(429,372,o),
(404,351,o),
(364,351,cs),
(271,351,l),
(350,623,ls),
(352,630,o),
(358,634,o),
(367,634,cs),
(396,634,o),
(446,633,o),
(515,629,cs),
(581,626,o),
(608,598,o),
(608,536,cs),
(608,523,o),
(606,511,o),
(603,498,cs),
(601,488,o),
(639,488,o),
(642,498,cs),
(685,649,ls),
(689,664,o),
(684,667,o),
(656,667,cs),
(546,667,o),
(436,666,o),
(326,666,cs),
(284,666,o),
(243,666,o),
(202,667,c),
(192,667,o),
(183,630,o),
(192,630,cs),
(277,630,o),
(277,611,o),
(267,577,cs),
(126,91,ls),
(115,53,o),
(103,34,o),
(22,34,cs),
(14,34,o),
(4,-3,o),
(13,-3,c)
);
}
);
width = 592;
}
);
unicode = 70;
}
{
glyphname = G;
layers = (
{
anchors = (
{
name = bottom;
pos = (695,0);
},
{
name = cedilla;
pos = (731,0);
},
{
name = center;
pos = (1209,291);
},
{
name = top;
pos = (1080,1363);
}
);
layerId = master01;
shapes = (
{
closed = 1;
nodes = (
(777,-27,o),
(827,-22,o),
(870,-16,cs),
(933,-7,o),
(1204,31,o),
(1252,31,cs),
(1267,31,o),
(1274,42,o),
(1274,63,cs),
(1274,71,o),
(1268,76,o),
(1257,78,cs),
(1245,80,o),
(1239,86,o),
(1239,97,cs),
(1239,107,o),
(1241,119,o),
(1245,133,cs),
(1310,363,ls),
(1331,437,o),
(1356,476,o),
(1484,478,cs),
(1502,478,o),
(1525,554,o),
(1507,554,c),
(1423,551,o),
(1338,549,o),
(1254,549,cs),
(1170,549,o),
(1085,551,o),
(1001,554,c),
(983,554,o),
(960,478,o),
(978,478,cs),
(1189,478,o),
(1194,438,o),
(1173,363,cs),
(1120,173,ls),
(1097,90,o),
(984,48,o),
(780,48,cs),
(529,48,o),
(380,236,o),
(380,475,cs),
(380,878,o),
(694,1314,o),
(1103,1314,cs),
(1301,1314,o),
(1449,1257,o),
(1449,1076,cs),
(1449,1055,o),
(1447,1035,o),
(1444,1014,cs),
(1441,996,o),
(1508,994,o),
(1514,1019,cs),
(1547,1155,o),
(1573,1257,o),
(1573,1327,c),
(1562,1327,o),
(1513,1337,o),
(1428,1356,cs),
(1343,1375,o),
(1243,1385,o),
(1130,1385,cs),
(669,1385,o),
(217,912,o),
(217,454,cs),
(217,158,o),
(428,-27,o),
(721,-27,cs)
);
}
);
width = 1476;
},
{
anchors = (
{
name = bottom;
pos = (684,0);
},
{
name = cedilla;
pos = (661,0);
},
{
name = center;
pos = (1209,291);
},
{
name = top;
pos = (1069,1363);
}
);
layerId = "2438E31C-45B5-47A7-9B3D-1A0FEFB47671";
shapes = (
{
closed = 1;
nodes = (
(752,-27,o),
(797,-27,o),
(862,-17,cs),
(957,-3,o),
(1185,29,o),
(1274,29,cs),
(1291,29,o),
(1300,43,o),
(1300,72,cs),
(1300,80,o),
(1295,85,o),
(1285,87,cs),
(1275,89,o),
(1270,95,o),
(1270,105,cs),
(1270,114,o),
(1271,124,o),
(1274,133,cs),
(1341,361,ls),
(1358,418,o),
(1383,459,o),
(1485,459,cs),
(1503,459,o),
(1523,555,o),
(1505,555,c),
(1417,549,o),
(1328,549,o),
(1240,549,cs),
(1152,549,o),
(1063,552,o),
(975,555,c),
(957,555,o),
(934,459,o),
(952,459,cs),
(1130,459,o),
(1131,418,o),
(1116,364,cs),
(1075,219,ls),
(1046,115,o),
(938,63,o),
(752,63,cs),
(533,63,o),
(420,241,o),
(420,487,cs),
(420,864,o),
(733,1298,o),
(1104,1298,cs),
(1269,1298,o),
(1432,1239,o),
(1432,1059,cs),
(1432,1043,o),
(1432,1026,o),
(1427,999,cs),
(1422,974,o),
(1516,974,o),
(1522,993,cs),
(1561,1110,o),
(1581,1222,o),
(1581,1329,c),
(1540,1329,o),
(1475,1339,o),
(1384,1357,cs),
(1293,1375,o),
(1207,1384,o),
(1128,1384,cs),
(644,1384,o),
(178,923,o),
(178,449,cs),
(178,160,o),
(411,-27,o),
(721,-27,cs)
);
}
);
width = 1474;
},
{
anchors = (
{
name = bottom;
pos = (699,0);
},
{
name = cedilla;
pos = (754,0);
},
{
name = center;
pos = (1228,291);
},
{
name = top;
pos = (1084,1363);
}
);
layerId = "7904EAEE-2B64-409E-B923-0048172372BE";
shapes = (
{
closed = 1;
nodes = (
(785,-27,o),
(837,-20,o),
(873,-16,cs),
(925,-10,o),
(1210,32,o),
(1245,32,cs),
(1259,32,o),
(1265,42,o),
(1265,60,cs),
(1265,68,o),
(1259,73,o),
(1248,75,cs),
(1235,77,o),
(1229,83,o),
(1229,94,cs),
(1229,105,o),
(1231,117,o),
(1235,133,cs),
(1299,361,ls),
(1322,444,o),
(1349,484,o),
(1484,484,cs),
(1502,484,o),
(1526,554,o),
(1508,554,c),
(1425,552,o),
(1342,549,o),
(1259,549,cs),
(1176,549,o),
(1093,551,o),
(1010,554,c),
(992,554,o),
(969,484,o),
(987,484,cs),
(1209,484,o),
(1214,444,o),
(1190,356,cs),
(1135,158,ls),
(1114,82,o),
(999,43,o),
(789,43,cs),
(528,43,o),
(367,234,o),
(367,471,cs),
(367,883,o),
(681,1319,o),
(1103,1319,cs),
(1312,1319,o),
(1455,1263,o),
(1455,1082,cs),
(1455,1059,o),
(1454,1038,o),
(1450,1019,cs),
(1447,1003,o),
(1505,1001,o),
(1511,1028,cs),
(1543,1170,o),
(1570,1269,o),
(1570,1326,c),
(1569,1326,o),
(1526,1336,o),
(1443,1356,cs),
(1360,1376,o),
(1255,1385,o),
(1131,1385,cs),
(677,1385,o),
(230,908,o),
(230,456,cs),
(230,157,o),
(434,-27,o),
(721,-27,cs)
);
}
);
width = 1477;
},
{
anchors = (
{
name = bottom;
pos = (565,0);
},
{
name = cedilla;
pos = (575,0);
},
{
name = center;
pos = (988,291);
},
{
name = top;
pos = (923,1363);
}
);
layerId = "E06D8587-1A71-4EC2-BD94-397D882F5FC1";
shapes = (
{
closed = 1;
nodes = (
(623,-27,o),
(665,-24,o),
(708,-16,cs),
(776,-4,o),
(972,30,o),
(1022,30,cs),
(1035,30,o),
(1041,43,o),
(1041,66,cs),
(1041,74,o),
(1036,79,o),
(1028,81,cs),
(1019,83,o),
(1014,89,o),
(1014,100,cs),
(1014,112,o),
(1016,122,o),
(1019,133,cs),
(1074,371,ls),
(1089,438,o),
(1111,478,o),
(1202,478,cs),
(1220,478,o),
(1236,554,o),
(1218,554,c),
(1149,550,o),
(1080,549,o),
(1012,549,cs),
(943,549,o),
(874,551,o),
(805,554,c),
(787,554,o),
(770,478,o),
(788,478,cs),
(947,478,o),
(950,438,o),
(936,376,cs),
(894,188,ls),
(874,98,o),
(784,53,o),
(628,53,cs),
(437,53,o),
(330,239,o),
(330,479,cs),
(330,873,o),
(581,1309,o),
(895,1309,cs),
(1043,1309,o),
(1166,1251,o),
(1166,1070,cs),
(1166,1051,o),
(1166,1032,o),
(1162,1009,cs),
(1158,988,o),
(1222,987,o),
(1227,1011,cs),
(1255,1140,o),
(1274,1244,o),
(1274,1328,c),
(1256,1328,o),
(1217,1336,o),
(1142,1356,cs),
(1070,1375,o),
(995,1385,o),
(916,1385,cs),
(540,1385,o),
(174,916,o),
(174,452,cs),
(174,160,o),
(349,-27,o),
(590,-27,cs)
);
}
);
width = 1197;
},
{
anchors = (
{
name = bottom;
pos = (825,0);
},
{
name = cedilla;
pos = (887,0);
},
{
name = center;
pos = (1430,291);
},
{
name = top;
pos = (1237,1363);
}
);
layerId = "8F7CDE40-C368-4484-AA71-76B7ABD5539F";
shapes = (
{
closed = 1;
nodes = (
(931,-27,o),
(989,-20,o),
(1032,-16,cs),
(1090,-10,o),
(1436,32,o),
(1482,32,cs),
(1499,32,o),
(1507,41,o),
(1507,60,cs),
(1507,68,o),
(1500,73,o),
(1486,75,cs),
(1471,77,o),
(1464,83,o),
(1464,94,cs),
(1464,102,o),
(1466,116,o),
(1471,133,cs),
(1546,355,ls),
(1573,436,o),
(1601,474,o),
(1766,478,cs),
(1784,478,o),
(1814,554,o),
(1796,554,c),
(1697,552,o),
(1596,549,o),
(1496,549,cs),
(1397,549,o),
(1296,551,o),
(1197,554,c),
(1179,554,o),
(1150,478,o),
(1168,478,cs),
(1431,478,o),
(1438,438,o),
(1410,350,cs),
(1346,158,ls),
(1320,82,o),
(1184,43,o),
(932,43,cs),
(621,43,o),
(430,233,o),
(430,471,cs),
(430,883,o),
(807,1319,o),
(1311,1319,cs),
(1559,1319,o),
(1732,1263,o),
(1732,1082,cs),
(1732,1059,o),
(1728,1038,o),
(1726,1019,cs),
(1724,1004,o),
(1794,1001,o),
(1801,1027,cs),
(1839,1170,o),
(1872,1270,o),
(1872,1326,c),
(1868,1326,o),
(1809,1338,o),
(1714,1356,cs),
(1616,1375,o),
(1491,1385,o),
(1344,1385,cs),
(798,1385,o),
(260,908,o),
(260,456,cs),
(260,156,o),
(507,-27,o),
(852,-27,cs)
);
}
);
width = 1755;
},
{
anchors = (
{
name = bottom;
pos = (695,0);
},
{
name = cedilla;
pos = (731,0);
},
{
name = center;
pos = (1209,291);
},
{
name = top;
pos = (1080,1363);
}
);
layerId = "997BDFA1-EC67-4686-8CFE-E56BDBE179FE";
shapes = (
{
closed = 1;
nodes = (
(777,-27,o),
(827,-22,o),
(870,-16,cs),
(933,-7,o),
(1204,31,o),
(1252,31,cs),
(1267,31,o),
(1274,42,o),
(1274,63,cs),
(1274,71,o),
(1268,76,o),
(1257,78,cs),
(1245,80,o),
(1239,86,o),
(1239,97,cs),
(1239,107,o),
(1241,119,o),
(1245,133,cs),
(1310,363,ls),
(1331,437,o),
(1356,476,o),
(1484,478,cs),
(1502,478,o),
(1525,554,o),
(1507,554,c),
(1423,551,o),
(1338,549,o),
(1254,549,cs),
(1170,549,o),
(1085,551,o),
(1001,554,c),
(983,554,o),
(960,478,o),
(978,478,cs),
(1189,478,o),
(1194,438,o),
(1173,363,cs),
(1120,173,ls),
(1097,90,o),
(984,48,o),
(780,48,cs),
(529,48,o),
(380,236,o),
(380,475,cs),
(380,878,o),
(694,1314,o),
(1103,1314,cs),
(1301,1314,o),
(1449,1257,o),
(1449,1076,cs),
(1449,1055,o),
(1447,1035,o),
(1444,1014,cs),
(1441,996,o),
(1508,994,o),
(1514,1019,cs),
(1547,1155,o),
(1573,1257,o),
(1573,1327,c),
(1562,1327,o),
(1513,1337,o),
(1428,1356,cs),
(1343,1375,o),
(1243,1385,o),
(1130,1385,cs),
(669,1385,o),
(217,912,o),
(217,454,cs),
(217,158,o),
(428,-27,o),
(721,-27,cs)
);
}
);
width = 1476;
}
);
unicode = 71;
}
{
glyphname = H;
kernLeft = B;
kernRight = H;
layers = (
{
anchors = (
{
name = bottom;
pos = (325,0);
},
{
name = cedilla;
pos = (125,0);
},
{
name = top;
pos = (503,666);
},
{
name = zzcurly;
pos = (592,655);
}
);
layerId = master01;
shapes = (
{
closed = 1;
nodes = (
(54,-1,o),
(95,0,o),
(137,0,cs),
(178,0,o),
(219,-1,o),
(260,-3,c),
(269,-3,o),
(280,34,o),
(271,34,cs),
(191,34,o),
(186,53,o),
(197,91,cs),
(335,575,ls),
(345,611,o),
(360,631,o),
(441,631,cs),
(451,631,o),
(460,668,o),
(451,668,c),
(409,666,o),
(368,666,o),
(326,666,cs),
(285,666,o),
(243,666,o),
(202,668,c),
(192,668,o),
(183,631,o),
(192,631,cs),
(273,631,o),
(276,611,o),
(266,575,cs),
(126,91,ls),
(115,53,o),
(102,34,o),
(22,34,cs),
(14,34,o),
(4,-3,o),
(13,-3,c)
);
},
{
closed = 1;
nodes = (
(425,-1,o),
(466,0,o),
(508,0,cs),
(549,0,o),
(590,-1,o),
(632,-3,c),
(641,-3,o),
(651,34,o),
(642,34,cs),
(562,34,o),
(557,54,o),
(568,91,cs),
(707,575,ls),
(717,611,o),
(732,631,o),
(812,631,cs),
(822,631,o),
(831,668,o),
(822,668,c),
(780,666,o),
(739,666,o),
(698,666,cs),
(656,666,o),
(615,666,o),
(573,668,c),
(561,668,o),
(554,631,o),
(563,631,cs),
(643,631,o),
(647,611,o),
(637,575,cs),
(498,91,ls),
(487,53,o),
(474,34,o),
(394,34,cs),
(385,34,o),
(375,-3,o),
(384,-3,c)
);
},
{
closed = 1;
nodes = (
(600,324,l),
(611,361,l),
(243,361,l),
(231,324,l)
);
}
);
width = 730;
},
{
anchors = (
{
name = bottom;
pos = (345,0);
},
{
name = cedilla;
pos = (127,0);
},
{
name = top;
pos = (514,666);
},
{
name = zzcurly;
pos = (586,655);
}
);
layerId = "2438E31C-45B5-47A7-9B3D-1A0FEFB47671";
shapes = (
{
closed = 1;
nodes = (
(49,-1,o),
(96,0,o),
(143,0,cs),
(189,0,o),
(236,-1,o),
(283,-4,c),
(291,-4,o),
(304,42,o),
(295,42,cs),
(215,42,o),
(214,61,o),
(225,99,cs),
(360,565,ls),
(371,603,o),
(382,623,o),
(458,623,cs),
(469,623,o),
(480,668,o),
(471,668,c),
(425,666,o),
(378,666,o),
(332,666,cs),
(285,666,o),
(239,666,o),
(192,668,c),
(182,668,o),
(171,623,o),
(179,623,cs),
(253,623,o),
(254,603,o),
(243,565,cs),
(111,99,ls),
(100,61,o),
(85,42,o),
(14,42,cs),
(5,42,o),
(-7,-4,o),
(2,-4,c)
);
},
{
closed = 1;
nodes = (
(431,-1,o),
(477,0,o),
(525,0,cs),
(572,0,o),
(619,-1,o),
(665,-4,c),
(674,-4,o),
(685,42,o),
(677,42,cs),
(598,42,o),
(597,61,o),
(608,99,cs),
(741,565,ls),
(752,603,o),
(777,623,o),
(840,623,cs),
(852,623,o),
(862,668,o),
(853,668,c),
(807,666,o),
(760,666,o),
(714,666,cs),
(667,666,o),
(621,666,o),
(574,668,c),
(565,668,o),
(552,623,o),
(561,623,cs),
(636,623,o),
(638,603,o),
(627,565,cs),
(493,99,ls),
(482,62,o),
(467,42,o),
(396,42,cs),
(387,42,o),
(375,-4,o),
(384,-4,c)
);
},
{
closed = 1;
nodes = (
(617,319,l),
(630,366,l),
(246,366,l),
(231,319,l)
);
}
);
width = 758;
},
{
anchors = (
{
name = bottom;
pos = (319,0);
},
{
name = cedilla;
pos = (132,0);
},
{
name = top;
pos = (499,662);
},
{
name = zzcurly;
pos = (584,655);
}
);
layerId = "7904EAEE-2B64-409E-B923-0048172372BE";
shapes = (
{
closed = 1;
nodes = (
(57,-1,o),
(96,0,o),
(135,0,cs),
(175,0,o),
(214,-1,o),
(253,-3,c),
(265,-3,o),
(273,31,o),
(264,31,cs),
(181,31,o),
(178,50,o),
(189,88,cs),
(329,578,ls),
(339,614,o),
(350,634,o),
(436,634,cs),
(444,634,o),
(453,668,o),
(444,668,c),
(405,666,o),
(365,666,o),
(325,666,cs),
(285,666,o),
(246,666,o),
(206,668,c),
(197,668,o),
(188,634,o),
(197,634,cs),
(283,634,o),
(283,614,o),
(273,578,cs),
(132,88,ls),
(121,50,o),
(110,31,o),
(26,31,cs),
(19,31,o),
(7,-3,o),
(17,-3,c)
);
},
{
closed = 1;
nodes = (
(424,-1,o),
(464,0,o),
(503,0,cs),
(542,0,o),
(582,-1,o),
(622,-3,c),
(631,-3,o),
(642,31,o),
(631,31,cs),
(547,31,o),
(545,50,o),
(556,88,cs),
(696,578,ls),
(706,614,o),
(720,634,o),
(803,634,cs),
(812,634,o),
(821,668,o),
(812,668,c),
(772,666,o),
(732,666,o),
(693,666,cs),
(653,666,o),
(613,666,o),
(574,668,c),
(565,668,o),
(556,634,o),
(564,634,cs),
(648,634,o),
(651,614,o),
(641,578,cs),
(500,88,ls),
(489,50,o),
(473,31,o),
(394,31,cs),
(385,31,o),
(375,-3,o),
(385,-3,c)
);
},
{
closed = 1;
nodes = (
(598,325,l),
(608,359,l),
(239,359,l),
(228,325,l)
);
}
);
width = 723;
},
{
anchors = (
{
name = bottom;
pos = (267,0);
},
{
name = cedilla;
pos = (104,0);
},
{
name = top;
pos = (422,666);
},
{
name = zzcurly;
pos = (520,655);
}
);
layerId = "E06D8587-1A71-4EC2-BD94-397D882F5FC1";
shapes = (
{
closed = 1;
nodes = (
(48,-1,o),
(83,0,o),
(118,0,cs),
(153,0,o),
(188,-1,o),
(223,-3,c),
(231,-3,o),
(240,34,o),
(231,34,cs),
(168,34,o),
(164,53,o),
(173,91,cs),
(284,575,ls),
(292,611,o),
(303,631,o),
(366,631,cs),
(375,631,o),
(383,668,o),
(374,668,c),
(339,666,o),
(304,666,o),
(269,666,cs),
(235,666,o),
(200,666,o),
(165,668,c),
(156,668,o),
(148,631,o),
(157,631,cs),
(219,631,o),
(220,611,o),
(212,575,cs),
(102,91,ls),
(93,53,o),
(83,34,o),
(21,34,cs),
(13,34,o),
(4,-3,o),
(13,-3,c)
);
},
{
closed = 1;
nodes = (
(349,-1,o),
(384,0,o),
(419,0,cs),
(454,0,o),
(489,-1,o),
(524,-3,c),
(533,-3,o),
(540,34,o),
(531,34,cs),
(469,34,o),
(465,53,o),
(474,91,cs),
(585,575,ls),
(593,612,o),
(604,631,o),
(666,631,cs),
(675,631,o),
(683,668,o),
(674,668,c),
(640,666,o),
(605,666,o),
(570,666,cs),
(535,666,o),
(500,666,o),
(466,668,c),
(457,668,o),
(449,631,o),
(457,631,cs),
(520,631,o),
(522,611,o),
(514,575,cs),
(403,91,ls),
(394,53,o),
(382,34,o),
(322,34,cs),
(313,34,o),
(305,-3,o),
(314,-3,c)
);
},
{
closed = 1;
nodes = (
(490,324,l),
(500,361,l),
(200,361,l),
(190,324,l)
);
}
);
width = 596;
},
{
anchors = (
{
name = bottom;
pos = (393,0);
},
{
name = cedilla;
pos = (156,0);
},
{
name = top;
pos = (571,666);
},
{
name = zzcurly;
pos = (671,655);
}
);
layerId = "8F7CDE40-C368-4484-AA71-76B7ABD5539F";
shapes = (
{
closed = 1;
nodes = (
(70,-1,o),
(117,0,o),
(165,0,cs),
(212,0,o),
(260,-1,o),
(308,-3,c),
(316,-3,o),
(328,34,o),
(319,34,cs),
(222,34,o),
(216,53,o),
(228,91,cs),
(377,574,ls),
(388,611,o),
(405,630,o),
(503,630,cs),
(514,630,o),
(523,668,o),
(514,668,c),
(465,666,o),
(418,666,o),
(369,666,cs),
(321,666,o),
(273,666,o),
(225,668,c),
(214,668,o),
(205,630,o),
(215,630,cs),
(326,630,o),
(319,607,o),
(309,574,cs),
(157,91,ls),
(147,59,o),
(138,34,o),
(32,34,cs),
(23,34,o),
(13,-3,o),
(22,-3,c)
);
},
{
closed = 1;
nodes = (
(511,-1,o),
(558,0,o),
(606,0,cs),
(654,0,o),
(702,-1,o),
(750,-3,c),
(758,-3,o),
(770,34,o),
(761,34,cs),
(664,34,o),
(658,55,o),
(669,91,cs),
(818,574,ls),
(829,610,o),
(847,630,o),
(945,630,cs),
(957,630,o),
(965,668,o),
(956,668,c),
(907,666,o),
(859,666,o),
(812,666,cs),
(764,666,o),
(715,666,o),
(667,668,c),
(652,668,o),
(648,630,o),
(656,630,cs),
(753,630,o),
(762,611,o),
(750,574,cs),
(599,91,ls),
(589,58,o),
(580,34,o),
(474,34,cs),
(466,34,o),
(455,-3,o),
(463,-3,c)
);
},
{
closed = 1;
nodes = (
(708,324,l),
(720,361,l),
(282,361,l),
(270,324,l)
);
}
);
width = 868;
},
{
anchors = (
{
name = bottom;
pos = (300,0);
},
{
name = cedilla;
pos = (100,0);
},
{
name = top;
pos = (478,666);
},
{
name = zzcurly;
pos = (557,655);
}
);
layerId = "997BDFA1-EC67-4686-8CFE-E56BDBE179FE";
shapes = (
{
closed = 1;
nodes = (
(29,-1,o),
(70,0,o),
(112,0,cs),
(153,0,o),
(194,-1,o),
(235,-3,c),
(244,-3,o),
(255,34,o),
(246,34,cs),
(166,34,o),
(161,53,o),
(172,91,cs),
(310,575,ls),
(320,611,o),
(335,631,o),
(416,631,cs),
(425,631,o),
(435,668,o),
(425,668,c),
(384,666,o),
(342,666,o),
(301,666,cs),
(259,666,o),
(218,666,o),
(176,668,c),
(167,668,o),
(157,631,o),
(167,631,cs),
(248,631,o),
(250,611,o),
(240,575,cs),
(101,91,ls),
(90,53,o),
(77,34,o),
(-3,34,cs),
(-12,34,o),
(-21,-3,o),
(-13,-3,c)
);
},
{
closed = 1;
nodes = (
(400,-1,o),
(441,0,o),
(483,0,cs),
(524,0,o),
(565,-1,o),
(607,-3,c),
(615,-3,o),
(626,34,o),
(617,34,cs),
(537,34,o),
(532,54,o),
(543,91,cs),
(681,575,ls),
(691,611,o),
(707,631,o),
(787,631,cs),
(797,631,o),
(806,668,o),
(797,668,c),
(755,666,o),
(714,666,o),
(673,666,cs),
(631,666,o),
(590,666,o),
(548,668,c),
(536,668,o),
(529,631,o),
(538,631,cs),
(618,631,o),
(622,611,o),
(612,575,cs),
(472,91,ls),
(461,53,o),
(448,34,o),
(369,34,cs),
(360,34,o),
(350,-3,o),
(359,-3,c)
);
},
{
closed = 1;
nodes = (
(575,324,l),
(586,361,l),
(217,361,l),
(206,324,l)
);
}
);
width = 731;
}
);
unicode = 72;
}
